<svg width="24" height="24" viewBox="0 0 24 24" fill="none" xmlns="http://www.w3.org/2000/svg">
<path d="M12 16.5C11.8011 16.5 11.6103 16.421 11.4697 16.2803C11.329 16.1397 11.25 15.9489 11.25 15.75V8.25C11.25 8.05109 11.329 7.86032 11.4697 7.71967C11.6103 7.57902 11.8011 7.5 12 7.5C12.1989 7.5 12.3897 7.57902 12.5303 7.71967C12.671 7.86032 12.75 8.05109 12.75 8.25V15.75C12.75 15.9489 12.671 16.1397 12.5303 16.2803C12.3897 16.421 12.1989 16.5 12 16.5Z" fill="#036A79"/>
<path d="M15.75 12.75H8.25C8.05109 12.75 7.86032 12.671 7.71967 12.5303C7.57902 12.3897 7.5 12.1989 7.5 12C7.5 11.8011 7.57902 11.6103 7.71967 11.4697C7.86032 11.329 8.05109 11.25 8.25 11.25H15.75C15.9489 11.25 16.1397 11.329 16.2803 11.4697C16.421 11.6103 16.5 11.8011 16.5 12C16.5 12.1989 16.421 12.3897 16.2803 12.5303C16.1397 12.671 15.9489 12.75 15.75 12.75Z" fill="#036A79"/>
<path d="M12 22.5C9.9233 22.5 7.89323 21.8842 6.16652 20.7304C4.4398 19.5767 3.09399 17.9368 2.29927 16.0182C1.50455 14.0996 1.29661 11.9884 1.70176 9.95156C2.1069 7.91476 3.10693 6.04383 4.57538 4.57538C6.04383 3.10693 7.91476 2.1069 9.95156 1.70176C11.9884 1.29661 14.0996 1.50455 16.0182 2.29927C17.9368 3.09399 19.5767 4.4398 20.7304 6.16652C21.8842 7.89323 22.5 9.9233 22.5 12C22.5 14.7848 21.3938 17.4555 19.4246 19.4246C17.4555 21.3938 14.7848 22.5 12 22.5ZM12 3C10.22 3 8.47992 3.52785 6.99987 4.51678C5.51983 5.50571 4.36628 6.91132 3.68509 8.55585C3.0039 10.2004 2.82567 12.01 3.17294 13.7558C3.5202 15.5016 4.37737 17.1053 5.63604 18.364C6.89472 19.6226 8.49836 20.4798 10.2442 20.8271C11.99 21.1743 13.7996 20.9961 15.4442 20.3149C17.0887 19.6337 18.4943 18.4802 19.4832 17.0001C20.4722 15.5201 21 13.78 21 12C21 9.61306 20.0518 7.32387 18.364 5.63604C16.6761 3.94822 14.387 3 12 3Z" fill="#036A79"/>
</svg>
