<svg width="124" height="127" viewBox="0 0 124 127" fill="none" xmlns="http://www.w3.org/2000/svg">
<g clip-path="url(#clip0_1_657)">
<g style="mix-blend-mode:luminosity" opacity="0.4">
<path d="M108.304 12.7902C125.359 29.845 125.354 57.5321 108.304 74.5824L69.8657 113.021L8.07349 51.2285L46.5118 12.7902C63.5666 -4.26456 91.2536 -4.26015 108.304 12.7902Z" fill="#DBDBDB"/>
<path d="M108.936 13.0479L39.4121 82.5718L7.88562 51.0453L45.8787 13.0523C63.2817 -4.35075 91.5374 -4.35076 108.94 13.0523L108.936 13.0479Z" fill="#F4F4F4"/>
<path d="M41.1946 83.186C40.833 83.0052 40.6086 82.6686 40.3281 82.3943C39.2933 81.3719 38.2771 80.3308 37.2548 79.3022C39.2309 77.3198 41.2008 75.3374 43.1832 73.3551C51.4993 65.0327 59.8216 56.7167 68.1439 48.3944C68.2 48.3383 68.2499 48.2821 68.3247 48.2011C67.3023 45.9008 67.2151 43.5693 68.2624 41.2503C69.0603 39.4923 70.3383 38.1707 72.0588 37.2855C75.4189 35.5649 79.577 36.394 82.0705 39.2803C84.5766 42.1791 84.7324 46.4244 82.4633 49.5476C80.4684 52.2968 76.4912 54.0298 72.2147 52.1223C71.1799 53.1633 70.1388 54.2169 69.0915 55.2642C59.8528 64.5029 50.6141 73.7416 41.3754 82.9803C41.3131 83.0426 41.2507 83.1174 41.1884 83.186H41.1946Z" fill="#475868"/>
<path d="M49.4546 91.4464C48.7626 90.9477 48.2265 90.2807 47.6218 89.6947C46.9922 89.0837 46.3688 88.4604 45.7516 87.837C45.6581 87.7434 45.5334 87.6686 45.5459 87.5066C47.9397 85.119 50.3336 82.7314 52.7274 80.3438C56.0688 77.0024 59.4164 73.661 62.7516 70.3134C63.3874 69.6775 64.1604 69.4281 65.0332 69.4281C67.6951 69.4281 70.357 69.4281 73.0189 69.4281C73.1872 69.4281 73.3493 69.4281 73.4989 69.4281C75.2756 64.9459 79.5894 63.2939 83.1802 64.148C87.0016 65.0581 89.5825 68.3933 89.5451 72.3955C89.5139 76.1546 86.7647 79.4897 83.0243 80.2939C79.2029 81.1105 75.1072 79.1718 73.4989 74.9888H65.8935C60.4263 80.456 54.928 85.9543 49.4359 91.4464H49.4546Z" fill="#475868"/>
<path d="M32.9347 74.9137C32.6978 74.8451 32.5731 74.6394 32.4172 74.4835C31.345 73.4238 30.2852 72.364 29.2255 71.298C29.1382 71.2107 28.9886 71.1359 29.0509 70.9614C34.5181 65.4817 39.9915 60.0021 45.4773 54.5038V46.9607C40.8081 45.103 39.3307 40.6208 40.2284 37.136C41.1822 33.4206 44.561 30.821 48.3512 30.8834C52.1788 30.9519 55.4953 33.6325 56.3119 37.2794C57.1535 41.0322 55.3955 45.2152 51.0131 46.9545C51.0131 47.1228 51.0131 47.3036 51.0131 47.4843C51.0131 50.1462 51.0069 52.8081 51.0193 55.4763C51.0193 56.3864 50.7201 57.1345 50.078 57.7828C44.3615 63.4931 38.6512 69.2034 32.9347 74.9137Z" fill="#475868"/>
<path d="M-29.699 150.796C-46.7538 133.741 -46.7494 106.054 -29.699 89.0038L8.73926 50.5655L70.5314 112.358L32.0932 150.796C15.0384 167.851 -12.6487 167.846 -29.699 150.796Z" fill="#28D7D5"/>
<path d="M39.1849 81.0128L70.7157 112.544L32.7227 150.537C15.3196 167.94 -12.936 167.94 -30.3391 150.537L39.1849 81.0128Z" fill="#036A79"/>
<path d="M-15.1165 135.321C-20.3156 130.122 -23.177 123.215 -23.177 115.865C-23.177 108.515 -20.3156 101.608 -15.1165 96.4088L2.78736 78.505C3.86583 77.4265 5.60509 77.4265 6.68357 78.505C7.76204 79.5834 7.76204 81.3227 6.68357 82.4012L-11.2203 100.305C-15.3783 104.463 -17.6662 109.986 -17.6662 115.865C-17.6662 121.744 -15.3783 127.267 -11.2203 131.425L-15.1165 135.321Z" fill="#FDFDFF"/>
<path d="M84.0341 170C106.107 170 124 152.107 124 130.034C124 107.962 106.107 90.0684 84.0341 90.0684C61.9617 90.0684 44.0684 107.962 44.0684 130.034C44.0684 152.107 61.9617 170 84.0341 170Z" fill="#EAEAEA"/>
<path d="M84.0342 165.549C103.648 165.549 119.549 149.649 119.549 130.034C119.549 110.42 103.648 94.5197 84.0342 94.5197C64.4199 94.5197 48.5194 110.42 48.5194 130.034C48.5194 149.649 64.4199 165.549 84.0342 165.549Z" fill="#28D7D5"/>
</g>
</g>
<defs>
<clipPath id="clip0_1_657">
<rect width="124" height="127" fill="white"/>
</clipPath>
</defs>
</svg>
