<svg width="24" height="24" viewBox="0 0 24 24" fill="none" xmlns="http://www.w3.org/2000/svg">
<path d="M16.5783 7.20511C16.4177 7.09622 16.199 7.13794 16.0899 7.29858C15.9809 7.45927 16.0228 7.67789 16.1834 7.78692C18.5166 9.37031 19.9095 11.9967 19.9095 14.8125C19.9095 19.4908 16.1035 23.2969 11.4252 23.2969C6.74686 23.2969 2.9408 19.4908 2.9408 14.8125C2.9408 13.8325 3.10472 12.8794 3.4283 11.9707L4.55044 13.6052C4.61602 13.7007 4.72444 13.7578 4.84031 13.7578C4.95619 13.7578 5.06456 13.7007 5.13019 13.6052L7.44717 10.2303C7.81172 9.70116 8.00442 9.08119 8.00442 8.4375C8.00442 7.98684 7.90908 7.55822 7.7385 7.16986C8.8808 6.6188 10.1478 6.32812 11.4252 6.32812C11.8287 6.32812 12.2335 6.35686 12.6307 6.41325L13.9478 8.3318C14.0134 8.42728 14.1218 8.48438 14.2377 8.48438C14.3535 8.48438 14.4619 8.42728 14.5275 8.3318L16.8446 4.95684C17.2091 4.42772 17.4018 3.80775 17.4018 3.16406C17.4018 1.41937 15.9824 0 14.2377 0C12.493 0 11.0737 1.41937 11.0737 3.16406C11.0737 3.8077 11.2663 4.42767 11.6305 4.95638L12.107 5.65041C11.8802 5.63377 11.6526 5.625 11.4253 5.625C10.0245 5.625 8.63475 5.94759 7.38502 6.55955C6.80817 5.78002 5.88249 5.27344 4.84045 5.27344C3.09577 5.27344 1.67639 6.69281 1.67639 8.4375C1.67639 9.08119 1.86905 9.70116 2.23327 10.2298L2.94666 11.2689C2.47636 12.3916 2.23767 13.5827 2.23767 14.8125C2.23767 19.8785 6.35916 24 11.4252 24C16.4912 24 20.6127 19.8785 20.6127 14.8125C20.6127 11.7634 19.1045 8.91952 16.5783 7.20511ZM14.2377 0.703125C15.5946 0.703125 16.6986 1.80712 16.6986 3.16406C16.6986 3.66469 16.5489 4.1467 16.2653 4.55841L14.2377 7.51167L13.1248 5.89064C13.1223 5.88698 13.1199 5.88333 13.1174 5.87977L12.2099 4.55794C11.9265 4.14666 11.7768 3.66459 11.7768 3.16406C11.7767 1.80712 12.8807 0.703125 14.2377 0.703125ZM2.37942 8.4375C2.37942 7.08056 3.48342 5.97656 4.84036 5.97656C6.1973 5.97656 7.3013 7.08056 7.3013 8.4375C7.3013 8.93812 7.15153 9.42009 6.86789 9.83184L4.84036 12.7851L2.8125 9.83138C2.52919 9.42009 2.37942 8.93812 2.37942 8.4375Z" fill="#DF1C26"/>
<path d="M6.59814 8.4375C6.59814 7.46822 5.80961 6.67969 4.84033 6.67969C3.87105 6.67969 3.08252 7.46822 3.08252 8.4375C3.08252 9.40678 3.87105 10.1953 4.84033 10.1953C5.80961 10.1953 6.59814 9.40678 6.59814 8.4375ZM3.78564 8.4375C3.78564 7.85597 4.2588 7.38281 4.84033 7.38281C5.42186 7.38281 5.89502 7.85597 5.89502 8.4375C5.89502 9.01903 5.42186 9.49219 4.84033 9.49219C4.2588 9.49219 3.78564 9.01903 3.78564 8.4375Z" fill="#DF1C26"/>
<path d="M8.61267 14.189C7.64339 14.189 6.85486 14.9775 6.85486 15.9468C6.85486 16.9161 7.64339 17.7046 8.61267 17.7046C9.58195 17.7046 10.3705 16.9161 10.3705 15.9468C10.3705 14.9775 9.58195 14.189 8.61267 14.189ZM8.61267 17.0015C8.03114 17.0015 7.55798 16.5283 7.55798 15.9468C7.55798 15.3652 8.03114 14.8921 8.61267 14.8921C9.1942 14.8921 9.66736 15.3652 9.66736 15.9468C9.66736 16.5283 9.19425 17.0015 8.61267 17.0015Z" fill="#DF1C26"/>
<path d="M8.61267 12.7827C6.86798 12.7827 5.44861 14.2021 5.44861 15.9468C5.44861 16.5905 5.64126 17.2104 6.00548 17.7391L8.32284 21.1145C8.38842 21.21 8.49684 21.2671 8.61272 21.2671C8.72859 21.2671 8.83697 21.21 8.90255 21.1145L11.2196 17.7396C11.5841 17.2105 11.7768 16.5905 11.7768 15.9468C11.7767 14.2021 10.3574 12.7827 8.61267 12.7827ZM10.6402 17.3411L8.61267 20.2944L6.58481 17.3407C6.3015 16.9294 6.15173 16.4474 6.15173 15.9468C6.15173 14.5898 7.25573 13.4858 8.61267 13.4858C9.96961 13.4858 11.0736 14.5898 11.0736 15.9468C11.0736 16.4474 10.9239 16.9294 10.6402 17.3411Z" fill="#DF1C26"/>
<path d="M14.2377 4.92188C15.207 4.92188 15.9955 4.13334 15.9955 3.16406C15.9955 2.19478 15.207 1.40625 14.2377 1.40625C13.2684 1.40625 12.4799 2.19478 12.4799 3.16406C12.4799 4.13334 13.2684 4.92188 14.2377 4.92188ZM14.2377 2.10938C14.8192 2.10938 15.2924 2.58253 15.2924 3.16406C15.2924 3.74559 14.8192 4.21875 14.2377 4.21875C13.6561 4.21875 13.183 3.74559 13.183 3.16406C13.183 2.58253 13.6561 2.10938 14.2377 2.10938Z" fill="#DF1C26"/>
<path d="M21.972 2.10938H18.4564C18.2622 2.10938 18.1049 2.26673 18.1049 2.46094C18.1049 2.65514 18.2622 2.8125 18.4564 2.8125H21.972C22.1662 2.8125 22.3236 2.65514 22.3236 2.46094C22.3236 2.26673 22.1662 2.10938 21.972 2.10938Z" fill="#DF1C26"/>
<path d="M19.8042 4.21875C19.9984 4.21875 20.1558 4.06139 20.1558 3.86719C20.1558 3.67298 19.9984 3.51562 19.8042 3.51562H18.3979C18.2037 3.51562 18.0464 3.67298 18.0464 3.86719C18.0464 4.06139 18.2037 4.21875 18.3979 4.21875H19.8042Z" fill="#DF1C26"/>
<path d="M16.6986 15.2437C16.6986 15.0494 16.5412 14.8921 16.347 14.8921H12.8314C12.6372 14.8921 12.4799 15.0494 12.4799 15.2437C12.4799 15.4379 12.6372 15.5952 12.8314 15.5952H16.347C16.5412 15.5952 16.6986 15.4379 16.6986 15.2437Z" fill="#DF1C26"/>
<path d="M12.7729 16.2983C12.5787 16.2983 12.4214 16.4557 12.4214 16.6499C12.4214 16.8441 12.5787 17.0015 12.7729 17.0015H14.1792C14.3734 17.0015 14.5308 16.8441 14.5308 16.6499C14.5308 16.4557 14.3734 16.2983 14.1792 16.2983H12.7729Z" fill="#DF1C26"/>
</svg>
