<svg width="32" height="32" viewBox="0 0 32 32" fill="none" xmlns="http://www.w3.org/2000/svg">
<rect width="32" height="32" rx="8" fill="#F4FBF3"/>
<path d="M15.9869 26.7488C14.2727 26.7494 12.5837 26.3357 11.0639 25.5428C10.7744 25.4048 10.4425 25.3854 10.1389 25.4888L8.16988 26.1038C7.85716 26.2015 7.52328 26.2095 7.20624 26.1269C6.8892 26.0442 6.60173 25.8742 6.37655 25.6362C6.15137 25.3982 5.99752 25.1018 5.93252 24.7807C5.86752 24.4595 5.89398 24.1266 6.00888 23.8198L6.62688 22.1728C6.69035 22.0147 6.71893 21.8447 6.71064 21.6745C6.70236 21.5044 6.65741 21.338 6.57888 21.1868C5.71789 19.6246 5.25928 17.8727 5.24439 16.089C5.22951 14.3053 5.65882 12.546 6.49362 10.9697C7.32842 9.39335 8.54244 8.04959 10.0262 7.05958C11.51 6.06957 13.2169 5.46445 14.9929 5.29879C17.7239 5.04113 20.4501 5.83693 22.6136 7.52333C24.7771 9.20972 26.2143 11.6592 26.631 14.3705C27.0478 17.0817 26.4127 19.8498 24.8556 22.1081C23.2985 24.3664 20.9372 25.9443 18.2549 26.5188C17.5087 26.6723 16.7487 26.7494 15.9869 26.7488ZM10.5559 23.9228C10.9733 23.9212 11.385 24.0203 11.7559 24.2118C13.0326 24.87 14.4452 25.2218 15.8815 25.2391C17.3179 25.2564 18.7385 24.9388 20.0307 24.3115C21.3229 23.6842 22.4512 22.7644 23.3261 21.6252C24.201 20.4859 24.7984 19.1584 25.071 17.7481C25.3435 16.3377 25.2837 14.8833 24.8963 13.5001C24.5089 12.1169 23.8045 10.8429 22.839 9.77933C21.8736 8.71573 20.6736 7.8917 19.3342 7.37261C17.9948 6.85351 16.553 6.65362 15.1229 6.78879C13.5955 6.93291 12.1279 7.45477 10.8524 8.30734C9.57693 9.15992 8.53358 10.3164 7.81638 11.6727C7.09918 13.0289 6.73065 14.5423 6.74401 16.0764C6.75736 17.6105 7.15218 19.1172 7.89288 20.4608C8.07705 20.8016 8.18496 21.1783 8.20914 21.5649C8.23331 21.9515 8.17317 22.3387 8.03288 22.6998L7.41288 24.3458C7.39666 24.3897 7.39303 24.4372 7.40239 24.483C7.41176 24.5289 7.43374 24.5712 7.46588 24.6052C7.49801 24.6392 7.53901 24.6636 7.58424 24.6755C7.62948 24.6874 7.67715 24.6865 7.72188 24.6728L9.69188 24.0578C9.97136 23.9692 10.2627 23.9237 10.5559 23.9228Z" fill="#DF1C26"/>
<path d="M15.9929 21.7488C15.7939 21.7488 15.6032 21.6698 15.4625 21.5291C15.3219 21.3885 15.2429 21.1977 15.2429 20.9988V15.2488C15.2429 15.0499 15.3219 14.8591 15.4625 14.7184C15.6032 14.5778 15.7939 14.4988 15.9929 14.4988C16.1918 14.4988 16.3825 14.5778 16.5232 14.7184C16.6638 14.8591 16.7429 15.0499 16.7429 15.2488V20.9988C16.7429 21.1977 16.6638 21.3885 16.5232 21.5291C16.3825 21.6698 16.1918 21.7488 15.9929 21.7488Z" fill="#DF1C26"/>
<path d="M15.9929 13.4988C16.6832 13.4988 17.2429 12.9391 17.2429 12.2488C17.2429 11.5584 16.6832 10.9988 15.9929 10.9988C15.3025 10.9988 14.7429 11.5584 14.7429 12.2488C14.7429 12.9391 15.3025 13.4988 15.9929 13.4988Z" fill="#DF1C26"/>
</svg>
