<svg width="24" height="24" viewBox="0 0 24 24" fill="none" xmlns="http://www.w3.org/2000/svg">
<g clip-path="url(#clip0_340_2802)">
<path d="M12.0001 24.0001C18.6275 24.0001 24.0001 18.6275 24.0001 12.0001C24.0001 5.37261 18.6275 0 12.0001 0C5.37261 0 0 5.37261 0 12.0001C0 18.6275 5.37261 24.0001 12.0001 24.0001Z" fill="#E92C2C"/>
<path d="M14.7028 22.019C9.16957 22.019 4.6839 17.5333 4.6839 12.0001C4.6839 6.46689 9.16952 1.98111 14.7028 1.98111C17.2886 1.98111 19.6455 2.96092 21.4229 4.56928C19.2252 1.78627 15.8214 0 12.0001 0C5.37262 0 0 5.37262 0 12.0001C0 18.6275 5.37262 24.0002 12.0001 24.0002C15.8214 24.0002 19.2252 22.2138 21.4229 19.4309C19.6455 21.0392 17.2886 22.019 14.7028 22.019Z" fill="#C10606"/>
<path d="M21.9707 12.4061C21.957 12.4061 21.9432 12.4057 21.9291 12.4049C21.5141 12.3823 21.196 12.0276 21.2186 11.6125C21.2236 11.5202 21.2266 11.4303 21.2276 11.3451C21.2322 10.9295 21.5774 10.5957 21.9884 10.6008C22.404 10.6054 22.7372 10.9461 22.7326 11.3617C22.7313 11.4726 22.7276 11.5836 22.7215 11.6944C22.6997 12.0955 22.3677 12.4061 21.9707 12.4061ZM21.7881 10.2234C21.4491 10.2234 21.1414 9.99288 21.0574 9.64892C20.6833 8.11401 19.7458 6.79034 18.4179 5.92171C18.07 5.69416 17.9725 5.22775 18.2 4.87993C18.4275 4.532 18.894 4.43453 19.2418 4.66207C20.8906 5.74052 22.0548 7.38497 22.5199 9.29236C22.6183 9.69617 22.3707 10.1034 21.9669 10.2018C21.9084 10.2162 21.8483 10.2234 21.7881 10.2234Z" fill="white"/>
<path d="M9.85584 16.3231C9.25407 16.9248 8.27854 16.9248 7.67688 16.3231C7.07516 15.7214 7.07516 14.7458 7.67688 14.1441L14.1441 7.67688C14.7459 7.07516 15.7214 7.07516 16.3232 7.67688C16.9248 8.2786 16.9248 9.25417 16.3231 9.85589L9.85584 16.3231Z" fill="#FFFEF7"/>
<path d="M14.1441 16.3231C14.7459 16.9248 15.7214 16.9248 16.3231 16.3231C16.9248 15.7214 16.9248 14.7458 16.3231 14.1441L9.85585 7.67688C9.25413 7.07516 8.27855 7.07516 7.67683 7.67688C7.07516 8.2786 7.07516 9.25417 7.67688 9.85589L14.1441 16.3231Z" fill="#FFFEF7"/>
</g>
<defs>
<clipPath id="clip0_340_2802">
<rect width="24" height="24" fill="white"/>
</clipPath>
</defs>
</svg>
