<svg width="24" height="24" viewBox="0 0 24 24" fill="none" xmlns="http://www.w3.org/2000/svg">
<path d="M14.625 22.5H8.625C8.52554 22.5 8.43016 22.4605 8.35983 22.3902C8.28951 22.3198 8.25 22.2245 8.25 22.125V13.875C8.25 13.7755 8.28951 13.6802 8.35983 13.6098C8.43016 13.5395 8.52554 13.5 8.625 13.5H14.625C14.7245 13.5 14.8198 13.5395 14.8902 13.6098C14.9605 13.6802 15 13.7755 15 13.875V22.125C15 22.2245 14.9605 22.3198 14.8902 22.3902C14.8198 22.4605 14.7245 22.5 14.625 22.5ZM9 21.75H14.25V14.25H9V21.75Z" fill="#DF1C26"/>
<path d="M14.625 14.25H8.625C8.52554 14.25 8.43016 14.2105 8.35983 14.1402C8.28951 14.0698 8.25 13.9745 8.25 13.875V12.375C8.25 12.2755 8.28951 12.1802 8.35983 12.1098C8.43016 12.0395 8.52554 12 8.625 12H14.625C14.7245 12 14.8198 12.0395 14.8902 12.1098C14.9605 12.1802 15 12.2755 15 12.375V13.875C15 13.9745 14.9605 14.0698 14.8902 14.1402C14.8198 14.2105 14.7245 14.25 14.625 14.25ZM9 13.5H14.25V12.75H9V13.5ZM8.625 15H14.625V15.75H8.625V15ZM8.625 16.5H14.625V17.25H8.625V16.5ZM8.625 18H14.625V18.75H8.625V18ZM8.625 19.5H14.625V20.25H8.625V19.5Z" fill="#DF1C26"/>
<path d="M10.125 13.875H10.875V19.875H10.125V13.875ZM12.375 13.875H13.125V19.875H12.375V13.875ZM18.375 22.5H14.625C14.5255 22.5 14.4302 22.4605 14.3598 22.3902C14.2895 22.3198 14.25 22.2245 14.25 22.125V19.125C14.25 19.05 14.2724 18.9767 14.3145 18.9146C14.3565 18.8525 14.4162 18.8044 14.4859 18.7766L16.3609 18.0266C16.4502 17.9909 16.5498 17.9909 16.6391 18.0266L18.5141 18.7766C18.5838 18.8044 18.6435 18.8525 18.6855 18.9146C18.7276 18.9767 18.75 19.05 18.75 19.125V22.125C18.75 22.2245 18.7105 22.3198 18.6402 22.3902C18.5698 22.4605 18.4745 22.5 18.375 22.5ZM15 21.75H18V19.3789L16.5 18.7789L15 19.3789V21.75Z" fill="#DF1C26"/>
<path d="M18.2359 20.5984L16.5 19.9039L14.7641 20.5984L14.4859 19.9016L16.3609 19.1516C16.4502 19.116 16.5498 19.116 16.6391 19.1516L18.5141 19.9016L18.2359 20.5984ZM8.625 22.5H4.875C4.77554 22.5 4.68016 22.4605 4.60984 22.3902C4.53951 22.3199 4.5 22.2245 4.5 22.125V19.125C4.49997 19.05 4.52243 18.9767 4.56448 18.9146C4.60653 18.8525 4.66623 18.8045 4.73587 18.7766L6.61087 18.0266C6.70019 17.991 6.79981 17.991 6.88913 18.0266L8.76412 18.7766C8.83377 18.8045 8.89347 18.8525 8.93552 18.9146C8.97757 18.9767 9.00003 19.05 9 19.125V22.125C9 22.2245 8.96049 22.3199 8.89017 22.3902C8.81984 22.4605 8.72446 22.5 8.625 22.5ZM5.25 21.75H8.25V19.3789L6.75 18.7789L5.25 19.3789V21.75Z" fill="#DF1C26"/>
<path d="M8.4859 20.5984L6.75003 19.9039L5.01415 20.5984L4.7359 19.9016L6.6109 19.1516C6.70022 19.116 6.79983 19.116 6.88915 19.1516L8.76415 19.9016L8.4859 20.5984Z" fill="#DF1C26"/>
<path d="M4.875 22.5H1.125C1.02554 22.5 0.930161 22.4605 0.859835 22.3902C0.789509 22.3199 0.75 22.2245 0.75 22.125V19.125C0.749972 19.05 0.772433 18.9767 0.81448 18.9146C0.856528 18.8525 0.91623 18.8045 0.985875 18.7766L2.86088 18.0266C2.95019 17.991 3.04981 17.991 3.13913 18.0266L5.01412 18.7766C5.08377 18.8045 5.14347 18.8525 5.18552 18.9146C5.22757 18.9767 5.25003 19.05 5.25 19.125V22.125C5.25 22.2245 5.21049 22.3199 5.14016 22.3902C5.06984 22.4605 4.97446 22.5 4.875 22.5ZM1.5 21.75H4.5V19.3789L3 18.7789L1.5 19.3789V21.75Z" fill="#DF1C26"/>
<path d="M4.7359 20.5984L3.00003 19.9039L1.26415 20.5984L0.985901 19.9016L2.8609 19.1516C2.95022 19.116 3.04983 19.116 3.13915 19.1516L5.01415 19.9016L4.7359 20.5984Z" fill="#DF1C26"/>
<path d="M5.25 19.125H4.5V16.3789L3 15.7789L1.5 16.3789V19.125H0.75V16.125C0.749972 16.05 0.772433 15.9767 0.81448 15.9146C0.856528 15.8525 0.91623 15.8045 0.985875 15.7766L2.86088 15.0266C2.95019 14.991 3.04981 14.991 3.13913 15.0266L5.01412 15.7766C5.08377 15.8045 5.14347 15.8525 5.18552 15.9146C5.22757 15.9767 5.25003 16.05 5.25 16.125V19.125Z" fill="#DF1C26"/>
<path d="M4.7359 17.5984L3.00003 16.9039L1.26415 17.5984L0.985901 16.9016L2.8609 16.1516C2.95022 16.1159 3.04983 16.1159 3.13915 16.1516L5.01415 16.9016L4.7359 17.5984ZM22.875 22.5H18.375C18.2756 22.5 18.1802 22.4605 18.1099 22.3902C18.0395 22.3198 18 22.2245 18 22.125V16.125C18 16.0255 18.0395 15.9302 18.1099 15.8598C18.1802 15.7895 18.2756 15.75 18.375 15.75H22.875C22.9745 15.75 23.0699 15.7895 23.1402 15.8598C23.2105 15.9302 23.25 16.0255 23.25 16.125V22.125C23.25 22.2245 23.2105 22.3198 23.1402 22.3902C23.0699 22.4605 22.9745 22.5 22.875 22.5ZM18.75 21.75H22.5V16.5H18.75V21.75Z" fill="#DF1C26"/>
<path d="M18.375 17.25H22.875V18H18.375V17.25ZM20.25 13.875H21V16.125H20.25V13.875ZM21.75 15H22.5V16.125H21.75V15ZM2.625 13.875H3.375V15.375H2.625V13.875ZM4.5 14.625H5.25V16.125H4.5V14.625ZM23.625 24H0.375C0.275544 24 0.180161 23.9605 0.109835 23.8902C0.0395088 23.8198 0 23.7245 0 23.625V22.125C0 22.0255 0.0395088 21.9302 0.109835 21.8598C0.180161 21.7895 0.275544 21.75 0.375 21.75H1.125V22.5H0.75V23.25H23.25V22.5H22.875V21.75H23.625C23.7245 21.75 23.8198 21.7895 23.8902 21.8598C23.9605 21.9302 24 22.0255 24 22.125V23.625C24 23.7245 23.9605 23.8198 23.8902 23.8902C23.8198 23.9605 23.7245 24 23.625 24ZM7.125 7.5C6.67999 7.5 6.24498 7.36804 5.87497 7.12081C5.50496 6.87357 5.21657 6.52217 5.04627 6.11104C4.87597 5.6999 4.83142 5.2475 4.91823 4.81105C5.00505 4.37459 5.21934 3.97368 5.53401 3.65901C5.84868 3.34434 6.24959 3.13005 6.68605 3.04323C7.1225 2.95642 7.5749 3.00097 7.98604 3.17127C8.39717 3.34157 8.74857 3.62996 8.99581 3.99997C9.24304 4.36998 9.375 4.80499 9.375 5.25C9.3744 5.84656 9.13716 6.41851 8.71533 6.84033C8.2935 7.26216 7.72155 7.4994 7.125 7.5ZM7.125 3.75C6.82833 3.75 6.53832 3.83797 6.29165 4.0028C6.04497 4.16762 5.85271 4.40189 5.73918 4.67598C5.62565 4.95006 5.59594 5.25166 5.65382 5.54264C5.7117 5.83361 5.85456 6.10088 6.06434 6.31066C6.27412 6.52044 6.54139 6.6633 6.83236 6.72118C7.12334 6.77906 7.42494 6.74935 7.69903 6.63582C7.97311 6.52229 8.20738 6.33003 8.3722 6.08336C8.53703 5.83668 8.625 5.54667 8.625 5.25C8.625 4.85218 8.46696 4.47065 8.18566 4.18934C7.90436 3.90804 7.52282 3.75 7.125 3.75ZM18.75 12.375C18.6853 12.375 18.6217 12.3582 18.5654 12.3264C18.5091 12.2945 18.462 12.2486 18.4286 12.1931L17.4893 10.6279C16.7623 10.3351 16.1599 9.79852 15.7854 9.11013C15.4108 8.42174 15.2875 7.62446 15.4366 6.8551C15.5857 6.08573 15.9979 5.39223 16.6025 4.89357C17.2071 4.39492 17.9663 4.1222 18.75 4.1222C19.5337 4.1222 20.2929 4.39492 20.8975 4.89357C21.5021 5.39223 21.9143 6.08573 22.0634 6.8551C22.2125 7.62446 22.0892 8.42174 21.7146 9.11013C21.3401 9.79852 20.7377 10.3351 20.0107 10.6279L19.0714 12.1931C19.038 12.2486 18.9909 12.2945 18.9346 12.3264C18.8783 12.3582 18.8147 12.375 18.75 12.375ZM18.75 4.875C18.1327 4.87692 17.5358 5.09633 17.0642 5.49469C16.5926 5.89305 16.2765 6.44486 16.1715 7.05317C16.0664 7.66147 16.1791 8.28735 16.4897 8.82082C16.8003 9.35429 17.289 9.76123 17.8699 9.97013C17.9518 9.99932 18.021 10.0561 18.0656 10.1306L18.75 11.2714L19.4344 10.1306C19.479 10.0561 19.5482 9.99932 19.6301 9.97013C20.211 9.76123 20.6997 9.35429 21.0103 8.82082C21.3209 8.28735 21.4336 7.66147 21.3285 7.05317C21.2235 6.44486 20.9074 5.89305 20.4358 5.49469C19.9642 5.09633 19.3673 4.87692 18.75 4.875Z" fill="#DF1C26"/>
<path d="M18.75 8.99996C18.4533 8.99996 18.1633 8.91199 17.9167 8.74717C17.67 8.58234 17.4777 8.34808 17.3642 8.07399C17.2507 7.7999 17.221 7.4983 17.2788 7.20733C17.3367 6.91635 17.4796 6.64908 17.6894 6.4393C17.8991 6.22952 18.1664 6.08666 18.4574 6.02878C18.7484 5.97091 19.05 6.00061 19.324 6.11414C19.5981 6.22767 19.8324 6.41993 19.9972 6.66661C20.162 6.91328 20.25 7.20329 20.25 7.49996C20.25 7.89779 20.092 8.27932 19.8107 8.56062C19.5294 8.84193 19.1478 8.99996 18.75 8.99996ZM18.75 6.74996C18.6017 6.74996 18.4567 6.79395 18.3333 6.87636C18.21 6.95877 18.1139 7.0759 18.0571 7.21295C18.0003 7.34999 17.9855 7.50079 18.0144 7.64628C18.0434 7.79176 18.1148 7.9254 18.2197 8.03029C18.3246 8.13518 18.4582 8.20661 18.6037 8.23555C18.7492 8.26449 18.9 8.24964 19.037 8.19287C19.1741 8.13611 19.2912 8.03998 19.3736 7.91664C19.456 7.7933 19.5 7.6483 19.5 7.49996C19.5 7.30105 19.421 7.11028 19.2803 6.96963C19.1397 6.82898 18.9489 6.74996 18.75 6.74996ZM7.12502 12.375C7.06141 12.375 6.99886 12.3588 6.94323 12.328C6.8876 12.2971 6.84073 12.2526 6.80702 12.1987L5.60139 10.2697C4.3966 9.90439 3.36321 9.11829 2.68958 8.05471C2.01595 6.99113 1.74695 5.7209 1.93161 4.47556C2.11627 3.23022 2.74229 2.0927 3.69556 1.27035C4.64883 0.448011 5.86587 -0.00439453 7.12483 -0.00439453C8.38379 -0.00439453 9.60083 0.448011 10.5541 1.27035C11.5074 2.0927 12.1334 3.23022 12.318 4.47556C12.5027 5.7209 12.2337 6.99113 11.5601 8.05471C10.8864 9.11829 9.85305 9.90439 8.64827 10.2697L7.44302 12.1987C7.40931 12.2526 7.36243 12.2971 7.30681 12.328C7.25118 12.3588 7.18862 12.375 7.12502 12.375ZM7.12502 0.749961C6.03503 0.749148 4.98185 1.14421 4.1613 1.86168C3.34075 2.57916 2.80869 3.57021 2.66406 4.65055C2.51942 5.7309 2.77205 6.82701 3.37498 7.73505C3.9779 8.6431 4.89008 9.30128 5.94189 9.58721C6.03288 9.61195 6.1112 9.67006 6.16127 9.74996L7.12502 11.2923L8.08877 9.74996C8.13876 9.66992 8.2171 9.61167 8.30814 9.58684C9.35963 9.30064 10.2714 8.64239 10.8741 7.73445C11.4767 6.82651 11.7292 5.73063 11.5846 4.65053C11.44 3.57043 10.9081 2.57957 10.0879 1.86213C9.26761 1.14469 8.21476 0.749483 7.12502 0.749961Z" fill="#DF1C26"/>
</svg>
