<svg width="48" height="48" viewBox="0 0 48 48" fill="none" xmlns="http://www.w3.org/2000/svg">
<path d="M0 24C0 10.7452 10.7452 0 24 0C37.2548 0 48 10.7452 48 24C48 37.2548 37.2548 48 24 48C10.7452 48 0 37.2548 0 24Z" fill="#036A79" fill-opacity="0.05"/>
<path d="M0.5 24C0.5 11.0213 11.0213 0.5 24 0.5C36.9787 0.5 47.5 11.0213 47.5 24C47.5 36.9787 36.9787 47.5 24 47.5C11.0213 47.5 0.5 36.9787 0.5 24Z" stroke="#036A79" stroke-opacity="0.3"/>
<path d="M17.625 28.5C17.625 29.1203 18.1298 29.625 18.75 29.625H29.25C29.8703 29.625 30.375 29.1203 30.375 28.5V21.75C30.375 21.1298 29.8703 20.625 29.25 20.625H26.625V19.875C26.625 19.0478 25.9523 18.375 25.125 18.375H22.875C22.0478 18.375 21.375 19.0478 21.375 19.875V20.625H18.75C18.1298 20.625 17.625 21.1298 17.625 21.75V28.5ZM20.625 25.5V24.375H21.375L21.3754 24.7489C21.3754 24.7493 21.375 24.7496 21.375 24.75C21.375 24.7504 21.3754 24.7507 21.3754 24.7511L21.3757 25.5H20.625ZM26.625 25.5V24.375H27.375L27.3754 24.7489C27.3754 24.7493 27.375 24.7496 27.375 24.75C27.375 24.7504 27.3754 24.7507 27.3754 24.7511L27.3757 25.5H26.625ZM23.25 20.25H24.75V20.625H23.25V20.25ZM18.375 21.75C18.375 21.543 18.543 21.375 18.75 21.375H21.75H22.875H25.125H26.25H29.25C29.457 21.375 29.625 21.543 29.625 21.75V24.375H28.125C28.125 23.9614 27.7886 23.625 27.375 23.625H26.625C26.2114 23.625 25.875 23.9614 25.875 24.375H22.125C22.125 23.9614 21.7886 23.625 21.375 23.625H20.625C20.2114 23.625 19.875 23.9614 19.875 24.375H18.375V21.75Z" fill="#036A79"/>
<path d="M33.75 13.125H30V12.75C30 12.3364 29.6636 12 29.25 12H28.5C28.0864 12 27.75 12.3364 27.75 12.75V13.125H20.25V12.75C20.25 12.3364 19.9136 12 19.5 12H18.75C18.3364 12 18 12.3364 18 12.75V13.125H14.25C13.4227 13.125 12.75 13.7977 12.75 14.625V34.5C12.75 35.3273 13.4227 36 14.25 36H33.75C34.5773 36 35.25 35.3273 35.25 34.5V14.625C35.25 13.7977 34.5773 13.125 33.75 13.125ZM28.1734 16.9973C28.3665 17.1529 28.6084 17.25 28.875 17.25C29.1416 17.25 29.3835 17.1529 29.5766 16.9973C29.6055 17.0779 29.625 17.1619 29.625 17.25C29.625 17.6636 29.2886 18 28.875 18C28.4614 18 28.125 17.6636 28.125 17.25C28.125 17.1619 28.1445 17.0779 28.1734 16.9973ZM20.25 13.875H27.75V14.625H20.25L20.25 13.875ZM18.4234 16.9973C18.6165 17.1529 18.8584 17.25 19.125 17.25C19.3916 17.25 19.6335 17.1529 19.8266 16.9973C19.8555 17.0779 19.875 17.1619 19.875 17.25C19.875 17.6636 19.5386 18 19.125 18C18.7114 18 18.375 17.6636 18.375 17.25C18.375 17.1619 18.3945 17.0779 18.4234 16.9973ZM18.0131 16.2544C17.7682 16.5278 17.625 16.8765 17.625 17.25C17.625 18.0772 18.2977 18.75 19.125 18.75C19.9522 18.75 20.625 18.0772 20.625 17.25C20.625 16.8761 20.4821 16.5274 20.2369 16.2544C20.2417 16.2113 20.25 16.1693 20.25 16.125V15.375H27.75V16.125C27.75 16.1693 27.7582 16.2112 27.7631 16.2544C27.5179 16.5274 27.375 16.8761 27.375 17.25C27.375 18.0772 28.0477 18.75 28.875 18.75C29.7023 18.75 30.375 18.0772 30.375 17.25C30.375 16.8765 30.2321 16.5274 29.9869 16.254C29.9921 16.2112 30 16.1693 30 16.125V15.375H32.25V30H30.75C30.3364 30 30 30.3364 30 30.75V32.25H15.75V15.375H18V16.125C18 16.1693 18.0082 16.2116 18.0131 16.2544H18.0131ZM32.25 31.2803V33.75H15.75V33H30.375C30.4748 33 30.57 32.9606 30.6401 32.8901L32.25 31.2803ZM34.5 34.5C34.5 34.9136 34.1636 35.25 33.75 35.25H14.25C13.8364 35.25 13.5 34.9136 13.5 34.5V14.625C13.5 14.2114 13.8364 13.875 14.25 13.875H18V14.625H15.75C15.3364 14.625 15 14.9614 15 15.375V32.25V33.75C15 34.1636 15.3364 34.5 15.75 34.5H32.25C32.6636 34.5 33 34.1636 33 33.75V15.375C33 14.9614 32.6636 14.625 32.25 14.625H30V13.875H33.75C34.1636 13.875 34.5 14.2114 34.5 14.625V34.5Z" fill="#036A79"/>
</svg>
