<svg width="20" height="20" viewBox="0 0 20 20" fill="none" xmlns="http://www.w3.org/2000/svg">
<path d="M10.0003 0C8.42059 0.000169172 6.86342 0.374574 5.45632 1.09254C4.04922 1.81051 2.83224 2.85162 1.90505 4.13058C0.977871 5.40954 0.366872 6.88996 0.122111 8.45057C-0.122651 10.0112 0.00578804 11.6076 0.496906 13.109C0.988025 14.6104 1.82785 15.9741 2.94758 17.0883C4.06731 18.2026 5.4351 19.0357 6.93888 19.5195C8.44266 20.0033 10.0397 20.1239 11.5991 19.8715C13.1584 19.6192 14.6359 19.0009 15.9103 18.0675L14.9236 16.7242C13.4123 17.8308 11.5723 18.396 9.70038 18.3286C7.82847 18.2612 6.03385 17.5651 4.60609 16.3526C3.17833 15.1402 2.2007 13.482 1.83093 11.6457C1.46116 9.80948 1.72082 7.90218 2.56802 6.23159C3.41522 4.56101 4.80054 3.22456 6.50047 2.43789C8.2004 1.65122 10.1158 1.46021 11.9376 1.89567C13.7594 2.33113 15.3814 3.36767 16.5418 4.83805C17.7022 6.30842 18.3335 8.12687 18.3336 10V11.6667C18.3336 12.1087 18.158 12.5326 17.8455 12.8452C17.5329 13.1577 17.109 13.3333 16.6669 13.3333C16.2249 13.3333 15.801 13.1577 15.4884 12.8452C15.1759 12.5326 15.0003 12.1087 15.0003 11.6667V10C15.0043 8.82357 14.5949 7.68312 13.8435 6.77793C13.092 5.87273 12.0464 5.26035 10.8894 5.04779C9.7323 4.83523 8.53732 5.03601 7.51325 5.61504C6.48917 6.19407 5.70112 7.11453 5.28679 8.21559C4.87245 9.31665 4.85819 10.5283 5.24649 11.6388C5.63478 12.7493 6.40095 13.6881 7.41111 14.291C8.42127 14.894 9.61119 15.1229 10.7729 14.9376C11.9347 14.7523 12.9944 14.1648 13.7669 13.2775C14.1223 13.9247 14.6832 14.4351 15.361 14.728C16.0388 15.0209 16.7948 15.0797 17.5097 14.8949C18.2246 14.7102 18.8576 14.2925 19.3086 13.7079C19.7596 13.1233 20.003 12.405 20.0003 11.6667V10C19.9974 7.34872 18.9429 4.80684 17.0682 2.9321C15.1934 1.05736 12.6516 0.00286757 10.0003 0ZM10.0003 13.3333C9.341 13.3333 8.69654 13.1378 8.14837 12.7716C7.60021 12.4053 7.17297 11.8847 6.92067 11.2756C6.66838 10.6665 6.60237 9.9963 6.73099 9.3497C6.85961 8.7031 7.17708 8.10915 7.64325 7.64298C8.10943 7.1768 8.70337 6.85933 9.34997 6.73072C9.99658 6.6021 10.6668 6.66811 11.2759 6.9204C11.885 7.17269 12.4056 7.59994 12.7718 8.1481C13.1381 8.69626 13.3336 9.34073 13.3336 10C13.3336 10.8841 12.9824 11.7319 12.3573 12.357C11.7322 12.9821 10.8843 13.3333 10.0003 13.3333Z" fill="#036A79"/>
</svg>
