<svg width="512" height="333" viewBox="0 0 512 333" fill="none" xmlns="http://www.w3.org/2000/svg">
<path fill-rule="evenodd" clip-rule="evenodd" d="M97.8098 301.353C97.8098 305.952 99.6397 310.366 102.891 313.621C106.146 316.872 110.56 318.702 115.159 318.702H419.844C424.447 318.702 428.861 316.872 432.112 313.621C435.367 310.366 437.193 305.952 437.193 301.353H451.141C455.74 301.353 460.155 299.523 463.406 296.268C466.661 293.017 468.491 288.603 468.491 284.004V284C468.491 279.401 466.661 274.987 463.406 271.732C460.155 268.481 455.74 266.651 451.141 266.651H54.0489C49.4462 266.651 45.0355 268.481 41.7808 271.732C38.5295 274.987 36.6996 279.401 36.6996 284V284.004C36.6996 288.603 38.5295 293.017 41.7808 296.268C45.0355 299.523 49.4462 301.353 54.0489 301.353H97.8098Z" fill="#E5ECEF"/>
<path fill-rule="evenodd" clip-rule="evenodd" d="M115.016 313.979C115.016 318.578 116.846 322.992 120.097 326.247C123.352 329.498 127.766 331.328 132.365 331.328H437.05C441.653 331.328 446.067 329.498 449.318 326.247C452.573 322.992 454.399 318.578 454.399 313.979H468.347C472.946 313.979 477.361 312.149 480.612 308.894C483.867 305.643 485.697 301.229 485.697 296.629V296.626C485.697 292.027 483.867 287.613 480.612 284.358C477.361 281.107 472.946 279.277 468.347 279.277H71.2549C66.6522 279.277 62.2415 281.107 58.9868 284.358C55.7355 287.613 53.9056 292.027 53.9056 296.626V296.629C53.9056 301.229 55.7355 305.643 58.9868 308.894C62.2415 312.149 66.6522 313.979 71.2549 313.979H115.016Z" stroke="#72A3B8" stroke-width="1.46012" stroke-miterlimit="3" stroke-linecap="round"/>
<path fill-rule="evenodd" clip-rule="evenodd" d="M3.49209 184.008H394.264C396.191 184.008 397.756 182.443 397.756 180.516C397.756 178.589 396.191 177.024 394.264 177.024H3.49209C1.56439 177.024 -0.00012207 178.589 -0.00012207 180.516C-0.00012207 182.443 1.56439 184.008 3.49209 184.008Z" fill="#FFC039"/>
<path fill-rule="evenodd" clip-rule="evenodd" d="M446.643 184.008H477.029C478.957 184.008 480.521 182.443 480.521 180.516C480.521 178.589 478.957 177.024 477.029 177.024H446.643C444.716 177.024 443.151 178.589 443.151 180.516C443.151 182.443 444.716 184.008 446.643 184.008Z" fill="#FFC039"/>
<path fill-rule="evenodd" clip-rule="evenodd" d="M52.411 144.174H493.722C498.569 144.174 503.217 142.248 506.646 138.82C510.076 135.392 512 130.742 512 125.893C512 125.893 512 125.892 512 125.892C512 121.044 510.076 116.394 506.646 112.965C503.217 109.537 498.569 107.611 493.722 107.611C486.182 107.611 478.586 107.611 478.586 107.611C476.659 107.611 475.094 109.176 475.094 111.103C475.094 113.03 476.659 114.595 478.586 114.595C478.586 114.595 486.182 114.595 493.722 114.595C496.715 114.595 499.589 115.785 501.708 117.904C503.828 120.022 505.016 122.896 505.016 125.892V125.893C505.016 128.889 503.828 131.763 501.708 133.881C499.589 136 496.715 137.19 493.722 137.19H52.411C50.4833 137.19 48.9188 138.755 48.9188 140.682C48.9188 142.609 50.4833 144.174 52.411 144.174Z" fill="#FFC039"/>
<path fill-rule="evenodd" clip-rule="evenodd" d="M480.926 216.859H38.959C37.0313 216.859 35.4668 218.423 35.4668 220.351C35.4668 222.279 37.0313 223.843 38.959 223.843H480.926C487.52 223.843 492.866 229.19 492.866 235.783C492.866 242.38 487.52 247.727 480.926 247.727H465.131C463.203 247.727 461.639 249.291 461.639 251.219C461.639 253.143 463.203 254.711 465.131 254.711H480.926C491.378 254.711 499.851 246.235 499.851 235.783C499.851 225.331 491.378 216.859 480.926 216.859Z" fill="#FFC039"/>
<path d="M424.784 94.1658L186.563 73.7096L169.284 274.934L407.505 295.391L424.784 94.1658Z" fill="#C31019"/>
<path d="M424.783 94.1652L330.641 86.0812L377.291 28.2344L471.433 36.3185L424.783 94.1652Z" fill="#C31019"/>
<path d="M92.4187 65.6249L330.64 86.0812L294.535 21.1283L56.3141 0.672012L92.4187 65.6249Z" fill="#C31019"/>
<path d="M330.645 86.0821L92.424 65.6259L75.1447 266.851L313.366 287.307L330.645 86.0821Z" fill="#DF1C26"/>
<path fill-rule="evenodd" clip-rule="evenodd" d="M124.252 78.4842C137.124 89.8246 144.638 106.907 143.059 125.291C140.435 155.854 113.657 178.59 83.1397 176.308L91.7793 75.6958L124.252 78.4842Z" fill="#C31019"/>
<path fill-rule="evenodd" clip-rule="evenodd" d="M168.59 217.893C168.802 215.43 166.977 213.261 164.513 213.05C151.659 211.946 114.633 208.766 101.778 207.663C99.3152 207.451 97.1469 209.276 96.9354 211.74C96.1762 220.58 94.4884 240.235 93.7293 249.076C93.5177 251.539 95.3431 253.708 97.8063 253.919C110.661 255.023 147.687 258.203 160.541 259.306C163.004 259.518 165.173 257.692 165.384 255.229C166.143 246.388 167.831 226.734 168.59 217.893Z" fill="white"/>
<path d="M375.21 79.6353H373.115V281.599H375.21V79.6353Z" fill="#DF0611" fill-opacity="0.38"/>
<path d="M85.1865 165.1C114.775 165.1 138.762 141.114 138.762 111.525C138.762 81.9361 114.775 57.9496 85.1865 57.9496C55.5976 57.9496 31.6111 81.9361 31.6111 111.525C31.6111 141.114 55.5976 165.1 85.1865 165.1Z" fill="#FC743E"/>
<path d="M70.0541 85.5674C74.4359 80.0901 80.1323 77.3515 87.1432 77.3515C94.1541 77.3515 99.8231 80.1175 104.15 85.6496C108.532 91.1269 110.723 98.6581 110.723 108.243C110.723 117.829 108.559 125.387 104.232 130.919C99.8505 136.506 94.1541 139.3 87.1432 139.3C80.1323 139.3 74.4359 136.533 70.0541 131.001C65.6723 125.415 63.4814 117.829 63.4814 108.243C63.4814 98.6581 65.6723 91.0995 70.0541 85.5674ZM75.2301 108.161C75.2301 114.734 76.3256 119.636 78.5165 122.868C80.7074 126.099 83.583 127.715 87.1432 127.715C90.6487 127.715 93.4968 126.099 95.6877 122.868C97.8787 119.636 98.9741 114.734 98.9741 108.161C98.9741 101.753 97.8513 96.9602 95.6056 93.7833C93.4147 90.5517 90.5939 88.9359 87.1432 88.9359C83.583 88.9359 80.7074 90.5517 78.5165 93.7833C76.3256 96.9602 75.2301 101.753 75.2301 108.161Z" fill="white"/>
</svg>
