<svg width="48" height="32" viewBox="0 0 48 32" fill="none" xmlns="http://www.w3.org/2000/svg">
<g clip-path="url(#clip0_30_3602)">
<path d="M0 0H48V32H0V0Z" fill="#006C35"/>
<path d="M31.0185 23.787H30.3519C30.2778 23.8843 30.162 24 30.0972 24C30.0185 24 29.8056 23.7824 29.8056 23.7037C29.8056 23.6435 29.9074 23.5278 30 23.4537V23.2731H17.9167C16.3241 23.2731 15.5324 23.2593 15 22.7269H30V22.5463C29.912 22.4769 29.8056 22.3565 29.8056 22.2963C29.8056 22.2176 30.0185 22 30.0972 22C30.1759 22 30.3889 22.2176 30.3889 22.2963C30.3889 22.3565 30.2824 22.4769 30.1944 22.5463V22.7269H32.2315C32.7778 22.7269 33 22.7731 33 23.2731C33 23.8056 32.8565 23.9028 32.6296 23.9028C32.5509 23.9028 32.4213 23.8981 32.3241 23.787H31.5324C31.5115 23.821 31.4759 23.8501 31.4301 23.8705C31.3844 23.8909 31.3305 23.9019 31.2755 23.9019C31.2204 23.9019 31.1665 23.8909 31.1208 23.8705C31.075 23.8501 31.0394 23.821 31.0185 23.787ZM31.5324 23.6204H32.2315C32.1944 23.5185 32.1944 23.412 32.2315 23.2731H30.1944V23.4537C30.2454 23.4907 30.3148 23.5694 30.3519 23.6204H31.0185C31.0394 23.5864 31.075 23.5574 31.1208 23.5369C31.1665 23.5165 31.2204 23.5055 31.2755 23.5055C31.3305 23.5055 31.3844 23.5165 31.4301 23.5369C31.4759 23.5574 31.5115 23.5864 31.5324 23.6204Z" fill="white"/>
<path d="M32.6852 15.2963C32.7315 15.3519 32.7593 15.4028 32.6806 15.4954C32.6065 15.5602 32.5556 15.5972 32.4769 15.662C32.4444 15.7176 32.4213 15.8056 32.5278 15.8333C32.7315 15.8889 33.1065 15.6481 33.1065 15.6435C33.1852 15.588 33.1574 15.4861 33.1528 15.4861C33.1065 15.4398 33.0093 15.4676 32.9444 15.4583C32.912 15.4583 32.8935 15.3981 32.9398 15.3102C32.9815 15.2546 33 15.2222 33.0278 15.1574C33.0556 15.0926 33.0278 15.0463 32.9167 15.0093C32.8009 14.9907 32.7546 15 32.6296 15.0093C32.5602 15.0231 32.537 15.0556 32.5231 15.1343C32.5278 15.2546 32.6065 15.2454 32.6852 15.2963ZM31.8056 12.4352C31.7407 12.5231 31.6944 12.5926 31.8194 12.662C31.9491 12.7269 32.1435 12.9074 32.0602 13.1111C32.0139 13.2685 32.0602 13.3935 32.2037 13.1667C32.3519 12.9306 32.2361 12.6481 32.0926 12.4676C31.9676 12.3102 31.8843 12.3426 31.8056 12.4352ZM35.7037 9.2037C35.8796 9.35648 35.9769 9.31019 35.8657 9.05093C35.7361 8.79167 35.6111 8.51852 35.4954 8.27315C35.3704 8.01389 35.338 8.07407 35.1944 8.25926C35.0324 8.43981 35.0185 8.5787 35.0787 8.68519C35.3843 11.1065 35.5278 12.3704 35.5602 13.1019C35.625 14.1667 35.3519 14.7639 34.2639 15.4491C33.912 15.6759 33.5139 15.9352 34.3611 15.7361C35.1528 15.5463 36 15.0463 36 13.1343C36 11.6944 35.6667 10.1528 35.7037 9.2037ZM34.4074 8.71296C34.3102 8.86574 34.3287 8.89815 34.4398 9.06481C34.5509 9.25 34.6481 9.58333 34.6481 9.84259C34.6481 10.1019 34.7454 10.0694 34.7917 9.8287C34.8426 9.59722 34.8241 9.14352 34.6806 8.82407C34.537 8.48611 34.4861 8.60648 34.4074 8.71296ZM35.338 13.7546C35.3056 13.5417 35.2407 13.3287 34.9537 12.9213C34.6667 12.5231 34.4074 12.1574 34.1528 11.8056C34.0741 10.8935 33.9583 9.91667 33.9583 9.40278C34.088 9.52315 34.1852 9.40278 34.1204 9.2037C34.0556 9.00463 33.9259 8.47222 33.8333 8.24537C33.75 8.02778 33.6574 8.07407 33.5278 8.27315C33.4167 8.47222 33.338 8.56481 33.4167 8.71296C33.4491 9.59722 33.5741 10.4537 33.7222 11.2269C33.463 10.8935 33.2222 10.5741 33 10.2824C32.9861 9.94907 32.9537 9.61574 32.9352 9.27778C33.0787 9.38426 33.1435 9.35648 33.0648 9.15741C33 8.94444 32.8241 8.5 32.7454 8.30556C32.662 8.10648 32.6157 8.10648 32.5046 8.25926C32.3287 8.51852 32.2778 8.69907 32.4259 8.94444C32.4398 9.15741 32.4722 9.38426 32.4861 9.58333C32.3426 9.40278 32.2176 9.21759 32.1019 9.05093C32.2454 9.125 32.3611 9.00463 32.1991 8.86574C32.0556 8.73148 31.75 8.5 31.625 8.33333C31.4815 8.16667 31.3519 8.16667 31.3519 8.31944C31.3519 8.47222 31.3657 8.60648 31.3519 8.74537C31.3194 8.86574 31.3194 8.99074 31.5093 9.2037C31.8796 9.62963 32.2315 10.0694 32.5694 10.4815C32.6944 12.0046 32.7778 12.9815 32.7454 13.588C32.7269 13.9537 32.6019 14.1667 32.3935 14.2269C32.1852 14.3056 31.9769 14.1667 31.7824 13.8935C31.4306 13.4074 31.3056 13.5 31.0324 13.9259C30.7731 14.3194 30.5972 14.6574 30.4537 14.9444C30.3287 15.2176 30.1019 15.463 29.8935 15.0972C29.7037 14.7315 29.6713 14.3194 29.6852 14.0324C29.6852 13.7407 29.6389 13.5139 29.5278 13.9722C29.2407 15.0972 29.4167 15.3426 29.7361 15.5833C30.1343 15.9213 30.2639 15.9491 30.4722 15.662C30.8889 15.1111 31 14.625 31.2407 14.3519C31.4306 14.1389 31.4306 14.3056 31.5278 14.412C31.7685 14.6991 31.9769 14.8056 32.3102 14.8519C32.6481 14.912 33.2546 14.6389 33.2083 13.5741C33.1759 12.9352 33.1296 12.0648 33.0648 11.1389C33.3843 11.5648 33.6713 11.9444 33.8981 12.25C34.0093 12.8565 34.0741 13.4074 34.0417 13.8472C34.0093 14.3519 34.1204 14.3519 34.2315 13.8333C34.2639 13.6204 34.2639 13.1759 34.2176 12.6435C34.6481 13.1944 34.9028 13.5602 35.0787 13.8194C35.2731 14.1389 35.3843 14.412 35.338 13.7546ZM30.9491 12.5556C30.9491 12.4491 31 12.4167 31.1898 12.2639C31.3519 12.1435 31.8009 11.838 31.9444 11.6991C32.088 11.5648 32.1991 11.4398 32.2315 11.6111C32.2454 11.7778 32.2778 11.838 32.1019 11.9306C31.9259 12.0046 31.463 12.2778 31.3194 12.3843C31.1574 12.5093 30.9491 12.662 30.9491 12.5556ZM31 10.6806C30.9676 10.8194 30.7731 10.8194 30.7917 10.6667C30.8056 10.5139 30.7917 10.5417 30.7917 10.4213C30.7731 10.3009 30.9352 10.2222 31.0139 10.3287C31.1111 10.4352 31.2731 10.7731 31.3194 10.8935C31.3843 11.0139 31.4167 10.9861 31.4167 10.8194C31.3981 10.6204 31.3657 10.4352 31.3843 10.3009C31.3981 10.2222 31.4491 10.1296 31.5417 10.0556C31.6574 9.98148 31.7176 9.96296 31.7685 10.1019C31.8009 10.2222 31.8935 10.2361 31.8472 10.3472C31.7824 10.4954 31.6389 10.1944 31.5417 10.4074C31.4954 10.5602 31.5417 10.9861 31.5278 11.1389C31.5278 11.2731 31.463 11.4722 31.3519 11.2454C31.2731 11.0926 31.1574 10.8333 31 10.6806ZM29.8935 9.44444C30.1204 9.55093 30.3611 9.61574 30.1852 9.35648C30.0046 9.11111 29.8611 8.69907 29.7685 8.39352C29.6528 8.09259 29.625 8.10648 29.4444 8.36574C29.1759 8.75926 29.4167 9.14352 29.4769 9.59722C29.7037 11.2269 29.9259 12.8889 29.9907 13.3287C30.0556 13.8194 30.1343 14.1389 30.0046 14.6713C29.9583 14.838 30.0231 14.8843 30.1343 14.6852C30.5833 13.8796 30.2778 13.1759 30.2315 12.7222C30.1528 12.0185 29.8935 10.162 29.8472 9.41667M28.7917 9.37037C28.9167 9.47685 29.0648 9.47685 28.9815 9.25C28.9028 9.01852 28.838 8.74537 28.7593 8.48611C28.6806 8.22685 28.6296 8.16667 28.5324 8.28704C28.4213 8.42593 28.3426 8.47222 28.2639 8.56481C28.1806 8.63889 28.1667 8.80556 28.2639 8.95833C28.6157 11.2593 28.6296 12.2778 28.6806 13.1343C28.7269 13.9861 28.8565 14.3796 28.2963 14.9583C27.6852 15.5833 27.3194 15.7361 27.0463 15.7963C26.7407 15.8796 26.6157 16 26.9444 16C28.0185 16 28.125 15.713 28.5648 15.25C28.9213 14.875 29.0926 14.3981 29.0648 13.2685C29.0324 11.287 28.7407 10.4352 28.7917 9.37037ZM24.7731 15.1898C24.9352 15.0972 25.0139 15.0231 25.1389 14.9769C25.2685 14.912 25.3657 14.9306 25.2685 15.1898C25.1713 15.4907 25.2222 15.5833 25.4306 15.5093C25.6204 15.4491 25.7315 15.3704 25.8935 15.3102C26.037 15.25 26.1991 15.25 25.9722 15.4167C25.7963 15.5556 25.5417 15.7361 25.3981 15.7685C25.0787 15.8426 24.9167 15.7222 24.9815 15.4769C25.0463 15.25 25.0926 15.1574 24.9028 15.2361C24.6759 15.3241 24.6944 15.2361 24.7731 15.1898ZM27.3519 10.0093C27.412 10.1944 27.4954 10.2824 27.5417 10.0556C27.5741 9.85648 27.6389 9.7963 27.6713 10.0093C27.7176 10.2222 27.8472 10.1944 27.8796 9.99537C27.9259 9.7963 27.9907 9.68981 28.0231 9.90278C28.0556 10.1296 28.037 10.2083 28.0046 10.2824C27.9907 10.3472 27.8611 10.4213 27.7639 10.3287C27.6528 10.2361 27.6204 10.2361 27.5417 10.3148C27.3657 10.4676 27.3009 10.3611 27.2685 10.1481C27.2546 9.96296 27.3194 9.88889 27.3519 10.0093ZM28.4213 13.8472C28.2778 13.162 27.6204 12.0648 26.6435 10.6343C26.6157 10.2546 26.5972 9.90278 26.5972 9.58333C26.7407 9.73611 26.838 9.64352 26.7917 9.44444C26.6944 9.09722 26.5509 8.80556 26.375 8.41204C26.3102 8.24537 26.1343 8.19907 26.0556 8.43981C25.9398 8.73148 25.9259 8.79167 26.0694 8.99074C26.0556 9.2037 26.1343 9.56944 26.1667 9.90278C25.9907 9.65741 25.7639 9.35648 25.588 9.09722C25.8611 9.2037 26.0231 9.125 25.7824 8.88426C25.5417 8.625 25.2037 8.36574 24.9954 8.18056C24.787 8 24.6944 8.12037 24.7269 8.28704C24.7407 8.45833 24.7593 8.5787 24.7407 8.71296C24.7269 8.85185 24.7731 8.94444 24.9815 9.01852C25.3981 9.53704 25.8148 10.0694 26.1991 10.6204C26.2454 11.0741 26.3426 11.5787 26.3889 11.9907C26.5185 12.963 26.7083 14.2269 26.5509 14.7778C26.4213 15.1898 26.5509 15.3704 26.7593 14.7454C26.9491 14.1204 26.9306 13.5278 26.8056 12.5972C26.7546 12.2361 26.7407 11.7778 26.6944 11.3519C27.3657 12.338 27.9722 13.2824 28.2454 13.9398C28.3889 14.2917 28.5185 14.3657 28.4213 13.8472ZM27.2222 8.28704C27.1574 8.41204 27.1111 8.5 27.2361 8.59259C27.3657 8.68519 27.5602 8.93056 27.4769 9.2037C27.4306 9.41667 27.4769 9.58333 27.6204 9.27778C27.7639 8.95833 27.6528 8.5787 27.5093 8.33333C27.3796 8.12037 27.3009 8.16667 27.2222 8.28704ZM22.4861 11.6111C22.4537 11.8241 22.5 11.9583 22.5787 12.0648C22.662 12.1713 22.8194 12.1574 22.8704 12.037C22.9167 11.8981 22.9491 11.8843 23.0463 11.9907C23.1574 12.0972 23.5231 12.0046 23.3472 11.4722C23.2685 11.2593 23.2361 11.3056 23.2361 11.5463C23.2361 11.9306 23.1065 11.9306 22.963 11.5648C22.9167 11.4259 22.8519 11.4259 22.838 11.6111C22.838 11.9583 22.6759 12.0046 22.5787 11.6528C22.5463 11.5046 22.5185 11.3796 22.4861 11.6111ZM24.6944 12.1574C25.0278 12.0833 24.838 12.0509 24.6111 11.912C24.375 11.7778 24.2778 11.7778 24.2917 11.9306C24.3102 12.0185 24.3102 12.1111 24.3426 12.2315C24.4537 12.2037 24.5648 12.1898 24.6944 12.1574ZM24.037 11.412C24.2917 11.0602 24.7083 11.1667 25.1898 11.4861C25.6713 11.8056 25.4769 12.3102 25.0139 12.5694C24.9028 12.6296 24.7593 12.6898 24.5787 12.75C24.6296 12.8565 24.5648 12.8889 24.4213 12.7963C24.0046 12.9352 23.4583 13.1343 23.0787 13.3287C23.5417 13.3611 25.463 13.3287 25.8472 13.2824C26.2315 13.2546 26.1667 13.3148 26.0556 13.6343C25.9398 13.9398 25.8148 13.9074 25.4954 13.9537C24.9815 14.0463 24.2269 14.2593 23.6852 14.4722C23.1389 14.6852 23.3333 15.0648 23.8935 15.2639C24.3241 15.3704 24.2778 15.4167 24.1991 15.662C24.1343 15.8889 24.1343 15.9491 23.6065 15.875C22.3102 15.6759 21.8426 14.9907 21.6343 14.4583C20.838 15.537 20.0509 16.1343 19.3148 15.9491C18.9491 15.875 18.7731 15.5556 18.7407 15.1574C18.2269 15.3843 17.6343 15.5833 16.8657 15.7963C16.6898 15.8565 16.5463 15.7824 16.787 15.6759C17.2963 15.4306 18.0972 15.0231 18.7546 14.5787C18.8194 14.3056 18.963 13.9259 19.1065 13.6481C19.1852 13.4815 19.2361 13.5417 19.2361 13.6806C19.2361 13.787 19.2037 14.0602 19.2176 14.2593C19.3333 14.1667 19.4907 14.0787 19.5694 14C20.0185 13.6204 20.5139 13.375 20.1806 12.7685C20.037 12.4907 19.9213 12.2963 19.875 12.1713C19.588 12.0648 19.6667 11.912 19.7963 11.6528C19.9213 11.3981 19.9722 11.3333 20.2269 11.625C20.5972 12.037 20.6435 12.2176 20.3889 12.1898C20.787 13.162 20.6898 13.6667 20.0694 14.2454C19.7778 14.5324 19.4769 14.7639 19.125 14.9444C19.0926 15.2037 19.2037 15.463 19.713 15.3843C20.3889 15.2963 21.1389 14.4583 21.4583 13.8194C21.3148 13.2824 20.9954 12.3241 20.8056 11.838C20.7083 11.5926 20.8056 11.4861 20.8843 11.287C20.9815 11.0926 21.0278 10.9676 21.1389 11.2454C21.25 11.5046 21.6019 12.1574 21.7639 12.9352C21.9398 13.713 21.9074 14.3796 22.3241 14.7454C22.5185 14.912 22.7546 15.0231 23.0139 15.0833C22.8194 14.5648 23.2222 14.1667 23.75 13.9861C23.4306 13.6944 22.9306 13.7407 22.3704 13.713C21.9583 13.6944 22.0046 13.6481 22.1157 13.3009C22.2269 12.9491 22.3565 12.9028 22.662 12.7824C23.0787 12.6296 23.4907 12.4769 23.9259 12.3565C23.6528 11.9769 23.8287 11.6991 24.037 11.412ZM22.0185 8.28704C21.9074 8.39352 21.9074 8.41204 22.0046 8.5463C22.1019 8.65278 22.2454 8.99074 22.1944 9.33796C22.1806 9.49074 22.213 9.64352 22.2917 9.37037C22.3565 9.09722 22.338 8.71296 22.2593 8.48611C22.1806 8.25926 22.0833 8.19907 22.0185 8.28704ZM19.8426 8.88426C19.588 9.56944 19.6019 10.2222 20.1296 10.787C20.4352 11.1065 20.6574 10.9537 20.787 10.6019C20.9306 10.2685 21.0278 9.93519 21.125 9.7037C21.2176 9.47685 21.3009 9.52315 21.2824 9.73611C21.2361 10.162 21.2037 10.8472 21.6528 11.1065C22.1019 11.3657 22.787 10.9259 23.0278 10.4676C23.75 11.3796 24.3889 10.9537 24.4676 10.0694C24.4861 9.7963 24.3565 9.2037 24.2778 9.03704C24.1991 8.85185 24.2454 8.85185 24.3565 8.94444C24.4676 9.05093 24.662 9.11111 24.5648 8.80556C24.4537 8.51852 24.3241 8.35185 24.1481 8.21296C23.9907 8.07407 23.9583 8.15278 23.8935 8.25926C23.8287 8.36574 23.8426 8.39352 23.75 8.47222C23.6528 8.56481 23.6667 8.60648 23.75 8.77778C24.0185 9.44444 24.2778 10.4213 23.8426 10.5139C23.4444 10.588 23.1898 9.76389 23.1713 9.40278C23.1574 8.91204 23.0926 8.5 22.9954 8.24537C22.9259 8.0787 22.8843 8 22.8472 8C22.7824 8 22.6898 8.26389 22.6296 8.36574C22.5648 8.47222 22.6296 8.5 22.6759 8.71296C22.9167 9.78241 22.8843 10.2685 22.3704 10.5417C21.8611 10.8333 21.588 10.5602 21.588 10.2222C21.5741 9.88889 21.5741 9.47685 21.6204 9.1713C21.6528 8.86574 21.7315 8.82407 21.6204 8.6713C21.5093 8.5 21.412 8.56481 21.2685 8.75926C20.9491 9.18519 20.6296 9.90278 20.5139 10.2361C20.4028 10.588 20.1806 10.4676 20.0185 10.1759C19.8426 9.8287 19.8611 9.2037 19.9213 8.95833C19.9861 8.71296 19.9537 8.60648 19.8426 8.88426ZM19.1852 8.625C19.2176 8.53241 19.1389 8.43981 19.0741 8.5787C19.0278 8.68519 19.0093 8.75926 19.1065 8.82407C19.1389 8.75926 19.1713 8.68519 19.1852 8.625ZM18.8009 8.48611C18.9954 8.01389 19.6343 8.07407 19.4583 8.68519C19.4444 8.77778 19.3935 8.89815 19.3333 9.01852C19.4259 9.14352 19.3796 9.2963 19.1852 9.26389C18.9769 9.58333 18.5787 9.93519 17.8889 10.2222C17.5694 10.3611 17.5231 10.2546 17.7639 10.1157C18.2269 9.8287 18.6574 9.47685 18.9306 9.11111C18.7222 8.94444 18.7222 8.69907 18.8009 8.48611ZM18.6898 10.1759C18.5 10.4074 18.3565 10.7407 18.625 10.9398C18.7731 11.0602 19.0741 10.9259 19.1852 10.6944C19.3009 10.4537 19.25 10.4213 19.0602 10.6204C18.787 10.9074 18.5139 10.6481 18.8009 10.2546C18.9954 9.98148 18.8843 9.91667 18.6898 10.1759ZM18.2593 13.5278C18.2917 13.6343 18.2731 13.8796 18.2269 13.9861C18.162 14.1204 18.2269 14.1852 18.3241 14.0139C18.4167 13.8333 18.4815 13.6204 18.4352 13.4074C18.4167 13.2546 18.4167 13.2083 18.2731 13.1481C18.1157 13.088 18.0648 13.1759 18.0185 13.3009C17.9537 13.4537 18.0324 13.6204 18.2593 13.5278ZM15.7917 12.5231C15.5046 12.5972 15.4583 12.4907 15.4722 12.3241C15.4907 12.1574 15.5046 12.1111 15.6991 12.1898C15.7778 12.2176 15.875 12.3241 15.9722 12.463C15.9074 12.4769 15.8426 12.5093 15.7917 12.5231ZM16.0324 11.838C15.7454 11.5648 15.5046 11.5463 15.2639 11.8843C15.0417 12.2037 15.0556 12.2778 15.0741 12.5694C15.088 12.8565 15.0278 12.963 15.2639 13.0417C15.4907 13.1157 15.588 13.088 15.7315 13.0417C15.8426 13.0093 16 12.963 16.162 12.9028C16.1944 13.0556 16.1759 13.2222 16.0833 13.3472C15.4907 14.0139 14.5787 14.5046 14.1759 14.0602C13.9537 13.8194 13.8565 13.4352 13.9213 12.9815C13.9861 12.5972 13.8565 12.7685 13.8102 12.9028C13.6667 13.3472 13.6157 13.9861 13.8102 14.3056C14.0833 14.7454 14.5139 14.9444 15.2037 14.6574C15.8889 14.3657 16.5602 13.8472 16.5324 13.1343C16.5324 12.9954 16.5139 12.875 16.5139 12.7824C16.5787 12.75 16.6898 12.6759 16.7685 12.6435C16.787 12.8889 16.7546 13.1944 16.7685 13.4352C16.8009 14.213 16.4815 14.4398 16.1944 14.6574C15.7917 14.9583 15.25 15.1574 14.787 15.2361C13.6806 15.3843 13.4259 14.7176 13.4398 13.8194C13.4398 13.6806 13.5046 13.588 13.5046 13.3889C13.4907 13.0093 13.4398 13.0694 13.3148 13.4537C13.1991 13.8194 13.0556 14.6713 13.4259 15.3704C13.8102 16.0741 15.1065 15.875 16.1157 15.4167C17.1065 14.9583 17.2176 14.0926 17.1713 13.2222C17.1713 12.9954 17.1528 12.75 17.1389 12.4907C17.1713 12.4769 17.1852 12.4491 17.2037 12.4306C17.3472 12.875 18.0185 12.75 18.2269 12.4907C18.338 12.3704 18.338 12.3565 18.4352 12.4907C18.5787 12.6898 19.0741 12.75 19.2037 12.4769C19.3148 12.1898 19.3009 11.912 19.2685 11.6991C19.2361 11.4861 19.1852 11.5046 19.0417 11.6111C18.8843 11.7315 19.0093 11.7454 19.0278 11.8981C19.0926 12.4769 18.5648 12.4306 18.5 11.838C18.4676 11.4722 18.4028 11.6111 18.3565 11.7778C18.1296 12.4907 17.4722 12.6296 17.537 11.8056C17.5556 11.5648 17.3935 11.6389 17.3148 11.7315C17.2361 11.7917 17.1713 11.8704 17.0926 11.912C17.0417 11.2454 16.9954 10.4815 16.912 9.56944C17.1065 9.7963 17.2824 9.53704 17.1528 9.27778C17.0602 9.0787 16.912 8.63889 16.8194 8.39352C16.7361 8.15278 16.6898 8.22685 16.4815 8.42593C16.2917 8.63889 16.3241 8.68519 16.4167 8.89815C16.3843 9.15741 16.4352 9.41667 16.5 9.94907C16.5463 10.3287 16.6759 11.1204 16.7361 12.125C16.6435 12.1713 16.5 12.2639 16.4028 12.3102C16.3241 12.1435 16.2083 12.0046 16.0324 11.838ZM12.5926 13.7731C12.6065 13.9259 12.6065 14.0324 12.6065 14.0926C12.6065 14.1991 12.5463 14.3056 12.5139 14.4398C12.3194 15.0972 12.6065 15.4167 12.7685 15.1713C12.912 14.9306 12.9907 14.9583 12.9769 15.1574C12.963 15.8148 12.3056 15.8565 12.2546 15.3102C12.1759 14.4398 12.3843 14.3056 12.4491 14.0139C12.4954 13.8194 12.5602 13.6667 12.5926 13.7731ZM12.2546 12.8102C12.7222 12.2778 13.3148 12.0046 13.6157 11.912C13.8102 11.8519 13.9074 11.7778 13.9074 11.9583C13.9213 12.125 13.9074 12.1435 13.7454 12.1898C13.375 12.2778 12.6065 12.6435 12.3519 12.8287C12.2269 12.9213 12.0648 13.0278 12.2546 12.8102ZM14.8657 8.22685C14.8194 8.35185 14.8519 8.5 14.9306 8.59259C15.0093 8.69907 15.1528 8.69907 15.25 8.625C15.3287 8.53241 15.3287 8.51852 15.412 8.63889C15.4583 8.73148 15.6157 8.69907 15.6667 8.60648C15.6991 8.53241 15.7454 8.45833 15.6991 8.35185C15.6481 8.24537 15.6481 8.27315 15.6157 8.39352C15.588 8.59259 15.3935 8.5463 15.3796 8.30556C15.3796 8.07407 15.3287 8.19907 15.2639 8.35185C15.1528 8.5787 14.9954 8.53241 14.9954 8.33333C14.9954 8.16667 14.9444 8.02778 14.8657 8.22685ZM14.1759 11.4259C14.2269 11.9769 14.3843 12.9954 14.3843 13.3472C14.4028 13.713 14.4491 13.6065 14.5463 13.4074C14.6435 13.2083 14.625 12.9954 14.6111 12.7037C14.5787 12.4028 14.5602 11.8981 14.4954 11.213C14.625 11.1204 14.7361 10.9676 14.787 10.8796C14.912 10.6481 14.9444 10.6667 14.9954 10.8472C15.088 11.213 15.4722 11.4583 15.9861 11.1065C16.4676 10.787 16.2593 10.1157 16.0509 9.38426C16.2269 9.41667 16.2917 9.27778 16.1759 9.09722C16.1296 8.99074 16.0324 8.89815 15.9537 8.80556C15.875 8.71296 15.7917 8.63889 15.713 8.73148C15.6481 8.82407 15.5694 8.89815 15.5231 8.95833C15.4722 9.01852 15.4722 9.0787 15.537 9.23148C15.7315 9.65741 15.8565 10.1157 15.8889 10.375C15.9398 10.6204 15.8426 10.6806 15.6667 10.6806C15.4907 10.6806 15.25 10.6343 15.1528 10.2685C15.0556 9.90278 15.0093 9.73611 15.0278 9.49074C15.0417 9.25 15.0741 9.0787 14.8981 8.83796C14.7037 8.59259 14.6898 8.63889 14.6435 8.75926C14.6111 8.89815 14.5463 9.09722 14.6111 9.32407C14.6898 9.65741 14.7361 9.94907 14.787 10.1481C14.8194 10.2824 14.6713 10.5741 14.4676 10.7269C14.4167 10.2685 14.338 9.65741 14.3056 9.1713C14.5787 9.0787 14.4352 8.73148 14.2083 8.35185C14.0509 8.06019 13.9861 8.18056 13.875 8.36574C13.7593 8.5463 13.8426 8.625 13.9213 8.77778C13.8565 8.89815 13.9676 9.0787 14.0185 9.41667C14.0324 9.62963 14.0833 10.2361 14.1296 10.7731C13.9074 10.7731 13.7778 10.6343 13.6991 10.4537C13.5231 10.0694 13.5694 9.72222 13.6481 9.49074C13.7315 9.26389 13.8102 8.91204 13.6667 8.82407C13.537 8.73148 13.3611 8.83796 13.25 9.00463C13.0556 9.27778 12.8796 9.67593 12.8657 10.088C12.8472 10.2546 12.8009 10.5741 12.7222 10.6944C12.6574 10.8194 12.5463 10.8333 12.4306 10.6481C12.2407 10.3611 12.1759 9.62963 12.1944 9.25C12.1944 9.06481 12.1435 9.03704 12.0787 9.25C12.0231 9.44444 12 9.64352 12 9.83333C12 10.3704 12.1574 10.8611 12.287 11.1065C12.463 11.4398 12.6898 11.3657 12.8472 11.0926C13.088 10.6806 12.9907 10.3148 13.2176 9.7037C13.3472 9.32407 13.3935 9.61574 13.3472 9.84259C13.2315 10.4537 13.2639 11.4398 14.1759 11.4259ZM12.8009 9.03704C12.963 8.60648 12.9769 8.22685 12.787 8.36574C12.625 8.48611 12.5278 8.36574 12.6574 8.22685C12.8148 8.02778 13.0231 7.96759 13.0741 8.30556C13.088 8.56481 12.8981 8.88426 12.8009 9.03704Z" fill="white"/>
</g>
<defs>
<clipPath id="clip0_30_3602">
<rect width="48" height="32" rx="4" fill="white"/>
</clipPath>
</defs>
</svg>
