<svg width="25" height="25" viewBox="0 0 25 25" fill="none" xmlns="http://www.w3.org/2000/svg">
<path d="M23.246 9.40236L15.661 1.81636C14.7223 0.880352 13.4507 0.354736 12.125 0.354736C10.7994 0.354736 9.52777 0.880352 8.58901 1.81636L1.00401 9.40236C0.724438 9.68015 0.502782 10.0107 0.351895 10.3747C0.201007 10.7388 0.12389 11.1292 0.125012 11.5234V21.3404C0.125012 22.136 0.441083 22.8991 1.00369 23.4617C1.5663 24.0243 2.32936 24.3404 3.12501 24.3404H21.125C21.9207 24.3404 22.6837 24.0243 23.2463 23.4617C23.8089 22.8991 24.125 22.136 24.125 21.3404V11.5234C24.1261 11.1292 24.049 10.7388 23.8981 10.3747C23.7472 10.0107 23.5256 9.68015 23.246 9.40236ZM15.125 22.3404H9.12501V18.4064C9.12501 17.6107 9.44108 16.8477 10.0037 16.285C10.5663 15.7224 11.3294 15.4064 12.125 15.4064C12.9207 15.4064 13.6837 15.7224 14.2463 16.285C14.8089 16.8477 15.125 17.6107 15.125 18.4064V22.3404ZM22.125 21.3404C22.125 21.6056 22.0197 21.8599 21.8321 22.0475C21.6446 22.235 21.3902 22.3404 21.125 22.3404H17.125V18.4064C17.125 17.0803 16.5982 15.8085 15.6605 14.8708C14.7229 13.9331 13.4511 13.4064 12.125 13.4064C10.7989 13.4064 9.52716 13.9331 8.58948 14.8708C7.6518 15.8085 7.12501 17.0803 7.12501 18.4064V22.3404H3.12501C2.8598 22.3404 2.60544 22.235 2.41791 22.0475C2.23037 21.8599 2.12501 21.6056 2.12501 21.3404V11.5234C2.12594 11.2583 2.2312 11.0043 2.41801 10.8164L10.003 3.23336C10.5667 2.67229 11.3297 2.35731 12.125 2.35731C12.9203 2.35731 13.6833 2.67229 14.247 3.23336L21.832 10.8194C22.0181 11.0066 22.1233 11.2594 22.125 11.5234V21.3404Z" fill="#777777"/>
</svg>
