<svg width="25" height="24" viewBox="0 0 25 24" fill="none" xmlns="http://www.w3.org/2000/svg">
<g clip-path="url(#clip0_101_646)">
<path d="M12.5 14.9926C10.8432 14.9926 9.5 16.3357 9.5 17.9926V23.9926H15.5V17.9926C15.5 16.3357 14.1568 14.9926 12.5 14.9926Z" fill="#036A79"/>
<path d="M17.5 17.9925V23.9925H21.5C23.1568 23.9925 24.5 22.6493 24.5 20.9925V11.8715C24.5002 11.352 24.2983 10.8528 23.937 10.4795L15.439 1.29249C13.9396 -0.329857 11.4089 -0.429466 9.78655 1.06997C9.70949 1.14122 9.63523 1.21542 9.56403 1.29249L1.08102 10.4765C0.708734 10.8513 0.499859 11.3582 0.5 11.8865V20.9925C0.5 22.6493 1.84316 23.9925 3.5 23.9925H7.49998V17.9925C7.51869 15.2657 9.72027 13.0389 12.3784 12.9748C15.1255 12.9085 17.4791 15.1732 17.5 17.9925Z" fill="#036A79"/>
<path d="M12.5 14.9926C10.8432 14.9926 9.5 16.3357 9.5 17.9926V23.9926H15.5V17.9926C15.5 16.3357 14.1568 14.9926 12.5 14.9926Z" fill="#036A79"/>
</g>
<defs>
<clipPath id="clip0_101_646">
<rect width="24" height="24" fill="white" transform="translate(0.5)"/>
</clipPath>
</defs>
</svg>
