<svg width="49" height="49" viewBox="0 0 49 49" fill="none" xmlns="http://www.w3.org/2000/svg">
<rect x="0.5" y="0.314697" width="48" height="48" rx="24" fill="#F4FBF3"/>
<g clip-path="url(#clip0_1218_1140)">
<path d="M28.1689 16.3147H20.8311C18.4429 16.3147 16.5 18.2576 16.5 20.6458V27.9837C16.5 30.3718 18.4429 32.3147 20.8311 32.3147H28.169C30.5571 32.3147 32.5 30.3718 32.5 27.9837V20.6458C32.5 18.2576 30.5571 16.3147 28.1689 16.3147ZM24.5 28.6895C22.0876 28.6895 20.1251 26.7271 20.1251 24.3147C20.1251 21.9023 22.0876 19.9398 24.5 19.9398C26.9124 19.9398 28.8749 21.9023 28.8749 24.3147C28.8749 26.7271 26.9124 28.6895 24.5 28.6895ZM28.9795 20.9716C28.2666 20.9716 27.6868 20.3917 27.6868 19.6788C27.6868 18.9659 28.2666 18.386 28.9795 18.386C29.6924 18.386 30.2723 18.9659 30.2723 19.6788C30.2723 20.3917 29.6923 20.9716 28.9795 20.9716Z" fill="#DF1C26"/>
<path d="M24.5 20.8777C22.605 20.8777 21.0631 22.4194 21.0631 24.3146C21.0631 26.2096 22.605 27.7515 24.5 27.7515C26.3951 27.7515 27.9369 26.2096 27.9369 24.3146C27.9369 22.4194 26.3951 20.8777 24.5 20.8777ZM28.9795 19.324C28.7839 19.324 28.6247 19.4832 28.6247 19.6787C28.6247 19.8743 28.7839 20.0335 28.9795 20.0335C29.1751 20.0335 29.3343 19.8744 29.3343 19.6787C29.3343 19.4831 29.1751 19.324 28.9795 19.324Z" fill="#DF1C26"/>
</g>
<defs>
<clipPath id="clip0_1218_1140">
<rect width="16" height="16" fill="white" transform="translate(16.5 16.3147)"/>
</clipPath>
</defs>
</svg>
