<svg width="335" height="384" viewBox="0 0 335 384" fill="none" xmlns="http://www.w3.org/2000/svg">
<path d="M298.783 324.039H48.5157C48.5157 324.039 5.20165 321.128 4.21685 260.79C4.21685 260.79 -2.85831 123.779 63.8175 125.454C63.8175 125.454 113.88 136.119 129.538 92.8777C129.538 92.8777 145.094 47.3969 196.902 63.3559C196.902 63.3559 260.023 76.8391 263.749 140.943C263.749 140.943 264.981 180.599 291.676 183.723C291.676 183.723 343.103 184.152 328.335 274.416C328.337 274.416 320.886 324.039 298.783 324.039Z" fill="#EAF3F4"/>
<path d="M56.2275 159.212C56.2275 159.212 101.746 166.172 113.147 142.357C113.147 142.357 118.31 132.881 107.77 127.449C107.77 127.449 85.2331 116.896 58.5603 141.451C58.5624 141.451 42.6732 153.113 56.2275 159.212ZM284.015 202.896C284.015 202.896 254.915 166.62 275.286 142.556C275.286 142.556 283.094 132.424 293.968 138.585C293.968 138.585 316.067 152.378 302.13 190.418C302.13 190.416 297.037 211.34 284.015 202.896Z" fill="#EAF3F4"/>
<path d="M80.8828 157.235C83.7392 148.889 79.2888 139.807 70.9427 136.951C62.5966 134.094 53.5151 138.545 50.6588 146.891C47.8024 155.237 52.2527 164.318 60.5988 167.175C68.945 170.031 78.0264 165.581 80.8828 157.235Z" fill="white" stroke="black" stroke-width="0.213622" stroke-miterlimit="10"/>
<path d="M78.8038 157.025C81.5449 149.83 77.9342 141.775 70.7393 139.034C63.5443 136.293 55.4896 139.904 52.7486 147.099C50.0076 154.294 53.6182 162.349 60.8132 165.09C68.0081 167.831 76.0628 164.22 78.8038 157.025Z" fill="white" stroke="black" stroke-width="0.213622" stroke-miterlimit="10"/>
<path d="M59.0239 149.413L65.6783 154.089L72.967 147.99" fill="white"/>
<path d="M59.0239 149.413L65.6783 154.089L72.967 147.99" stroke="black" stroke-width="0.213622" stroke-miterlimit="10"/>
<path d="M267.541 291.491H260.151V304.298H267.541V291.491Z" fill="#246872"/>
<path d="M126.328 291.491H118.938V304.298H126.328V291.491Z" fill="#246872"/>
<path d="M264.83 271.099H121.496V296.355H264.83V271.099Z" fill="#63D9EA" stroke="black" stroke-width="0.213622" stroke-miterlimit="10"/>
<path d="M264.83 262.601H121.496V271.097H264.83V262.601Z" fill="#42B1C1"/>
<path d="M264.83 271.127H121.496V273.87H264.83V271.127Z" fill="#348E9B"/>
<path d="M264.83 262.601H121.496V236.099C121.496 228.413 127.785 222.126 135.469 222.126H250.855C258.541 222.126 264.828 228.415 264.828 236.099V262.601H264.83Z" fill="#63D9EA" stroke="black" stroke-width="0.213622" stroke-miterlimit="10"/>
<path d="M264.83 296.298V242.365H273.768C281.454 242.365 287.741 248.654 287.741 256.338V282.325C287.741 290.011 281.452 296.298 273.768 296.298H264.83ZM121.495 296.298V242.365H112.558C104.871 242.365 98.5845 248.654 98.5845 256.338V282.325C98.5845 290.011 104.874 296.298 112.558 296.298H121.495Z" fill="#4DBECE" stroke="black" stroke-width="0.213622" stroke-miterlimit="10"/>
<path d="M110.979 289.611C108.591 289.611 106.638 287.659 106.638 285.271V254.24C106.638 251.851 108.591 249.899 110.979 249.899C113.367 249.899 115.32 251.851 115.32 254.24V285.271C115.32 287.657 113.365 289.611 110.979 289.611ZM275.961 289.611H275.308C273.099 289.611 271.294 287.804 271.294 285.597V253.913C271.294 251.704 273.101 249.899 275.308 249.899H275.961C278.17 249.899 279.975 251.706 279.975 253.913V285.597C279.975 287.804 278.17 289.611 275.961 289.611Z" fill="#3392A0"/>
<path d="M280.038 236.789C280.038 236.789 290.447 237.517 297.083 259.119C297.083 259.119 294.008 241.886 303.233 228.293C303.233 228.293 298.621 239.459 303.233 264.701C303.233 264.701 303.534 246.68 319.312 242.309C319.312 242.309 306.873 248.194 308.815 268.584C308.815 268.584 313.418 255.964 319.611 263.487C319.611 263.487 310.269 262.274 310.269 279.751L294.592 276.207L291.77 275.623C291.77 275.623 289.881 260.817 281.873 263.487C281.873 263.487 286.925 256.235 292.893 265.322C290.996 256.079 290.853 246.68 280.038 236.789Z" fill="#2E8B99"/>
<path d="M291.77 275.626C291.77 275.626 292.086 255.966 278.736 249.412C278.736 249.412 291.945 249.594 295.769 268.708C295.769 268.708 296.012 228.233 284.118 226.292C284.118 226.292 299.263 226.717 301.447 266.523C301.447 266.523 300.678 232.749 315.556 230.66C315.556 230.66 304.303 237.092 305.96 269.8C305.96 269.8 308.834 250.625 321.454 252.082C321.454 252.082 310.775 253.539 311.745 279.753L291.77 275.626Z" fill="#45ABBA"/>
<path d="M291.94 273.199H301.398C301.415 273.199 301.432 273.201 301.449 273.201C301.466 273.201 301.483 273.199 301.5 273.199H310.957C313.83 273.199 316.001 275.803 315.484 278.629L311.513 300.318C311.113 302.504 309.208 304.091 306.986 304.091H301.5C301.483 304.091 301.466 304.089 301.449 304.089C301.432 304.089 301.415 304.091 301.398 304.091H295.912C293.69 304.091 291.787 302.504 291.385 300.318L287.414 278.629C286.897 275.803 289.067 273.199 291.94 273.199Z" fill="white" stroke="#04D3F1" stroke-width="0.854489" stroke-miterlimit="10"/>
<path d="M67.7717 241.516H20.6616V304.061H67.7717V241.516Z" fill="white" stroke="#76C7D3" stroke-width="0.854489" stroke-miterlimit="10"/>
<path d="M42.8505 245.11H23.2335V299.598H42.8505V245.11Z" stroke="#76C7D3" stroke-width="0.854489" stroke-miterlimit="10"/>
<path d="M69.2648 237.362H19.1511V242.463H69.2648V237.362Z" fill="white" stroke="#76C7D3" stroke-width="0.854489" stroke-miterlimit="10"/>
<path d="M65.1911 245.11H45.5742V299.598H65.1911V245.11Z" stroke="#76C7D3" stroke-width="0.854489" stroke-miterlimit="10"/>
<path d="M39.9901 272.302C39.9901 273.464 39.0801 274.408 37.9564 274.408C36.8328 274.408 35.9227 273.466 35.9227 272.302C35.9227 271.139 36.8328 270.195 37.9564 270.195C39.0801 270.195 39.9901 271.137 39.9901 272.302Z" stroke="#76C7D3" stroke-width="0.854489" stroke-miterlimit="10"/>
<path d="M50.4598 274.408C51.583 274.408 52.4935 273.465 52.4935 272.302C52.4935 271.138 51.583 270.195 50.4598 270.195C49.3367 270.195 48.4261 271.138 48.4261 272.302C48.4261 273.465 49.3367 274.408 50.4598 274.408Z" stroke="#76C7D3" stroke-width="0.854489" stroke-miterlimit="10"/>
<path d="M57.5862 195.212L36.4504 205.624L35.9548 204.353L57.2017 194.186L57.5862 195.212Z" fill="#3B4344"/>
<path d="M45.7685 234.123L34.4465 208.414L35.6514 208.307L46.9007 234.123H45.7685Z" fill="#3B4344"/>
<path d="M34.1539 206.69L34.6624 206.534L35.5574 209.178L35.049 209.334L34.1539 206.69Z" fill="#3B4344"/>
<path d="M36.3922 204.559L34.6528 205.506L34.9071 205.973L36.6465 205.026L36.3922 204.559Z" fill="#3B4344"/>
<path d="M58.9961 196.316L56.9774 193.537L55.796 193.804L56.5971 197.839L58.9961 196.316Z" fill="#5A6B6D"/>
<path d="M58.8423 205.983C58.8423 207.773 60.2928 209.223 62.0829 209.223C63.8731 209.223 65.3236 207.773 65.3236 205.983C65.3236 204.192 63.8731 202.742 62.0829 202.742C60.2928 202.742 58.8423 204.192 58.8423 205.983Z" fill="#1ADFFC"/>
<path d="M56.1484 196.498L58.7482 195.344L59.6048 196.402L56.1783 198.029L56.1484 196.498Z" fill="#3B4344"/>
<path d="M70.3713 202.458L54.0484 209.296C54.0484 209.296 52.2882 198.264 58.0645 196.459C63.8409 194.652 70.3713 202.458 70.3713 202.458Z" fill="#3B4344"/>
<path d="M33.0431 206.294C33.0431 205.579 33.5964 205 34.28 205C34.9636 205 35.5168 205.579 35.5168 206.294C35.5168 207.01 34.9636 207.589 34.28 207.589C33.5964 207.589 33.0431 207.01 33.0431 206.294Z" fill="#5A6B6D"/>
<path d="M33.667 206.237C33.667 205.899 33.9298 205.624 34.2523 205.624C34.5749 205.624 34.8376 205.897 34.8376 206.237C34.8376 206.574 34.5749 206.85 34.2523 206.85C33.9298 206.85 33.667 206.574 33.667 206.237Z" fill="#3B4344"/>
<path d="M36.3055 203.853L35.6013 204.167L36.4053 205.968L37.1094 205.653L36.3055 203.853Z" fill="#3B4344"/>
<path d="M34.0706 208.999L33.9808 208.234L36.2559 207.95L36.3478 208.715L34.0706 208.999Z" fill="#3B4344"/>
<path d="M56.548 194.844C56.548 194.631 56.721 194.46 56.9325 194.46C57.1461 194.46 57.317 194.633 57.317 194.844C57.317 195.058 57.144 195.231 56.9325 195.231C56.721 195.231 56.548 195.058 56.548 194.844Z" fill="#3B4344"/>
<path d="M45.228 233.713H47.1335L48.2743 236.798L44.4291 236.454L45.228 233.713Z" fill="#3B4344"/>
<path d="M42.8291 235.922L49.9897 235.913V237.293H42.8291V235.922Z" fill="#3B4344"/>
<path d="M266.677 319.986H202.546C192.018 319.986 183.403 311.373 183.403 300.844V145.679C183.403 135.152 192.016 126.536 202.546 126.536H266.677C280.138 126.536 285.82 131.554 285.82 145.679V300.846C285.82 316.799 280.138 319.986 266.677 319.986Z" fill="#036A79"/>
<path d="M285.669 210.616H284C283.695 210.616 283.447 210.366 283.447 210.063V177.276C283.447 176.97 283.697 176.723 284 176.723H285.669C285.974 176.723 286.222 176.973 286.222 177.276V210.061C286.224 210.366 285.974 210.616 285.669 210.616ZM285.669 172.055H284C283.695 172.055 283.447 171.805 283.447 171.502V163.856C283.447 163.551 283.697 163.303 284 163.303H285.669C285.974 163.303 286.222 163.553 286.222 163.856V171.502C286.224 171.805 285.974 172.055 285.669 172.055Z" fill="#13454C"/>
<path d="M266.376 319.986H192.264C184.482 319.986 178.114 313.618 178.114 305.836V140.687C178.114 132.904 184.482 126.536 192.264 126.536H266.376C274.159 126.536 280.527 132.904 280.527 140.687V305.836C280.527 313.618 274.159 319.986 266.376 319.986Z" fill="#3BA3B2"/>
<path d="M265.797 316.799H193.035C186.514 316.799 181.177 311.463 181.177 304.941V141.313C181.177 134.791 186.514 129.454 193.035 129.454H265.797C272.319 129.454 277.655 134.791 277.655 141.313V304.941C277.655 311.463 272.319 316.799 265.797 316.799Z" fill="#5BBFCE"/>
<path d="M263.101 132.272H250.564C250.564 132.272 246.245 132.808 246.905 136.032C246.905 136.032 248.225 140.866 243.602 140.866H218.501C218.501 140.866 215.199 140.866 215.199 137.643C215.199 137.643 216.149 133.767 214.007 132.27H196.359C190.372 132.27 185.473 136.254 185.473 141.122V303.907C185.473 308.775 190.372 312.759 196.359 312.759H263.104C269.091 312.759 273.99 308.775 273.99 303.907V141.125C273.988 136.256 269.087 132.272 263.101 132.272Z" fill="#036A79"/>
<path d="M242.22 137.664H226.632C226.203 137.664 225.852 137.314 225.852 136.884V135.993C225.852 135.564 226.203 135.214 226.632 135.214H242.22C242.649 135.214 243 135.564 243 135.993V136.884C243 137.314 242.649 137.664 242.22 137.664ZM221.941 136.562C221.941 137.307 221.2 137.91 220.285 137.91C219.371 137.91 218.63 137.305 218.63 136.562C218.63 135.818 219.371 135.214 220.285 135.214C221.2 135.214 221.941 135.818 221.941 136.562Z" fill="#036A79"/>
<path d="M273.985 170.331H185.36V172.581H273.985V170.331Z" fill="#39A7B7"/>
<path d="M273.985 212.684H185.36V214.933H273.985V212.684Z" fill="#39A7B7"/>
<path d="M206.438 186.697V184.699H192.67V186.697C191.07 186.808 189.808 188.137 189.808 189.764V209.623C189.808 211.323 191.185 212.701 192.886 212.701H206.224C207.925 212.701 209.303 211.323 209.303 209.623V189.764C209.303 188.137 208.038 186.808 206.438 186.697Z" fill="#ACEFF9"/>
<path d="M209.303 192.189H189.808V206.918H209.303V192.189Z" fill="#F2F2F2"/>
<path d="M207.76 181.835H191.35V186.02H207.76V181.835Z" fill="#7FD8E5"/>
<path d="M223.161 186.744H214.791V212.705H223.161V186.744Z" fill="#94E6F2"/>
<path d="M223.799 184.315H214.092V187.729H223.799V184.315Z" fill="#F2F2F2"/>
<path d="M223.16 190.924H217.29V208.941H223.16V190.924Z" fill="#F2F2F2"/>
<path d="M234.696 186.744H226.326V212.705H234.696V186.744Z" fill="#94E6F2"/>
<path d="M235.335 184.315H225.628V187.729H235.335V184.315Z" fill="#F2F2F2"/>
<path d="M234.696 190.924H228.826V208.941H234.696V190.924Z" fill="#F2F2F2"/>
<path d="M270.57 197.957H243.23V212.703H270.57V197.957Z" fill="#7FD8E5"/>
<path d="M271.982 197.957H244.642V212.703H271.982V197.957Z" fill="#ACEFF9"/>
<path d="M267.778 200.223H248.844V209.522H267.778V200.223Z" fill="#F2F2F2"/>
<path d="M270.57 183.358H243.23V198.104H270.57V183.358Z" fill="#5CB2BF"/>
<path d="M271.982 183.358H244.642V198.104H271.982V183.358Z" fill="#7FD8E5"/>
<path d="M267.778 185.626H248.844V194.925H267.778V185.626Z" fill="#F2F2F2"/>
<path d="M267.555 151.336V149.877H257.498V151.336C256.329 151.417 255.407 152.387 255.407 153.577V168.082C255.407 169.323 256.413 170.329 257.654 170.329H267.397C268.638 170.329 269.645 169.323 269.645 168.082V153.577C269.649 152.389 268.724 151.417 267.555 151.336Z" fill="#ACEFF9"/>
<path d="M269.647 155.348H255.407V166.108H269.647V155.348Z" fill="#F2F2F2"/>
<path d="M268.523 147.785H256.535V150.842H268.523V147.785Z" fill="#7FD8E5"/>
<path d="M214.979 155.736H190.22V170.483H214.979V155.736Z" fill="#7FD8E5"/>
<path d="M216.258 155.736H191.5V170.483H216.258V155.736Z" fill="#ACEFF9"/>
<path d="M212.452 158.003H195.304V167.302H212.452V158.003Z" fill="#F2F2F2"/>
<path d="M214.979 141.137H190.22V155.884H214.979V141.137Z" fill="#5CB2BF"/>
<path d="M216.258 141.137H191.5V155.884H216.258V141.137Z" fill="#7FD8E5"/>
<path d="M212.452 143.404H195.304V152.703H212.452V143.404Z" fill="#F2F2F2"/>
<path d="M235.745 152.173H230.146V170.423H235.745V152.173Z" fill="#94E6F2"/>
<path d="M235.745 153.876H230.146V154.965H235.745V153.876Z" fill="#F2F2F2"/>
<path d="M235.745 156.243H230.146V157.332H235.745V156.243Z" fill="#F2F2F2"/>
<path d="M227.405 152.173H221.806V170.423H227.405V152.173Z" fill="#94E6F2"/>
<path d="M227.405 153.876H221.806V154.965H227.405V153.876Z" fill="#F2F2F2"/>
<path d="M227.405 156.243H221.806V157.332H227.405V156.243Z" fill="#F2F2F2"/>
<path d="M243.649 152.173H238.05V170.423H243.649V152.173Z" fill="#94E6F2"/>
<path d="M243.649 153.876H238.05V154.965H243.649V153.876Z" fill="#F2F2F2"/>
<path d="M243.649 156.243H238.05V157.332H243.649V156.243Z" fill="#F2F2F2"/>
<path d="M251.613 152.173H246.014V170.423H251.613V152.173Z" fill="#94E6F2"/>
<path d="M251.613 153.876H246.014V154.965H251.613V153.876Z" fill="#F2F2F2"/>
<path d="M251.613 156.243H246.014V157.332H251.613V156.243Z" fill="#F2F2F2"/>
<path d="M172.301 206.173C172.301 206.173 176.159 207.82 178.458 204.511C178.458 204.511 178.515 203.631 181.602 203.776L181.91 198.559C181.91 198.559 178.84 199.038 175.595 198.175C175.595 198.175 173.557 195.667 171.923 198.435C171.921 198.435 169.364 202.575 172.301 206.173Z" fill="#76EEFF"/>
<path d="M177.054 203.039C177.054 203.039 175.102 202.451 173.312 204.526" stroke="#132F33" stroke-width="0.213622" stroke-miterlimit="10"/>
<path d="M172.558 200.413C172.694 199.922 172.408 199.414 171.917 199.277L169.178 198.512C168.687 198.375 168.178 198.662 168.042 199.153C167.905 199.644 168.191 200.153 168.683 200.289L171.421 201.054C171.913 201.191 172.421 200.903 172.558 200.413Z" fill="#76EEFF"/>
<path d="M178.189 198.628C178.189 198.628 177.255 198.858 175.046 196.147C175.046 196.147 172.175 193.883 171.212 196.968C171.212 196.968 170.319 200.569 171.381 201.035C171.381 201.035 172.306 201.381 172.598 199.644L173.107 197.792C173.107 197.792 174.027 201.601 175.638 200.888C175.636 200.892 177.747 200.422 178.189 198.628Z" fill="#76EEFF"/>
<path d="M175.939 200.755C173.889 201.86 173.105 197.797 173.105 197.797C172.462 201.751 171.378 201.037 171.378 201.037C171.378 201.037 170.334 200.935 171.169 197.147" stroke="#132F33" stroke-width="0.213622" stroke-miterlimit="10"/>
<path d="M227.298 165.132C227.298 165.132 227.001 169.684 227.986 174.005C227.986 174.005 227.824 179.931 222.851 180.032C222.851 180.032 220.101 179.096 219.591 175.614C219.591 175.614 219.268 167.33 219.484 166.063L227.298 165.132Z" fill="#76EEFF"/>
<path d="M219.482 166.063L219.475 174.14C219.475 174.14 225.732 174.033 226.493 168.573L226.732 165.499L219.482 166.063Z" fill="#2D91A0"/>
<path d="M228.317 157.027C229.234 155.442 231.011 154.22 232.825 154.485C234.745 154.764 236.123 156.61 236.518 158.509C236.914 160.408 236.546 162.372 236.241 164.288C235.933 166.204 235.696 168.212 236.332 170.045C237.46 173.294 241.566 175.131 244.741 173.805C243.551 175.808 241.406 177.214 239.092 177.505C236.781 177.795 234.352 176.96 232.707 175.311C233.023 176.889 235.386 177.74 236.933 178.184C236.76 178.686 235.85 179.128 235.324 179.207C233.553 179.476 231.541 179.226 230.293 177.94C228.958 176.565 228.106 174.693 228.441 172.805C228.777 170.916 229.415 169.026 229.157 167.125C228.965 165.715 228.294 164.424 227.685 163.138C227.074 161.852 227.204 160.96 227.239 159.537C227.271 158.114 228.317 157.027 228.317 157.027Z" fill="#38494C"/>
<path d="M232.825 154.485C232.825 154.485 238.627 157.836 233.502 165.888C233.502 165.888 227.311 175.558 233.246 179.258C233.246 179.258 226.23 178.603 228.441 172.805C228.584 172.429 229.597 168.804 229.157 167.125C229.157 167.125 228.943 165.294 227.685 163.138C227.685 163.138 226 159.206 228.319 157.027C228.317 157.027 229.87 153.677 232.825 154.485Z" fill="#2E3B3D"/>
<path d="M230.644 154.837C230.644 154.837 231.808 153.647 232.737 155.683C232.737 155.683 234.467 158.795 232.718 159.417C232.718 159.417 231.808 159.834 231.534 158.894C231.534 158.894 231.043 157.029 230.556 156.174C230.556 156.174 229.904 155.655 230.644 154.837Z" fill="#3DE6FF"/>
<path d="M220.458 172.22C224.143 172.211 227.123 169.216 227.115 165.533L227.102 160.178C227.093 156.493 224.098 153.513 220.415 153.521C216.73 153.53 213.75 156.525 213.759 160.208L213.772 165.563C213.778 169.248 216.773 172.228 220.458 172.22Z" fill="#76EEFF"/>
<path d="M217.884 163.675L217.175 165.454L218.753 165.546" stroke="#331B13" stroke-width="0.213622" stroke-miterlimit="10"/>
<path d="M219.817 161.553C219.82 162.169 220.189 162.669 220.646 162.666C221.101 162.666 221.471 162.164 221.469 161.549C221.467 160.934 221.097 160.434 220.64 160.436C220.185 160.436 219.817 160.936 219.817 161.553Z" fill="white"/>
<path d="M219.8 161.688C219.8 162.077 220.035 162.391 220.321 162.389C220.608 162.389 220.841 162.072 220.841 161.684C220.841 161.295 220.606 160.981 220.319 160.983C220.033 160.983 219.8 161.299 219.8 161.688Z" fill="#132F33"/>
<path d="M220.469 158.056C220.469 158.056 221.695 157.935 222.727 159.135C222.727 159.135 223.043 159.468 222.665 159.746C222.665 159.746 222.456 159.911 222.152 159.65C222.152 159.65 221.484 158.954 220.368 159.06C220.368 159.06 219.89 159.107 219.811 158.674C219.811 158.676 219.772 158.095 220.469 158.056ZM216.448 158.289C216.448 158.289 215.218 158.221 214.242 159.468C214.242 159.468 213.941 159.817 214.331 160.075C214.331 160.075 214.547 160.229 214.84 159.958C214.84 159.958 215.476 159.231 216.596 159.289C216.596 159.289 217.077 159.315 217.136 158.879C217.134 158.879 217.147 158.298 216.448 158.289Z" fill="#38494C"/>
<path d="M215.242 161.769C215.244 162.384 215.613 162.884 216.07 162.882C216.525 162.882 216.895 162.38 216.893 161.765C216.891 161.15 216.521 160.65 216.064 160.652C215.607 160.652 215.239 161.154 215.242 161.769Z" fill="white"/>
<path d="M215.224 161.904C215.224 162.292 215.459 162.606 215.746 162.604C216.032 162.604 216.265 162.288 216.265 161.899C216.265 161.511 216.03 161.197 215.743 161.199C215.455 161.201 215.222 161.515 215.224 161.904Z" fill="#132F33"/>
<path d="M213.759 160.208C213.759 160.208 214.122 154.784 219.655 153.566C219.655 153.566 220.268 158.039 226.42 159.511L226.433 163.226L227.268 167.77C227.268 167.77 234.929 167.005 231.725 156.288C231.725 156.288 230.219 150.319 225.542 149.454C225.542 149.454 220.903 147.747 218.07 150.977C218.07 150.977 210.384 151.545 213.759 160.208Z" fill="#38494C"/>
<path d="M228.07 166.704C229.083 166.704 229.905 165.646 229.905 164.342C229.905 163.037 229.083 161.979 228.07 161.979C227.057 161.979 226.235 163.037 226.235 164.342C226.235 165.646 227.057 166.704 228.07 166.704Z" fill="#76EEFF"/>
<path d="M229.02 163.109C229.02 163.109 227.83 162.621 227.456 164.151C227.456 164.151 227.963 163.388 228.631 163.884" stroke="#132F33" stroke-width="0.213622" stroke-miterlimit="10"/>
<path d="M217.621 167.887C217.621 167.887 219.48 169.821 220.894 167.005L217.621 167.887Z" fill="white"/>
<path d="M244.016 291.105L250.434 301.623L247.471 303.431L246.435 301.732L246.747 303.875L233.085 312.21C233.085 312.21 229.569 307.806 233.323 304.849C233.323 304.849 238.945 301.418 237.557 298.601L236.279 295.828L244.016 291.105Z" fill="#404849"/>
<path d="M247.467 303.414L250.428 301.608L249.737 300.475L246.776 302.282L247.467 303.414Z" fill="#2A2F30"/>
<path d="M246.746 303.873L233.068 312.217L232.376 311.085L246.537 302.446L246.746 303.873Z" fill="#2A2F30"/>
<path d="M233.32 304.847C233.32 304.847 234.677 305.199 235.634 306.599L236.39 306.137C236.39 306.137 235.527 304.721 234.117 304.311L233.32 304.847ZM234.92 303.7C234.92 303.7 236.159 304.044 237.298 305.586L238.054 305.125C238.054 305.125 237.025 303.574 235.578 303.14L234.92 303.7ZM236.29 302.439C236.29 302.439 237.601 302.803 238.793 304.672L239.55 304.21C239.55 304.21 238.432 302.38 236.839 301.799L236.29 302.439ZM242.748 299.842C243.158 300.513 244.034 300.726 244.704 300.316C245.375 299.906 245.589 299.03 245.179 298.359C244.768 297.688 243.893 297.475 243.222 297.885C242.551 298.295 242.337 299.171 242.748 299.842Z" fill="#2A2F30"/>
<path d="M212.819 299.671L212.934 311.99L209.465 312.023L209.446 310.032L208.615 312.029L192.613 312.178C192.613 312.178 191.852 306.594 196.592 305.981C196.592 305.981 203.178 305.919 203.432 302.79L203.759 299.754L212.819 299.671Z" fill="#404849"/>
<path d="M209.454 312.012L212.923 311.98L212.911 310.654L209.441 310.686L209.454 312.012Z" fill="#2A2F30"/>
<path d="M208.615 312.031L192.593 312.181L192.58 310.852L209.168 310.698L208.615 312.031Z" fill="#2A2F30"/>
<path d="M196.59 305.981C196.59 305.981 197.573 306.979 197.678 308.673L198.562 308.664C198.562 308.664 198.547 307.007 197.547 305.93L196.59 305.981ZM198.551 305.817C198.551 305.817 199.438 306.748 199.624 308.654L200.508 308.645C200.508 308.645 200.42 306.787 199.401 305.671L198.551 305.817ZM200.373 305.439C200.373 305.439 201.311 306.423 201.377 308.639L202.262 308.63C202.262 308.63 202.243 306.485 201.17 305.169L200.373 305.439ZM207.25 306.522C207.256 307.308 207.902 307.94 208.688 307.932C209.474 307.923 210.106 307.28 210.098 306.494C210.091 305.708 209.446 305.075 208.66 305.084C207.874 305.09 207.241 305.736 207.25 306.522Z" fill="#2A2F30"/>
<path d="M208.892 303.777C208.892 303.777 212.315 303.61 214.25 301.66L217.542 260.798C217.608 255.584 213.902 251.311 209.279 251.273L209.123 251.27C204.515 251.23 201.95 253.381 201.905 258.581L202.633 302.642C203.947 303.396 205.69 303.873 208.892 303.777Z" fill="#34646B"/>
<path d="M209.612 265.519C214.049 265.775 217.252 263.047 217.959 258.414L223.932 223.151C224.78 217.58 220.729 212.492 215.389 212.423L214.883 212.417C210.529 212.359 207.82 215.694 207.192 220.246L201.886 255.549C201.145 260.924 204.477 265.224 209.612 265.519Z" fill="#34646B"/>
<path d="M227.424 268.805C232.28 268.805 235.7 264.575 235.721 259.535L235.982 221.455C236.003 216.384 232.474 212.705 227.589 212.705H227.424C222.554 212.705 218.604 216.802 218.604 221.859L219.847 259.542C219.847 264.596 222.554 268.805 227.424 268.805Z" fill="#428089"/>
<path d="M243.087 297.795C243.087 297.795 246.172 296.306 247.238 293.888L235.484 258.363C233.643 253.919 228.546 251.364 224.284 253.155L224.141 253.214C219.892 254.998 218.879 259.386 220.736 263.81L237.448 299.658C238.926 299.78 240.178 299.139 243.087 297.795Z" fill="#428089"/>
<path d="M179.99 198.288L193.905 195.139L199.726 193.46C202.554 192.845 205.4 193.834 206.237 196.891L206.338 198.794C205.94 202.259 202.945 203.522 199.876 203.833L194.005 204.716L187.528 205.124L180.609 205.767L179.99 198.288Z" fill="white"/>
<path d="M198.137 193.919L179.99 198.288L180.611 205.767" stroke="#331B13" stroke-width="0.213622" stroke-miterlimit="10"/>
<path d="M197.889 200.358L199.344 201.552C201.474 203.302 204.618 202.994 206.368 200.864L219.653 184.695C221.402 182.565 221.095 179.421 218.965 177.671C216.835 175.922 213.691 176.229 211.941 178.359L197.462 195.983C196.372 197.309 196.565 199.268 197.889 200.358Z" fill="white"/>
<path d="M210.544 180.059L200.845 191.864" stroke="#132F33" stroke-width="0.213622" stroke-miterlimit="10"/>
<path d="M228.409 174.138C228.409 174.138 225.854 176.244 222.93 179.453C222.93 179.453 220.465 177.985 219.39 174.138C219.39 174.138 218.717 174.193 215.224 174.954C215.224 174.954 202.672 189.264 211.597 196.425C211.597 196.425 211.905 210.52 207.615 218.394C207.615 218.394 220.892 224.627 238.746 219.466C238.746 219.466 236.843 205.222 237.755 197.782C237.755 197.782 239.33 182.2 237.811 176.885C237.811 176.881 232.895 175.014 228.409 174.138Z" fill="#40E7FF"/>
<path d="M237.811 176.881L230.043 174.328C230.043 174.328 221.159 194.013 225.337 221.712C225.337 221.712 226.162 231.117 231.825 230.284C231.825 230.284 240.205 230.026 241.246 229.218C241.246 229.223 238.746 192.524 237.811 176.881ZM215.224 174.952C215.224 174.952 202.394 188.468 211.597 196.423C211.597 196.423 210.657 217.687 203.165 227.041C203.165 227.041 205.052 229.507 211.131 229.195C211.131 229.195 214.212 229.223 214.588 221.714C214.588 221.714 218.339 203.898 218.243 174.33L215.224 174.952Z" fill="white"/>
<path d="M222.93 179.453C222.93 179.453 219.604 203.246 219.39 218.638M222.93 179.453L224.778 181.781C224.778 181.781 226.916 178.237 227.2 178.034M222.93 179.453L220.061 181.241L218.999 177.124M213.558 177.084C213.558 177.084 203.317 189.681 211.597 196.423C211.597 196.423 211.131 215.929 203.165 227.041" stroke="#132F33" stroke-width="0.213622" stroke-miterlimit="10"/>
<path d="M238.746 218.217H229.247V220.302H238.746V218.217Z" stroke="#132F33" stroke-width="0.213622" stroke-miterlimit="10"/>
<path d="M212.251 220.302L206.791 220.361L207.615 218.217H212.251V220.302Z" stroke="#132F33" stroke-width="0.213622" stroke-miterlimit="10"/>
<path d="M239.171 204.43L241.023 204.09C243.734 203.592 245.567 201.208 245.119 198.769L241.709 180.243C241.261 177.804 238.699 176.229 235.988 176.729C233.278 177.227 231.445 179.611 231.893 182.05L235.608 202.244C235.888 203.761 237.484 204.741 239.171 204.43Z" fill="white"/>
<path d="M232.382 184.702L234.786 197.762" stroke="#132F33" stroke-width="0.213622" stroke-miterlimit="10"/>
<path d="M238.507 176.855C238.507 176.855 241.03 176.541 241.993 181.781L244.873 197.886" stroke="#132F33" stroke-width="0.213622" stroke-miterlimit="10"/>
<path d="M172.256 188.918L173.805 191.469L175.298 188.886H175.38L176.928 191.437L178.421 188.854L178.503 188.852L180.051 191.403L181.545 188.82H181.626L183.175 191.371L184.668 188.786H184.79L186.336 191.337L187.832 188.752H187.913L189.461 191.302L190.955 188.72L191.036 188.718L192.585 191.27L194.078 188.686L194.356 214.703L172.534 214.935L172.256 188.918Z" fill="#028699"/>
<path d="M169.146 188.953L170.695 191.503L172.188 188.921L172.269 188.918L173.818 191.469L175.311 188.886H175.392L176.941 191.437L178.434 188.852H178.516L180.064 191.403L181.56 188.82L181.679 188.818L183.228 191.369L184.721 188.786H184.802L186.351 191.337L187.844 188.752H187.926L189.474 191.302L190.968 188.72L191.245 214.735L169.424 214.967L169.146 188.953Z" fill="#009BB2"/>
<path d="M174.091 203.992L183.872 203.887L183.804 197.522L174.023 197.626L174.091 203.992Z" fill="white"/>
<path d="M174.038 199.037L183.819 198.932L183.815 198.484L174.033 198.588L174.038 199.037Z" fill="#3DE6FF"/>
<path d="M175.896 200.057L181.262 199.999L181.257 199.553L175.891 199.61L175.896 200.057Z" fill="#C6C6C6"/>
<path d="M180.032 200.97L181.274 200.956L181.269 200.51L180.028 200.523L180.032 200.97Z" fill="#C6C6C6"/>
<path d="M175.909 201.014L179.713 200.974L179.708 200.527L175.904 200.568L175.909 201.014Z" fill="#C6C6C6"/>
<path d="M179.559 202.021L181.283 202.002L181.279 201.556L179.555 201.574L179.559 202.021Z" fill="#C6C6C6"/>
<path d="M177.062 202.047L179.256 202.023L179.251 201.577L177.057 201.6L177.062 202.047Z" fill="#C6C6C6"/>
<path d="M175.969 202.058L176.743 202.05L176.738 201.604L175.965 201.612L175.969 202.058Z" fill="#C6C6C6"/>
<path d="M172.699 201.86C172.758 201.353 172.395 200.896 171.889 200.836L168.783 200.473C168.277 200.413 167.819 200.777 167.76 201.283C167.7 201.789 168.063 202.246 168.569 202.306L171.675 202.669C172.182 202.729 172.639 202.366 172.699 201.86Z" fill="#76EEFF" stroke="black" stroke-width="0.213622" stroke-miterlimit="10"/>
<path d="M172.771 203.648C172.831 203.141 172.468 202.684 171.962 202.624L168.855 202.261C168.349 202.201 167.892 202.565 167.832 203.071C167.772 203.577 168.136 204.034 168.642 204.094L171.748 204.457C172.254 204.515 172.714 204.152 172.771 203.648Z" fill="#76EEFF" stroke="black" stroke-width="0.213622" stroke-miterlimit="10"/>
<path d="M173.002 205.481C173.062 204.974 172.699 204.517 172.192 204.457L169.086 204.094C168.58 204.034 168.123 204.397 168.063 204.904C168.003 205.41 168.366 205.867 168.873 205.927L171.979 206.29C172.485 206.348 172.942 205.985 173.002 205.481ZM170.048 199.698C170.233 199.224 170.001 198.689 169.526 198.501L168.567 198.126C168.093 197.94 167.559 198.173 167.371 198.647C167.185 199.121 167.418 199.655 167.892 199.843L168.851 200.219C169.328 200.405 169.862 200.172 170.048 199.698Z" fill="#76EEFF" stroke="black" stroke-width="0.213622" stroke-miterlimit="10"/>
<path d="M220.909 203.22L216.912 203.317C216.299 203.094 214.139 202.355 212.142 202.163C212.142 202.163 209.837 201.772 209.508 202.293C209.508 202.293 208.668 203.539 211.095 203.639C211.095 203.639 214.075 204 212.052 204.684L210.997 205.036L205.498 206.312C205.498 206.312 204.655 206.559 204.625 207.136C204.625 207.136 204.554 207.884 205.723 207.83L210.884 207.316L205.65 208.418C205.65 208.418 204.763 208.653 204.729 209.187C204.729 209.187 204.65 209.879 205.876 209.823L210.952 208.993L206.519 210.152C206.519 210.152 205.684 210.452 205.693 210.973C205.693 210.973 205.673 211.652 206.851 211.498L211.544 210.494L207.991 211.558C207.991 211.558 207.194 211.842 207.203 212.336C207.203 212.336 207.184 212.979 208.305 212.833L213.379 211.979C213.379 211.979 213.4 211.977 213.439 211.975C213.783 211.964 214.197 211.872 214.693 211.639C214.693 211.639 220.524 209.204 222.353 207.835L220.909 203.22Z" fill="#76EEFF"/>
<path d="M219.852 201.642L232.737 197.75L238.054 195.686C240.105 194.964 243.666 194.325 244.809 197.559L245.17 199.426C245.657 201.939 243.613 204.694 241.534 205.19L233.305 207.316L227.213 208.448L221.2 210.065L219.852 201.642Z" fill="white"/>
<path d="M238.612 195.504C238.612 195.504 224.404 200.482 219.852 201.642L221.2 210.065L233.305 207.316" stroke="#132F33" stroke-width="0.213622" stroke-miterlimit="10"/>
<path d="M242.66 212.278H263.877C266.267 212.278 268.222 210.323 268.222 207.933V191.616C268.222 189.226 266.267 187.271 263.877 187.271H242.66C240.269 187.271 238.315 189.226 238.315 191.616V207.933C238.315 210.321 240.269 212.278 242.66 212.278Z" fill="#61878C"/>
<path d="M244.168 212.278H265.385C267.775 212.278 269.73 210.323 269.73 207.933V191.616C269.73 189.226 267.775 187.271 265.385 187.271H244.168C241.778 187.271 239.823 189.226 239.823 191.616V207.933C239.823 210.321 241.778 212.278 244.168 212.278ZM225.75 217.554H256.161C256.714 217.554 257.167 217.102 257.167 216.548C257.167 215.995 256.714 215.542 256.161 215.542H225.75C225.196 215.542 224.743 215.995 224.743 216.548C224.743 217.104 225.196 217.554 225.75 217.554Z" fill="#395154"/>
<path d="M255.971 217.052L252.264 204.361H258.252L261.818 217.052H255.971Z" fill="#233335"/>
<path d="M257.255 217.052L253.546 204.361H259.536L263.101 217.052H257.255Z" fill="#48676B"/>
<path d="M225.75 217.554H233.666C234.22 217.554 234.673 217.102 234.673 216.548C234.673 215.995 234.22 215.542 233.666 215.542H225.75C225.196 215.542 224.743 215.995 224.743 216.548C224.743 217.104 225.196 217.554 225.75 217.554Z" fill="#61878C"/>
<path d="M264.328 216.172H254.148C253.595 216.172 253.142 216.625 253.142 217.178C253.142 217.732 253.595 218.185 254.148 218.185H264.328C264.881 218.185 265.334 217.732 265.334 217.178C265.332 216.625 264.881 216.172 264.328 216.172Z" fill="#233335"/>
<path d="M265.263 313.001H194.131C189.348 313.001 185.473 309.124 185.473 304.343V220.304H273.924V304.343C273.921 309.124 270.044 313.001 265.263 313.001Z" fill="#C3EEF4"/>
<path d="M273.921 217.364H185.471V220.475H273.921V217.364Z" fill="#74C3CE"/>
<path d="M227.345 273.647C235.991 273.647 243 266.639 243 257.993C243 249.348 235.991 242.339 227.345 242.339C218.7 242.339 211.691 249.348 211.691 257.993C211.691 266.639 218.7 273.647 227.345 273.647Z" fill="#52ADBA" stroke="black" stroke-width="0.213622" stroke-miterlimit="10"/>
<path d="M225.348 273.647C233.994 273.647 241.002 266.639 241.002 257.993C241.002 249.348 233.994 242.339 225.348 242.339C216.702 242.339 209.694 249.348 209.694 257.993C209.694 266.639 216.702 273.647 225.348 273.647Z" fill="#69C4D1" stroke="black" stroke-width="0.213622" stroke-miterlimit="10"/>
<path d="M228.061 254.814C228.304 254.846 228.495 254.891 228.683 254.891C230.379 254.896 232.075 254.908 233.769 254.883C234.41 254.872 234.63 255.116 234.613 255.752C234.576 257.102 234.574 258.457 234.615 259.807C234.634 260.475 234.423 260.725 233.733 260.708C232.088 260.67 230.439 260.717 228.794 260.691C228.211 260.683 228.033 260.888 228.046 261.467C228.082 263.112 228.04 264.761 228.072 266.406C228.084 267.029 227.899 267.296 227.239 267.277C225.863 267.241 224.485 267.237 223.109 267.273C222.447 267.29 222.263 267.027 222.276 266.403C222.308 264.806 222.253 263.208 222.302 261.612C222.323 260.913 222.135 260.659 221.407 260.681C219.785 260.73 218.162 260.676 216.54 260.704C215.927 260.715 215.718 260.48 215.731 259.879C215.758 258.504 215.761 257.126 215.729 255.75C215.714 255.126 215.912 254.855 216.568 254.874C217.82 254.908 219.074 254.883 220.328 254.883C220.958 254.883 221.588 254.883 222.289 254.883C222.289 254.55 222.289 254.308 222.289 254.069C222.289 252.471 222.329 250.873 222.272 249.277C222.244 248.504 222.522 248.305 223.244 248.333C224.519 248.382 225.799 248.346 227.078 248.348C228.065 248.35 228.063 248.352 228.063 249.329C228.059 251.144 228.061 252.96 228.061 254.814Z" fill="#2B9CAD"/>
<path d="M228.431 254.814C228.431 252.96 228.431 251.144 228.431 249.329C228.431 248.352 228.433 248.35 227.446 248.348C226.168 248.346 224.889 248.382 223.611 248.333C222.889 248.305 222.611 248.506 222.639 249.277C222.697 250.873 222.656 252.471 222.656 254.069C222.656 254.308 222.656 254.55 222.656 254.883C221.958 254.883 221.328 254.883 220.695 254.883C219.441 254.883 218.187 254.906 216.936 254.874C216.28 254.857 216.081 255.128 216.096 255.75C216.128 257.126 216.126 258.504 216.098 259.879C216.085 260.48 216.295 260.715 216.908 260.704C218.529 260.676 220.153 260.73 221.774 260.681C222.503 260.659 222.691 260.913 222.669 261.612C222.62 263.208 222.676 264.808 222.644 266.403C222.631 267.029 222.814 267.29 223.477 267.273C224.852 267.237 226.23 267.241 227.606 267.277C228.266 267.294 228.452 267.029 228.439 266.406C228.407 264.759 228.45 263.112 228.413 261.467C228.401 260.888 228.58 260.683 229.161 260.691C230.808 260.717 232.455 260.67 234.1 260.708C234.79 260.723 235.002 260.475 234.982 259.807C234.942 258.457 234.944 257.102 234.98 255.752C234.997 255.116 234.779 254.872 234.136 254.883C232.44 254.911 230.744 254.896 229.05 254.891C228.864 254.891 228.674 254.846 228.431 254.814Z" fill="#DDDDDD" stroke="black" stroke-width="0.213622" stroke-miterlimit="10"/>
<path d="M227.324 254.814C227.324 252.96 227.324 251.144 227.324 249.329C227.324 248.352 227.326 248.35 226.339 248.348C225.062 248.346 223.782 248.382 222.505 248.333C221.783 248.305 221.505 248.506 221.533 249.277C221.59 250.873 221.55 252.471 221.55 254.069C221.55 254.308 221.55 254.55 221.55 254.883C220.851 254.883 220.221 254.883 219.589 254.883C218.335 254.883 217.081 254.906 215.829 254.874C215.173 254.857 214.974 255.128 214.989 255.75C215.021 257.126 215.019 258.504 214.992 259.879C214.979 260.48 215.188 260.715 215.801 260.704C217.423 260.676 219.046 260.73 220.667 260.681C221.396 260.659 221.584 260.913 221.563 261.612C221.513 263.208 221.569 264.808 221.537 266.403C221.524 267.029 221.708 267.29 222.37 267.273C223.746 267.237 225.124 267.241 226.499 267.277C227.159 267.294 227.345 267.029 227.333 266.406C227.3 264.759 227.343 263.112 227.307 261.467C227.294 260.888 227.474 260.683 228.055 260.691C229.702 260.717 231.349 260.67 232.994 260.708C233.684 260.723 233.895 260.475 233.876 259.807C233.835 258.457 233.837 257.102 233.874 255.752C233.891 255.116 233.673 254.872 233.03 254.883C231.334 254.911 229.638 254.896 227.943 254.891C227.758 254.891 227.568 254.846 227.324 254.814Z" fill="white" stroke="black" stroke-width="0.213622" stroke-miterlimit="10"/>
<path d="M66.4942 298.146L59.8549 309.028L62.9182 310.897L63.9906 309.139L63.668 311.354L77.8013 319.978C77.8013 319.978 81.4392 315.421 77.5556 312.362C77.5556 312.362 71.7387 308.814 73.1742 305.898L74.4965 303.029L66.4942 298.146Z" fill="#404849"/>
<path d="M63.6448 309.728L60.5811 307.859L59.8657 309.031L62.9295 310.9L63.6448 309.728Z" fill="#2A2F30"/>
<path d="M63.67 311.354L77.8182 319.986L78.5339 318.816L63.8837 309.878L63.67 311.354Z" fill="#2A2F30"/>
<path d="M77.5578 312.362C77.5578 312.362 76.1543 312.727 75.1652 314.176L74.3834 313.699C74.3834 313.699 75.2763 312.234 76.7353 311.809L77.5578 312.362ZM75.9043 311.174C75.9043 311.174 74.6226 311.531 73.4455 313.125L72.6637 312.648C72.6637 312.648 73.7275 311.044 75.225 310.595L75.9043 311.174ZM74.4859 309.871C74.4859 309.871 73.1294 310.247 71.8968 312.181L71.1149 311.704C71.1149 311.704 72.2706 309.809 73.9198 309.209L74.4859 309.871ZM67.8059 307.184C67.383 307.878 66.4751 308.098 65.7808 307.673C65.0865 307.25 64.8665 306.342 65.2916 305.648C65.7146 304.954 66.6225 304.734 67.3167 305.159C68.0089 305.584 68.2289 306.49 67.8059 307.184Z" fill="#2A2F30"/>
<path d="M98.7683 307.007L98.6508 319.753L102.24 319.788L102.259 317.728L103.12 319.796L119.675 319.95C119.675 319.95 120.462 314.171 115.559 313.537C115.559 313.537 108.747 313.473 108.484 310.234L108.146 307.094L98.7683 307.007Z" fill="#404849"/>
<path d="M102.256 318.423L98.6676 318.389L98.6549 319.763L102.244 319.796L102.256 318.423Z" fill="#2A2F30"/>
<path d="M103.118 319.794L119.692 319.948L119.705 318.574L102.545 318.416L103.118 319.794Z" fill="#2A2F30"/>
<path d="M115.557 313.535C115.557 313.535 114.54 314.567 114.431 316.318L113.515 316.31C113.515 316.31 113.53 314.594 114.563 313.479L115.557 313.535ZM113.53 313.366C113.53 313.366 112.611 314.33 112.419 316.301L111.502 316.293C111.502 316.293 111.594 314.37 112.647 313.217L113.53 313.366ZM111.643 312.973C111.643 312.973 110.671 313.992 110.605 316.284L109.689 316.276C109.689 316.276 109.71 314.058 110.817 312.695L111.643 312.973ZM104.532 314.092C104.523 314.906 103.859 315.56 103.045 315.551C102.231 315.543 101.577 314.879 101.586 314.065C101.594 313.251 102.259 312.597 103.073 312.606C103.884 312.614 104.538 313.281 104.532 314.092Z" fill="#2A2F30"/>
<path d="M102.97 311.538C102.97 311.538 99.4305 311.367 97.4267 309.346L94.0195 267.072C93.9511 261.678 97.7856 257.258 102.569 257.216L102.729 257.213C107.497 257.173 110.981 260.238 111.028 265.617L110.447 310.177C109.093 310.961 106.284 311.636 102.97 311.538Z" fill="#34646B"/>
<path d="M102.558 273.555C97.9757 273.857 94.7009 271.191 94.0215 266.611L88.2345 231.767C87.4185 226.26 91.6525 221.18 97.1661 221.054L97.6873 221.041C102.182 220.938 104.301 219.248 104.899 223.749L111.131 262.996C111.836 268.309 107.86 273.207 102.558 273.555Z" fill="#34646B"/>
<path d="M83.6588 275.074C78.6344 275.074 75.0968 270.697 75.0754 265.485L74.8063 223.833C74.7828 218.586 78.4336 217.035 83.49 217.035H83.6588C88.6981 217.035 92.7826 221.276 92.7826 226.505V265.605C92.7826 270.834 88.6981 275.074 83.6588 275.074Z" fill="#428089"/>
<path d="M67.4554 305.067C67.4554 305.067 64.266 303.527 63.1616 301.025L75.321 264.272C77.2265 259.674 82.4987 257.032 86.91 258.882L87.0574 258.944C91.4538 260.789 93.4618 265.993 91.5413 270.569L74.8233 306.864C73.2916 306.992 70.4632 306.456 67.4554 305.067Z" fill="#428089"/>
<path d="M129.461 183.945L129.825 182.926C129.825 182.926 129.199 180.079 130.611 177.957C130.611 177.957 130.594 176.394 130.085 175.063C130.085 175.063 129.393 173.093 131.138 173.717C131.138 173.717 132.198 174.424 132.683 176.975L136.325 175.732L139.852 172.969C139.852 172.969 141.194 171.974 141.063 173.484C141.063 173.484 142.947 170.957 142.932 172.899C142.932 172.899 144.229 171.619 144.105 173.461C144.105 173.461 145.804 172.322 145.434 174.159C145.434 174.159 143.813 179.111 136.616 183.653C136.616 183.653 134.659 184.541 134.306 185.836L129.461 183.945Z" fill="#76EEFF"/>
<path d="M132.685 176.975C132.685 176.975 133.625 178.786 132.339 180.324M138.402 175.855C138.402 175.855 139.982 174.601 140.653 173.719M139.401 176.689C139.401 176.689 141.463 175.103 142.349 174.005M140.476 177.592C140.476 177.592 142.407 175.969 143.221 174.879M137.611 176.229C137.611 176.229 139.553 177.545 140.401 178.795M133.755 182.715C133.755 182.715 134.512 179.978 137.276 180.28" stroke="#132F33" stroke-width="0.213622" stroke-miterlimit="10"/>
<path d="M82.6399 168.291C82.6399 168.291 83.3534 172.892 82.6399 177.712C82.6399 177.712 82.8535 182.95 88.3094 182.636C88.3094 182.636 91.706 182.617 91.9709 178.761C91.9709 178.761 91.6206 169.662 91.2766 168.293H82.6399V168.291Z" fill="#76EEFF"/>
<path d="M91.2764 168.291L91.9707 177.135C91.9707 177.135 85.1113 177.549 83.8124 171.636L83.2891 168.291H91.2764Z" fill="#2D91A0"/>
<path d="M90.3152 175.253C86.2735 175.449 82.8363 172.333 82.6376 168.289L82.3065 161.502C82.11 157.46 85.2267 154.023 89.2706 153.824C93.3123 153.628 96.7495 156.745 96.9482 160.789L97.2793 167.575C97.4758 171.619 94.3591 175.056 90.3152 175.253Z" fill="#76EEFF"/>
<path d="M92.9448 165.636L93.7075 167.599L91.9707 167.682" stroke="#331B13" stroke-width="0.213622" stroke-miterlimit="10"/>
<path d="M93.6927 169.75L88.884 169.024C88.884 169.024 88.4589 170.786 91.3706 171.064C91.3706 171.064 93.2526 171.213 93.6927 169.75Z" fill="white"/>
<path d="M90.3771 163.41C90.4092 164.085 90.0311 164.653 89.5312 164.679C89.0313 164.702 88.5977 164.175 88.5656 163.499C88.5336 162.824 88.9117 162.256 89.4116 162.231C89.9114 162.205 90.3429 162.733 90.3771 163.41Z" fill="white"/>
<path d="M90.375 163.408C90.3964 163.833 90.1571 164.192 89.841 164.207C89.5248 164.222 89.2535 163.888 89.2322 163.463C89.2108 163.038 89.4501 162.679 89.7662 162.664C90.0824 162.649 90.3558 162.983 90.375 163.408Z" fill="#132F33"/>
<path d="M95.5425 163.391C95.5746 164.066 95.1965 164.634 94.6966 164.659C94.1967 164.683 93.7631 164.155 93.731 163.48C93.699 162.805 94.0771 162.237 94.577 162.211C95.079 162.186 95.5105 162.713 95.5425 163.391Z" fill="white"/>
<path d="M95.5425 163.388C95.5639 163.813 95.3246 164.172 95.0085 164.187C94.6923 164.202 94.421 163.869 94.3996 163.444C94.3783 163.019 94.6175 162.66 94.9337 162.645C95.2499 162.63 95.5233 162.963 95.5425 163.388Z" fill="#132F33"/>
<path d="M89.1979 159.609C89.1979 159.609 87.8457 159.543 86.7818 160.919C86.7818 160.919 86.4529 161.303 86.8844 161.585C86.8844 161.585 87.1215 161.754 87.4419 161.453C87.4419 161.453 88.1362 160.652 89.3667 160.705C89.3667 160.705 89.8943 160.731 89.9563 160.25C89.9541 160.25 89.9627 159.614 89.1979 159.609Z" fill="#132F33"/>
<path d="M93.889 159.639C93.889 159.639 95.2348 159.496 96.3755 160.808C96.3755 160.808 96.7259 161.173 96.3115 161.479C96.3115 161.479 96.0829 161.66 95.7475 161.378C95.7475 161.378 95.0084 160.618 93.7843 160.744C93.7843 160.744 93.2588 160.799 93.1691 160.325C93.1691 160.325 93.1242 159.688 93.889 159.639Z" fill="#132F33"/>
<path d="M82.9432 160.872L83.1889 165.935C83.1889 165.935 81.3111 163.681 79.9354 164.689C79.9354 164.689 79.3928 162.196 79.6171 160.334C79.6171 160.334 77.169 157.134 80.9608 155.523C80.9608 155.523 80.9758 151.259 85.6092 152.113C85.6092 152.113 89.4672 148.012 93.165 152.436C93.165 152.436 98.1724 150.96 97.5507 155.988C97.5507 155.988 99.3772 157.018 98.1723 158.159C98.1723 158.159 98.4351 160.197 96.9782 161.498C96.9782 161.498 97.226 158.789 95.0535 156.58C95.0535 156.58 93.7119 157.824 92.0072 155.901C92.0072 155.901 91.6056 156.911 90.232 156.437C90.232 156.437 88.444 159.509 84.7013 157.518C84.7013 157.518 85.4319 158.652 83.6909 158.962C83.6952 158.96 84.6351 160.278 82.9432 160.872Z" fill="#132F33"/>
<path d="M88.8093 154.749C88.8093 154.749 88.1108 156.689 85.7844 156.578C85.7866 156.578 88.9823 158.056 88.8093 154.749ZM81.2449 156.738C81.2449 156.738 79.8308 157.27 80.1982 159.4C80.2003 159.4 78.6345 156.753 81.2449 156.738ZM96.6856 155.407C96.6856 155.407 96.2455 153.305 93.9213 153.6C93.9213 153.598 95.1219 154.41 96.6856 155.407ZM90.9883 152.436C90.9883 152.436 89.8539 150.419 87.4464 151.842C87.4464 151.844 89.4972 151.428 90.9883 152.436ZM96.9291 160.383C96.9291 160.383 97.711 159.178 97.0829 158.007C97.0829 158.007 97.1256 159.052 96.6578 159.212C96.6578 159.212 96.9077 159.979 96.9291 160.383Z" fill="#244A4F"/>
<path d="M83.5819 166.291C83.6545 167.789 82.7722 169.047 81.608 169.105C80.4459 169.163 79.444 167.994 79.3714 166.497C79.2987 164.999 80.181 163.741 81.3452 163.683C82.5074 163.625 83.5092 164.794 83.5819 166.291Z" fill="#76EEFF"/>
<path d="M80.5079 165.725C80.5079 165.725 81.8452 165.097 82.3622 166.83C82.3622 166.83 81.7363 165.984 80.9993 166.593" stroke="#132F33" stroke-width="0.213622" stroke-miterlimit="10"/>
<path d="M120.844 202.712L118.041 205.416C116.764 206.649 114.728 206.615 113.495 205.337L95.752 186.962C94.5194 185.684 94.5535 183.648 95.831 182.416L98.6337 179.711C99.9112 178.479 101.947 178.513 103.18 179.79L120.923 198.166C122.158 199.444 122.121 201.477 120.844 202.712Z" fill="#41E2F9"/>
<path d="M128.746 180.809L117.336 191.121L111.019 196.829C109.255 198.422 109.46 201.236 111.47 202.998L112.953 204.299C114.948 206.049 117.917 206.059 119.494 204.321L126.661 196.421L130.408 192.291L132.8 189.655L135.473 186.71L128.746 180.809Z" fill="#41E2F9"/>
<path d="M113.081 194.966L128.746 180.809L135.473 186.71L124.388 198.929" stroke="#331B13" stroke-width="0.213622" stroke-miterlimit="10"/>
<path d="M82.6398 177.135C82.6398 177.135 85.2844 179.314 88.3093 182.634C88.3093 182.634 90.8599 181.115 91.9708 177.135C91.9708 177.135 98.2684 178.182 101.881 178.968C101.881 178.968 104.395 185.411 104.551 201.123C104.551 201.123 105.023 219.663 105.807 223.749C105.807 223.749 94.3377 226.106 74.0671 223.749C74.0671 223.749 73.909 209.294 72.9669 201.595C72.9669 201.595 71.3391 185.475 72.9093 179.976C72.9135 179.974 77.9978 178.041 82.6398 177.135Z" fill="#41E2F9"/>
<path d="M88.3092 182.634C88.3092 182.634 91.7507 207.249 91.9707 223.171M83.8894 181.168C84.1842 181.378 86.3952 185.043 86.3952 185.043L88.3071 182.634L91.2765 184.484L92.3745 180.224M102.603 181.484C102.603 181.484 105.185 191.55 104.553 201.12C104.553 201.12 105.215 219.686 105.809 223.747" stroke="#132F33" stroke-width="0.213622" stroke-miterlimit="10"/>
<path d="M106.286 200.104C106.286 200.104 108.462 198.241 110.682 197.203C110.682 197.203 112.792 196.021 113.292 196.417C113.292 196.417 114.542 197.339 112.211 198.277C112.211 198.277 109.432 199.664 111.641 199.627L109.857 201.007L107.337 201.291L106.286 200.104Z" fill="#76EEFF"/>
<path d="M84.1287 209.986L82.1143 210.616C79.4782 211.441 76.6755 209.973 75.8509 207.339L69.2863 186.366C68.4617 183.732 69.9293 180.927 72.5632 180.102L72.8751 180.004C75.5112 179.179 78.3139 180.647 79.1407 183.281L86.2372 205.957C86.767 207.651 85.8228 209.456 84.1287 209.986Z" fill="#41E2F9"/>
<path d="M79.8691 185.609L83.9728 198.719" stroke="#132F33" stroke-width="0.213622" stroke-miterlimit="10"/>
<path d="M69.9036 188.342L75.2933 206.119" stroke="#132F33" stroke-width="0.213622" stroke-miterlimit="10"/>
<path d="M118.759 209.531L111.53 209.093C111.186 209.071 110.93 208.666 110.96 208.189L111.818 194.037C111.848 193.56 112.152 193.187 112.496 193.208L119.725 193.646C120.068 193.667 120.325 194.073 120.295 194.549L119.436 208.702C119.406 209.178 119.101 209.552 118.759 209.531Z" fill="#21474C" stroke="black" stroke-width="0.213622" stroke-miterlimit="10"/>
<path d="M119.874 209.559L112.645 209.121C112.301 209.099 112.045 208.693 112.075 208.217L112.931 194.065C112.961 193.588 113.265 193.214 113.609 193.236L120.838 193.674C121.181 193.695 121.438 194.101 121.408 194.577L120.549 208.73C120.521 209.206 120.216 209.578 119.874 209.559Z" fill="#5C7477" stroke="black" stroke-width="0.213622" stroke-miterlimit="10"/>
<path d="M120.603 195.056C120.697 195.425 120.474 195.799 120.105 195.893C119.735 195.987 119.361 195.765 119.267 195.395C119.173 195.026 119.396 194.652 119.765 194.558C120.133 194.464 120.509 194.686 120.603 195.056ZM120.214 197.036C120.092 197.241 119.829 197.307 119.624 197.188C119.419 197.066 119.353 196.803 119.472 196.598C119.594 196.393 119.857 196.327 120.062 196.446C120.267 196.566 120.336 196.831 120.214 197.036Z" fill="#122528"/>
<path d="M102.5 201.274L107.243 199.715L112.79 199.606L118.592 198.942C118.592 198.942 119.5 198.89 119.731 199.441C119.731 199.441 120.058 200.144 118.902 200.499L113.66 201.796C113.66 201.796 114.463 204.618 113.935 206.19C113.935 206.19 113.604 207.533 111.479 207.324C111.479 207.324 104.95 206.972 102.692 206.273L102.5 201.274Z" fill="#76EEFF"/>
<path d="M120.34 201.479C120.12 200.969 119.176 201.048 119.176 201.048L113.374 201.832C113.337 201.847 113.295 201.858 113.245 201.858C111.962 201.892 111.447 203.257 112.352 203.981C112.491 204.092 112.652 204.156 112.827 204.188C113.209 204.133 113.591 204.043 113.974 203.97C113.961 203.919 113.953 203.889 113.953 203.889L119.443 202.498C120.658 202.127 120.34 201.479 120.34 201.479Z" fill="#76EEFF"/>
<path d="M120.021 203.554C119.848 203.041 118.932 203.041 118.932 203.041L113.271 203.325C113.235 203.338 113.192 203.342 113.145 203.34C111.904 203.267 111.297 204.549 112.115 205.327C112.239 205.446 112.391 205.521 112.558 205.566C112.931 205.542 113.305 205.487 113.683 205.449C113.675 205.397 113.668 205.369 113.668 205.369L119.077 204.47C120.276 204.209 120.021 203.554 120.021 203.554Z" fill="#76EEFF"/>
<path d="M119.02 205.408C118.855 204.923 117.981 204.923 117.981 204.923L112.587 205.199C112.551 205.209 112.513 205.216 112.468 205.214C111.286 205.145 110.705 206.361 111.483 207.096C111.603 207.209 111.746 207.279 111.904 207.322C112.327 207.367 112.876 207.202 112.876 207.202L118.118 206.275C119.261 206.027 119.02 205.408 119.02 205.408Z" fill="#76EEFF"/>
<path d="M103.267 199.095L87.8927 199.444L79.382 199.636C77.0044 199.689 75.321 201.954 75.6906 204.6L75.9619 206.553C76.3272 209.18 78.5702 211.129 80.8987 210.845L91.4858 209.55L97.0208 208.873L100.554 208.441L104.502 207.959L103.267 199.095Z" fill="#41E2F9"/>
<path d="M82.1589 199.572L103.267 199.095L104.502 207.956L88.1275 209.96" stroke="#331B13" stroke-width="0.213622" stroke-miterlimit="10"/>
</svg>
