<svg width="335" height="384" viewBox="0 0 335 384" fill="none" xmlns="http://www.w3.org/2000/svg">
<path fill-rule="evenodd" clip-rule="evenodd" d="M144.225 34.5001C183.313 34.4398 201.202 81.247 231.105 106.406C266.584 136.256 323.47 147.859 332.902 193.241C343.042 242.032 315.152 293.934 276.661 325.608C240.706 355.195 190.792 349.29 144.225 348.5C98.8721 347.731 45.5604 355.755 16.2094 321.19C-12.5078 287.371 3.98099 236.795 12.3872 193.241C18.8004 160.013 35.9868 132.712 57.6124 106.674C82.5707 76.6224 105.149 34.5603 144.225 34.5001Z" fill="#036A79" fill-opacity="0.05"/>
<path d="M251.372 281.838C251.372 284.139 223.759 286.057 189.625 286.057C155.555 286.057 127.878 284.139 127.878 281.838C127.878 279.537 155.491 277.619 189.625 277.619C223.759 277.619 251.372 279.537 251.372 281.838ZM126.408 298.649C126.408 300.95 108.702 302.868 86.9048 302.868C65.108 302.868 47.402 300.95 47.402 298.649C47.402 296.348 65.108 294.43 86.9048 294.43C108.702 294.43 126.408 296.348 126.408 298.649ZM4 267.264H331.273C327.629 222.52 319.895 201.234 296.116 218.493C263.325 242.207 259.938 215.425 247.601 212.868C218.261 206.923 211.102 239.331 180.612 216.192C177.864 214.146 174.54 212.548 170.832 211.717C157.217 208.713 151.337 218.301 143.794 212.42C122.956 196.121 105.442 218.045 97.4517 224.246C70.0298 245.403 36.4077 205.453 19.277 214.466C11.4148 218.621 7.38778 226.483 4 267.264Z" fill="#F5F5F5"/>
<path d="M241.528 81.2557H144.881C141.621 81.2557 139 83.8765 139 87.1364V275.957C139 277.236 139.384 278.386 140.087 279.345C141.173 280.879 142.899 281.838 144.881 281.838H241.464C244.724 281.838 247.345 279.217 247.345 275.957V87.1364C247.409 83.8765 244.788 81.2557 241.528 81.2557Z" fill="white"/>
<path d="M174.668 81.2557L178.375 89.7572C178.886 90.9077 180.037 91.6748 181.251 91.6748H205.477C206.756 91.6748 207.842 90.9077 208.354 89.7572L212.061 81.2557H174.668ZM139 107.271H148.844L142.835 121.334H131.649L139 107.271ZM148.844 107.271H158.688L154.021 121.334H142.835L148.844 107.271Z" fill="white"/>
<path d="M158.688 107.271H168.531L165.208 121.334H154.021L158.688 107.271Z" fill="white"/>
<path d="M168.531 107.271H178.439L176.394 121.334H165.208L168.531 107.271Z" fill="white"/>
<path d="M178.439 107.271H188.283L187.58 121.334H176.394L178.439 107.271ZM188.283 107.271H198.127L198.766 121.334H187.58L188.283 107.271Z" fill="white"/>
<path d="M198.126 107.271H207.97L209.952 121.334H198.766L198.126 107.271ZM207.97 107.271H217.814L221.202 121.334H209.952L207.97 107.271Z" fill="white"/>
<path d="M217.814 107.271H227.722L232.388 121.334H221.202L217.814 107.271Z" fill="white"/>
<path d="M227.722 107.271H237.565L243.574 121.334H232.388L227.722 107.271Z" fill="white"/>
<path d="M237.565 107.271H247.409L254.76 121.334H243.574L237.565 107.271Z" fill="white"/>
<path d="M137.21 128.876C140.278 128.876 142.835 126.384 142.835 123.251V121.27H131.649V123.251C131.649 126.384 134.142 128.876 137.21 128.876Z" fill="#67CCDB"/>
<path d="M148.396 128.876C151.464 128.876 154.021 126.384 154.021 123.251V121.27H142.835V123.251C142.835 126.384 145.328 128.876 148.396 128.876Z" fill="white"/>
<path d="M159.646 128.876C162.714 128.876 165.271 126.384 165.271 123.251V121.27H154.085V123.251C154.021 126.384 156.514 128.876 159.646 128.876Z" fill="#67CCDB"/>
<path d="M170.832 128.876C173.9 128.876 176.457 126.384 176.457 123.251V121.27H165.271V123.251C165.207 126.384 167.7 128.876 170.832 128.876Z" fill="white"/>
<path d="M182.018 128.876C185.087 128.876 187.643 126.384 187.643 123.251V121.27H176.457V123.251C176.393 126.384 178.886 128.876 182.018 128.876Z" fill="#67CCDB"/>
<path d="M193.204 128.876C196.273 128.876 198.829 126.384 198.829 123.251V121.27H187.643V123.251C187.579 126.384 190.072 128.876 193.204 128.876Z" fill="white"/>
<path d="M204.391 128.876C207.459 128.876 210.016 126.384 210.016 123.251V121.27H198.83V123.251C198.766 126.384 201.322 128.876 204.391 128.876Z" fill="#67CCDB"/>
<path d="M215.577 128.876C218.645 128.876 221.202 126.384 221.202 123.251V121.27H210.016V123.251C209.952 126.384 212.508 128.876 215.577 128.876Z" fill="white"/>
<path d="M226.763 128.876C229.831 128.876 232.388 126.384 232.388 123.251V121.27H221.202V123.251C221.202 126.384 223.695 128.876 226.763 128.876Z" fill="#67CCDB"/>
<path d="M237.949 128.876C241.017 128.876 243.574 126.384 243.574 123.251V121.27H232.388V123.251C232.388 126.384 234.881 128.876 237.949 128.876Z" fill="white"/>
<path d="M249.135 128.876C252.203 128.876 254.76 126.384 254.76 123.251V121.27H243.574V123.251C243.574 126.384 246.067 128.876 249.135 128.876Z" fill="#67CCDB"/>
<path d="M101.159 286.824L102.437 295.773L93.9999 294.814L92.1462 286.952C94.3835 286.44 99.0497 287.847 101.159 286.824Z" fill="white"/>
<path d="M100.52 292.065C100.584 291.362 101.159 290.787 101.862 290.787C102.438 290.787 102.885 291.17 103.013 291.682L103.844 294.367L112.345 297.371C113.496 297.754 114.199 298.905 114.135 300.119C114.135 300.311 113.943 300.439 113.751 300.439L89.7174 300.055C89.5256 300.055 89.3978 299.864 89.3978 299.672L89.5895 296.412C89.5895 296.412 89.9091 292.321 93.233 291.554C93.233 291.554 94.7032 295.006 98.027 294.75C100.136 294.558 100.52 292.065 100.52 292.065ZM62.2316 285.993L61.7202 293.727L69.902 294.686L70.4773 285.801L62.2316 285.993Z" fill="white"/>
<path d="M69.3267 291.043C69.3907 290.34 69.966 289.764 70.6691 289.764C71.2444 289.764 71.6918 290.148 71.8196 290.659L72.6506 293.344L81.152 296.348C82.3026 296.732 83.0057 297.882 82.9418 299.097C82.9418 299.288 82.75 299.416 82.5583 299.416L58.5242 299.033C58.3324 299.033 58.2046 298.841 58.2046 298.649L58.3964 295.389C58.3964 295.389 58.716 291.298 62.0398 290.531C62.0398 290.531 63.51 293.983 66.8339 293.727C68.9432 293.6 69.3267 291.043 69.3267 291.043Z" fill="white"/>
<path d="M102.31 287.591C102.31 287.91 102.054 288.23 101.734 288.23L93.4247 287.974C91.8267 287.91 90.4843 286.824 90.1008 285.226L89.7812 283.692L80.321 219.452L71.3721 286.121C71.3082 286.76 70.7329 287.271 70.0937 287.271L62.4233 287.016C61.1448 286.952 60.186 285.929 60.186 284.651L62.8068 195.162L81.0241 195.737C84.0284 192.733 86.7769 191.774 89.3338 192.03C91.2514 192.222 93.0412 193.116 94.767 194.395C95.534 194.906 96.2372 195.545 96.9403 196.185L102.31 287.591Z" fill="#67CCDB"/>
<path d="M64.8522 275.638C65.4275 279.729 67.7926 283.372 68.4957 287.143L62.4233 286.952C61.1448 286.888 60.186 285.865 60.186 284.587L62.8068 195.162L71.436 195.418C72.8423 198.486 72.6505 202.257 72.0113 205.645C71.2443 209.672 69.838 213.571 69.7741 217.598C69.6463 224.182 73.0341 230.51 72.1392 237.094C71.5639 241.185 69.3906 244.956 68.1122 248.919C67.0255 252.307 66.5781 255.886 66.1946 259.402C64.8522 269.949 64.4048 272.633 64.8522 275.638ZM101.862 287.591C101.862 287.91 101.606 288.23 101.287 288.23L94.8309 288.038C94.5752 282.797 95.2784 256.845 94 247.193C93.4247 242.783 92.2741 238.372 92.2741 233.898C92.2102 228.464 93.7443 223.031 93.4247 217.662C93.1051 211.845 90.6761 206.22 91.571 200.403C91.8906 198.23 92.7855 196.057 94.3835 194.523C95.1505 195.034 95.8537 195.673 96.5568 196.312L101.862 287.591Z" fill="#2697A8"/>
<path d="M101.926 287.591C101.926 287.91 101.67 288.23 101.351 288.23L94.8948 288.038C94.6392 282.797 95.3423 256.845 94.0639 247.193C93.4886 242.783 92.338 238.372 92.338 233.898C92.2741 228.464 93.8082 223.031 93.4886 217.662C93.169 211.845 90.74 206.22 91.6349 200.403C91.9545 198.23 92.8494 196.057 94.4474 194.523C95.2144 195.034 95.9176 195.673 96.6207 196.312L101.926 287.591Z" fill="#2697A8"/>
<path d="M41.3296 157.001C41.7131 158.28 48.0412 178.287 54.1137 179.118C55.8395 179.374 65.875 168.955 65.875 168.955L61.2728 205.134C66.5143 207.243 72.2032 208.394 78.2117 208.394C85.6904 208.394 92.7856 206.604 98.9858 203.408C97.6435 195.673 95.2145 173.173 95.1506 172.918C95.4063 173.173 104.163 181.355 106.784 181.867C110.619 182.697 120.144 157.001 120.271 156.554C120.144 156.618 117.395 157.385 115.03 156.298C112.665 155.148 111.578 152.399 111.578 152.399L104.611 164.352C104.611 164.352 101.287 150.418 97.8353 147.286C95.4063 145.048 88.5668 143.578 85.3069 143.322C83.2614 143.131 79.0427 143.131 76.9972 143.322C72.9702 143.706 65.0441 145.624 62.1037 148.308C59.2273 150.993 55.0725 162.307 55.0725 162.307L46.5071 150.609C46.5071 150.865 46.3793 153.038 45.037 154.764C43.6307 156.426 41.3296 157.001 41.3296 157.001ZM111.706 127.726L104.93 147.861C104.739 148.372 105.122 148.948 105.697 148.884L116.5 148.756C116.82 148.756 117.139 148.564 117.267 148.18L124.043 127.982C124.234 127.47 123.851 126.895 123.276 126.959L112.473 127.087C112.09 127.151 111.77 127.406 111.706 127.726Z" fill="white"/>
<path d="M75.7188 143.45C75.7188 146.582 78.2116 149.075 81.3438 149.075C84.4119 149.075 86.9688 146.582 86.9688 143.45C86.0739 143.322 85.179 143.259 84.2841 143.195L84.0284 139.807C84.0284 139.807 85.3068 140.702 85.7543 140.83C91.1236 142.683 88.5668 123.955 86.1378 123.379C83.7727 122.804 79.1065 133.479 79.1065 133.479L78.0199 136.163V143.195C77.1889 143.259 76.4858 143.322 75.7188 143.45ZM111.45 152.463C112.153 153.997 113.432 155.659 115.094 156.362V156.298C115.094 156.298 116.756 154.956 118.034 153.55C118.609 152.911 119.888 151.568 120.271 150.801C121.805 147.733 123.02 140.638 121.678 137.25C121.486 136.803 121.294 136.611 121.038 136.611C120.719 136.547 120.399 136.866 120.399 137.058C120.655 138.592 119.504 142.683 119.504 142.747C119.504 142.747 119.696 137.953 119.249 136.419C118.993 135.524 118.162 135.524 117.906 136.611C117.523 138.145 117.459 142.747 117.459 142.811C117.459 142.811 117.203 141.277 117.011 140.83C116.756 140.126 116.053 138.848 115.541 138.337C114.582 137.25 113.751 138.017 114.199 139.487C114.518 140.382 115.605 141.788 115.797 142.683C115.989 143.578 115.413 146.327 115.413 146.327C115.413 146.327 114.646 143.322 114.007 143.195C113.624 143.131 113.304 144.026 113.304 144.409C113.304 145.304 114.071 147.605 114.071 147.669L111.514 152.399L111.45 152.463Z" fill="white"/>
<path d="M80.5767 133.99C80.321 133.031 79.3622 132.392 78.4034 132.648C77.4446 132.903 76.8054 133.862 77.0611 134.821C77.3168 135.78 78.2756 136.419 79.2983 136.163L80.5767 133.99ZM34.4261 152.335C36.4716 153.422 38.4531 153.933 41.3295 154.764C41.3935 154.764 42.7997 155.531 43.4389 155.915C45.2287 154.636 45.9318 152.974 46.1875 150.801C46.1236 150.737 44.3338 148.947 44.206 148.756C43.1193 147.222 41.2656 144.473 41.0739 143.386C40.6903 141.277 38.1974 143.195 39.7954 147.413C39.7954 147.413 35.8324 145.56 34.554 144.09C33.5312 142.875 32.5085 144.601 34.8736 146.519C33.9148 145.943 33.0199 145.304 32.5724 144.793C31.7415 143.77 30.8466 144.857 31.9972 146.391C31.294 145.879 30.7827 147.094 31.8054 148.436C31.8054 148.436 31.8054 148.5 31.8693 148.5L31.8054 148.436C30.527 147.03 29.3125 149.587 34.4261 152.335Z" fill="white"/>
<path d="M32.2528 146.327C32.2528 146.327 33.2755 147.286 34.4261 147.861L32.2528 146.327ZM32.061 148.372C32.061 148.372 32.9559 149.267 34.1065 149.842L32.061 148.372ZM40.0511 147.35C40.0511 147.35 39.9872 148.948 41.2656 149.395L40.0511 147.35Z" fill="white"/>
<path d="M17.5511 182.378C17.6151 183.528 18.5739 184.487 19.7244 184.487H32.8281V155.531H23.5597C22.7287 155.531 21.9617 156.043 21.5781 156.746C21.5142 156.937 21.3864 157.129 21.3864 157.385L17.5511 181.93V182.378Z" fill="#67CCDB"/>
<path d="M21.7059 156.682L23.4318 160.133L28.2897 155.467H23.6875C22.8565 155.467 22.0895 155.979 21.7059 156.682ZM17.4872 182.378C17.5511 183.528 18.5099 184.487 19.6605 184.487H25.4133L20.2997 179.31L17.4872 182.378Z" fill="white"/>
<path d="M27.1392 157.129L23.2401 182.122C23.0483 183.337 24.0071 184.423 25.2216 184.423H53.4745C54.689 184.423 55.6478 183.337 55.456 182.122L51.5569 157.129C51.429 156.17 50.598 155.467 49.5753 155.467H29.1208C28.098 155.467 27.2671 156.17 27.1392 157.129Z" fill="white"/>
<path d="M14.4829 256.781C14.4829 256.781 17.4872 256.845 19.3409 261.32C21.1946 265.794 24.1349 269.31 29.1207 266.497C29.1207 266.497 32.1889 264.516 29.3764 260.808C26.8835 257.42 21.0667 253.969 14.4829 256.781ZM26.2443 236.263C27.7784 234.793 30.2713 234.665 31.8693 236.135C32.7002 236.902 33.2755 238.116 32.7642 239.97C31.6136 244.317 30.9744 244.572 31.6775 247.641C32.3806 250.709 33.4034 257.484 30.3991 258.187C26.1164 259.146 23.4957 251.412 23.4957 251.412C23.4957 251.412 22.0894 247.065 23.8792 240.865C24.4545 238.5 25.3494 237.094 26.2443 236.263Z" fill="#67CCDB"/>
<path d="M48.105 251.923C48.105 251.923 44.5894 250.07 41.0099 254.736C37.4942 259.338 34.6817 258.571 33.7869 257.74C32.892 256.909 32.3167 253.138 33.7869 250.645C35.257 248.152 38.5809 247.832 42.2244 248.344C45.8678 248.855 47.5937 250.645 48.105 251.923Z" fill="#67CCDB"/>
<path d="M42.9276 273.209L39.6037 288.23C39.412 289.061 38.7088 289.636 37.814 289.636H26.564C25.733 289.636 24.9659 289.061 24.7742 288.23L21.4503 273.209H42.9276Z" fill="white"/>
<path d="M20.1719 269.885V273.273C20.1719 273.592 20.4276 273.848 20.7472 273.848H43.6307C43.9503 273.848 44.206 273.592 44.206 273.273V269.885C44.206 269.565 43.9503 269.31 43.6307 269.31H20.7472C20.4276 269.31 20.1719 269.565 20.1719 269.885Z" fill="white"/>
<path d="M44.206 272.634V273.209C44.206 273.528 43.9503 273.784 43.6307 273.784H20.7472C20.4276 273.784 20.1719 273.528 20.1719 273.209V272.634H44.206Z" fill="#E1E4E5"/>
<path d="M23.3679 101.135V122.229C23.3679 123.955 24.7742 125.361 26.5 125.361H58.3324L64.4049 130.602V125.361H66.1307C67.8566 125.361 69.2628 123.955 69.2628 122.229V101.135C69.2628 99.4091 67.8566 98.0028 66.1307 98.0028H26.5C24.7742 97.9389 23.3679 99.3452 23.3679 101.135Z" fill="white"/>
<path d="M25.5411 102.222V120.375C25.5411 121.334 26.3082 122.037 27.2031 122.037H64.5326C65.4914 122.037 66.1946 121.27 66.1946 120.375V102.222C66.1946 101.263 65.4275 100.56 64.5326 100.56H27.2031C26.2443 100.56 25.5411 101.327 25.5411 102.222Z" fill="#67CCDB"/>
<path d="M148.077 144.984V171.511C148.077 172.726 149.035 173.749 150.314 173.749H178.055C179.27 173.749 180.293 172.79 180.293 171.511V144.984C180.293 143.77 179.334 142.747 178.055 142.747H150.314C149.099 142.811 148.077 143.77 148.077 144.984Z" fill="white"/>
<path d="M150.506 147.03V169.594C150.506 170.617 151.337 171.447 152.359 171.447H175.946C176.969 171.447 177.8 170.617 177.8 169.594V147.03C177.8 146.007 176.969 145.176 175.946 145.176H152.359C151.337 145.112 150.506 145.943 150.506 147.03Z" fill="#67CCDB"/>
<path d="M148.077 184.295V210.822C148.077 212.037 149.035 213.06 150.314 213.06H178.055C179.27 213.06 180.293 212.101 180.293 210.822V184.295C180.293 183.081 179.334 182.058 178.055 182.058H150.314C149.099 182.122 148.077 183.081 148.077 184.295Z" fill="white"/>
<path d="M150.506 186.277V208.841C150.506 209.864 151.337 210.695 152.359 210.695H175.946C176.969 210.695 177.8 209.864 177.8 208.841V186.277C177.8 185.254 176.969 184.423 175.946 184.423H152.359C151.337 184.423 150.506 185.254 150.506 186.277Z" fill="#67CCDB"/>
<path d="M148.077 223.606V250.133C148.077 251.348 149.035 252.371 150.314 252.371H178.055C179.27 252.371 180.293 251.412 180.293 250.133V223.606C180.293 222.392 179.334 221.369 178.055 221.369H150.314C149.099 221.369 148.077 222.392 148.077 223.606Z" fill="white"/>
<path d="M150.506 225.588V248.152C150.506 249.175 151.337 250.006 152.359 250.006H175.946C176.969 250.006 177.8 249.175 177.8 248.152V225.588C177.8 224.565 176.969 223.734 175.946 223.734H152.359C151.337 223.734 150.506 224.565 150.506 225.588Z" fill="#67CCDB"/>
<path d="M171.216 156.682L163.162 165.439C161.756 166.973 159.263 166.973 157.601 165.439C155.939 163.905 155.747 161.412 157.153 159.878L165.207 151.121C166.614 149.587 169.107 149.587 170.768 151.121C172.43 152.655 172.622 155.148 171.216 156.682Z" fill="white"/>
<path d="M167.189 161.092L171.216 156.746C172.622 155.212 172.43 152.719 170.768 151.185C169.107 149.651 166.614 149.651 165.207 151.185L161.18 155.531L167.189 161.092ZM169.298 196.952V208.521C169.298 208.841 169.043 209.097 168.723 209.097H159.582C159.263 209.097 159.007 208.841 159.007 208.521V196.952C159.007 195.673 160.03 194.587 161.372 194.587C161.628 194.587 161.82 194.459 162.011 194.331C162.203 194.139 162.267 193.947 162.267 193.692V193.244H166.102V193.692C166.102 194.203 166.486 194.587 166.997 194.587C167.317 194.587 167.636 194.651 167.892 194.778C168.723 195.162 169.298 195.993 169.298 196.952Z" fill="white"/>
<path d="M169.298 196.952V208.521C169.298 208.841 169.043 209.097 168.723 209.097H159.582C159.263 209.097 159.007 208.841 159.007 208.521V206.476C159.582 206.412 160.222 206.348 160.797 206.284C161.947 206.22 163.226 206.156 163.993 205.325C164.824 204.43 164.824 203.024 165.719 202.193C166.038 201.874 166.422 201.682 166.678 201.426C167.253 200.787 167.253 199.892 167.253 199.061V196.888C167.253 196.185 167.317 195.354 167.892 194.906C168.723 195.162 169.298 195.993 169.298 196.952Z" fill="#F5F5F5"/>
<path d="M166.869 191.646V192.989C166.869 193.18 166.741 193.308 166.55 193.308H161.82C161.628 193.308 161.5 193.18 161.5 192.989V191.646C161.5 191.455 161.628 191.327 161.82 191.327H166.55C166.678 191.327 166.869 191.455 166.869 191.646ZM159.007 199.7H169.298V204.047H159.007V199.7Z" fill="#67CCDB"/>
<path d="M165.655 191.327H162.331L163.993 186.98L165.655 191.327Z" fill="white"/>
<path d="M45.0025 175.685C48.2313 172.474 48.2857 167.294 45.124 164.115C41.9623 160.936 36.7817 160.963 33.5529 164.174C30.3241 167.386 30.2697 172.566 33.4314 175.745C36.5931 178.923 41.7737 178.897 45.0025 175.685Z" fill="white"/>
<path d="M42.8637 172.151C42.7358 172.342 42.608 172.47 42.4162 172.47C42.2245 172.534 42.0327 172.47 41.8409 172.406L39.8594 171.256V173.557C39.8594 174.004 39.5398 174.324 39.0924 174.324C38.6449 174.324 38.3253 174.004 38.3253 173.557V171.256L36.2799 172.47C36.0881 172.534 35.8963 172.598 35.7046 172.534C35.5128 172.47 35.3211 172.342 35.2571 172.215C35.1932 172.023 35.1293 171.831 35.1932 171.639C35.2571 171.447 35.385 171.256 35.5767 171.192L37.6222 170.041L35.6407 168.891C35.2571 168.699 35.1932 168.251 35.385 167.868C35.5767 167.484 36.0242 167.421 36.4077 167.612L38.3892 168.763V166.398C38.3892 165.95 38.7088 165.631 39.1563 165.631C39.5398 165.631 39.9233 165.95 39.9233 166.398V168.699L41.9049 167.548C42.2884 167.357 42.7358 167.484 42.9276 167.804C43.1194 168.188 42.9915 168.635 42.6719 168.827L40.6265 169.977L42.6719 171.128C42.9276 171.32 43.0554 171.767 42.8637 172.151Z" fill="#67CCDB"/>
<path d="M169.298 229.935V245.787C169.298 246.043 169.107 246.234 168.851 246.234H159.455C159.199 246.234 159.007 246.043 159.007 245.787V229.935H169.298ZM157.984 227.442H170.385V229.935H157.984V227.442Z" fill="white"/>
<path d="M169.298 234.089V240.226H165.015C164.888 240.226 164.76 240.098 164.76 239.97V234.345C164.76 234.217 164.888 234.089 165.015 234.089H169.298ZM179.461 267.264C179.461 269.246 177.863 270.908 175.818 270.908C173.773 270.908 172.175 269.31 172.175 267.264C172.175 265.219 173.773 263.621 175.818 263.621C177.863 263.621 179.461 265.283 179.461 267.264Z" fill="white"/>
<path d="M196.848 267.264C196.848 269.246 195.25 270.908 193.205 270.908C191.159 270.908 189.561 269.31 189.561 267.264C189.561 265.219 191.159 263.621 193.205 263.621C195.25 263.621 196.848 265.283 196.848 267.264Z" fill="#F5F5F5"/>
<path d="M214.17 267.264C214.17 269.246 212.572 270.908 210.527 270.908C208.482 270.908 206.884 269.31 206.884 267.264C206.884 265.219 208.482 263.621 210.527 263.621C212.572 263.621 214.17 265.283 214.17 267.264ZM232.899 237.669C233.538 237.669 233.986 237.158 233.986 236.582L233.794 217.854C233.73 212.868 237.821 208.777 242.807 208.777C247.857 208.777 251.947 212.868 251.947 217.854L252.139 236.582C252.139 237.222 252.651 237.669 253.226 237.669C253.865 237.669 254.313 237.158 254.313 236.582L254.121 217.854C254.057 211.59 248.943 206.54 242.743 206.54C236.543 206.54 231.493 211.59 231.557 217.854L231.749 236.582C231.813 237.158 232.324 237.669 232.899 237.669Z" fill="white"/>
<path d="M280.967 221.689L281.543 291.298H219.923L219.284 221.689H280.967Z" fill="white"/>
<path d="M281.031 227.825L281.607 291.298H234.689C235.328 288.742 237.438 286.888 239.867 285.801C242.04 284.842 245.683 286.185 246.834 284.075C247.665 282.541 244.533 281.71 243.318 280.496C241.273 278.45 244.533 275.446 246.834 273.784C249.199 272.122 251.947 270.972 253.865 268.862C257.317 265.091 257.189 259.338 258.467 254.352C259.81 249.303 263.006 244.445 266.585 238.436C267.48 236.902 268.439 235.304 269.59 233.898C272.082 230.893 276.621 228.145 281.031 227.825Z" fill="#F5F5F5"/>
<path d="M234.305 221.753L234.945 291.362H219.795L219.156 221.753H234.305Z" fill="#46B6C6"/>
<path d="M234.241 221.817L234.817 291.49H219.668L219.092 221.817H234.241Z" fill="#46B6C6"/>
<path d="M230.598 291.298H219.859L219.22 221.625H227.594C227.594 223.031 227.082 224.374 226.06 225.524C224.59 227.122 222.672 228.528 222.161 230.638C221.393 233.578 223.759 236.455 224.334 239.459C225.165 243.23 223.183 247.001 221.777 250.581C220.307 254.161 219.412 258.635 221.841 261.639C223.311 263.493 225.74 264.452 226.891 266.497C228.425 269.31 226.891 272.761 227.274 275.957C227.594 278.578 229.32 280.879 230.278 283.372C231.237 285.929 231.301 288.678 230.598 291.298Z" fill="#2697A8"/>
<path d="M235.073 291.298H219.859L227.402 280.112L235.073 291.298ZM219.284 221.689H234.433L226.955 232.811L219.284 221.689ZM246.131 237.669C246.77 237.669 247.217 237.158 247.217 236.582L247.026 217.854C246.962 212.868 251.053 208.777 256.038 208.777C261.024 208.777 265.179 212.868 265.179 217.854L265.371 236.582C265.371 237.222 265.882 237.669 266.457 237.669C267.097 237.669 267.544 237.158 267.544 236.582L267.352 217.854C267.288 211.653 262.175 206.54 255.975 206.54C249.774 206.54 244.725 211.59 244.788 217.854L244.98 236.582C245.044 237.158 245.555 237.669 246.131 237.669Z" fill="white"/>
<path d="M248.368 236.263C248.368 237.477 247.409 238.5 246.195 238.5C244.98 238.5 243.958 237.477 243.958 236.263C243.958 235.048 244.916 234.026 246.195 234.026C247.345 234.026 248.368 234.984 248.368 236.263ZM268.759 236.263C268.759 237.477 267.8 238.5 266.585 238.5C265.371 238.5 264.348 237.477 264.348 236.263C264.348 235.048 265.307 234.026 266.585 234.026C267.736 234.026 268.759 234.984 268.759 236.263ZM244.469 263.621C244.469 270.588 250.094 276.213 257.061 276.213C264.029 276.213 269.654 270.588 269.654 263.621C269.654 256.653 264.029 251.028 257.061 251.028C250.094 251.028 244.469 256.653 244.469 263.621Z" fill="#46B6C6"/>
<path d="M262.622 266.945C262.303 267.456 261.599 267.648 261.088 267.328L258.084 265.602L258.02 269.054C258.02 269.693 257.509 270.205 256.869 270.205C256.23 270.205 255.783 269.693 255.783 269.054L255.847 265.602L252.778 267.392C252.203 267.712 251.564 267.456 251.244 266.945C250.925 266.433 251.116 265.73 251.692 265.41L254.696 263.685L251.756 261.959C251.244 261.639 251.053 261 251.372 260.425C251.692 259.849 252.395 259.722 252.906 260.041L255.91 261.767L255.974 258.251C255.974 257.612 256.486 257.101 257.125 257.101C257.764 257.101 258.212 257.612 258.212 258.251L258.148 261.703L261.152 259.977C261.663 259.658 262.366 259.849 262.686 260.361C263.006 260.872 262.814 261.575 262.239 261.895L259.234 263.621L262.303 265.41C262.75 265.73 262.942 266.433 262.622 266.945Z" fill="white"/>
<path d="M328.652 262.662V287.655C328.652 289.7 326.99 291.298 325.009 291.298H277.899C275.918 291.298 274.256 289.7 274.256 287.655V262.662H328.652Z" fill="#67CCDB"/>
<path d="M330.825 260.361C330.825 261.575 329.803 262.598 328.588 262.598H274.384C273.105 262.598 272.146 261.575 272.146 260.361C272.146 259.082 273.169 258.124 274.384 258.124H328.524C329.803 258.124 330.825 259.146 330.825 260.361Z" fill="white"/>
<path d="M276.365 258.124H326.607C326.607 255.822 324.753 253.969 322.452 253.969H280.456C278.219 254.033 276.365 255.822 276.365 258.124Z" fill="#67CCDB"/>
<path d="M307.93 283.444C311.559 279.834 311.615 274.006 308.055 270.427C304.495 266.848 298.667 266.872 295.038 270.482C291.409 274.092 291.353 279.92 294.913 283.499C298.473 287.078 304.301 287.054 307.93 283.444Z" fill="white"/>
<path d="M305.641 279.409C305.385 279.793 304.938 279.92 304.49 279.729L302.317 278.45V280.943C302.317 281.391 301.933 281.774 301.486 281.774C301.038 281.774 300.655 281.391 300.655 280.943V278.386L298.418 279.665C297.97 279.92 297.523 279.729 297.267 279.345C297.075 278.962 297.203 278.45 297.587 278.259L299.824 276.98L297.651 275.702C297.267 275.446 297.139 274.999 297.331 274.615C297.587 274.232 298.034 274.104 298.482 274.295L300.655 275.574V272.953C300.655 272.506 301.038 272.122 301.486 272.122C301.933 272.122 302.317 272.506 302.317 272.953V275.51L304.49 274.232C304.874 273.976 305.385 274.168 305.577 274.551C305.768 274.935 305.641 275.446 305.257 275.638L303.02 276.916L305.257 278.195C305.705 278.514 305.832 279.026 305.641 279.409Z" fill="#67CCDB"/>
<path d="M63.1264 104.714H29.5682C29.4403 104.714 29.3125 104.587 29.3125 104.523C29.3125 104.459 29.4403 104.331 29.5682 104.331H63.1264C63.2543 104.331 63.3821 104.459 63.3821 104.523C63.3821 104.587 63.2543 104.714 63.1264 104.714ZM63.1264 109.253H29.5682C29.4403 109.253 29.3125 109.125 29.3125 109.061C29.3125 108.997 29.4403 108.869 29.5682 108.869H63.1264C63.2543 108.869 63.3821 108.997 63.3821 109.061C63.3821 109.125 63.2543 109.253 63.1264 109.253ZM63.1264 113.855H29.5682C29.4403 113.855 29.3125 113.727 29.3125 113.663C29.3125 113.599 29.4403 113.472 29.5682 113.472H63.1264C63.2543 113.472 63.3821 113.599 63.3821 113.663C63.3821 113.727 63.2543 113.855 63.1264 113.855ZM45.2926 118.393H29.5682C29.4403 118.393 29.3125 118.266 29.3125 118.202C29.3125 118.138 29.4403 118.01 29.5682 118.01H45.3565C45.4844 118.01 45.6122 118.138 45.6122 118.202C45.6122 118.266 45.4205 118.393 45.2926 118.393Z" fill="white"/>
<path d="M242.423 84.6434H235.264C235.136 84.6434 235.008 84.7713 235.008 84.8352C235.008 84.8991 235.136 85.027 235.264 85.027H242.423C242.551 85.027 242.679 84.8991 242.679 84.8352C242.679 84.7713 242.551 84.6434 242.423 84.6434ZM242.423 86.7528H235.264C235.136 86.7528 235.008 86.8806 235.008 86.9446C235.008 87.0085 235.136 87.1363 235.264 87.1363H242.423C242.551 87.1363 242.679 87.0085 242.679 86.9446C242.679 86.8806 242.551 86.7528 242.423 86.7528ZM242.423 88.9261H235.264C235.136 88.9261 235.008 89.0539 235.008 89.1179C235.008 89.1818 235.136 89.3096 235.264 89.3096H242.423C242.551 89.3096 242.679 89.1818 242.679 89.1179C242.679 89.0539 242.551 88.9261 242.423 88.9261ZM184.895 87.7116H196.4C197.104 87.7116 197.679 87.1363 197.679 86.4332C197.679 85.7301 197.104 85.1548 196.4 85.1548H184.895C184.192 85.1548 183.616 85.7301 183.616 86.4332C183.616 87.1363 184.192 87.7116 184.895 87.7116ZM200.875 87.7116H201.45C202.153 87.7116 202.729 87.1363 202.729 86.4332C202.729 85.7301 202.153 85.1548 201.45 85.1548H200.875C200.172 85.1548 199.597 85.7301 199.597 86.4332C199.597 87.1363 200.172 87.7116 200.875 87.7116ZM147.182 84.7074C144.945 84.7074 143.091 86.561 143.091 88.7983C143.091 91.0355 144.945 92.8892 147.182 92.8892C149.419 92.8892 151.273 91.0355 151.273 88.7983C151.273 86.561 149.483 84.7074 147.182 84.7074ZM148.652 89.9488C148.716 90.0128 148.716 90.2045 148.652 90.2684C148.524 90.3324 148.46 90.3324 148.332 90.2684L147.182 89.1179L146.031 90.2684C145.903 90.3324 145.776 90.3324 145.712 90.2684C145.648 90.2045 145.648 90.0128 145.712 89.9488L146.862 88.7983L145.712 87.6477C145.648 87.5838 145.648 87.4559 145.712 87.3281C145.776 87.2642 145.967 87.2642 146.031 87.3281L147.182 88.4787L148.332 87.3281C148.396 87.2642 148.588 87.2642 148.652 87.3281C148.716 87.392 148.716 87.5838 148.652 87.6477L147.501 88.7983L148.652 89.9488ZM123.02 126.831C120.399 126.895 113.815 126.959 112.281 126.959H110.555C110.108 126.959 109.788 127.278 109.597 127.662L102.821 147.797C102.565 148.436 103.077 149.139 103.78 149.139H105.314C105.506 149.203 105.506 149.139 113.112 149.075L111.45 152.143C111.386 152.143 111.322 152.207 111.322 152.271L104.675 163.713C104.035 161.092 101.095 149.906 97.963 147.03C95.3423 144.601 87.9275 143.131 84.284 142.939L84.0923 140.254C84.5397 140.51 85.1789 140.957 85.4985 141.085C86.3295 141.341 86.9687 141.213 87.544 140.702C89.142 139.168 89.2059 134.501 88.6945 130.41C89.7173 128.812 90.1008 127.278 89.7812 126C89.4616 124.658 88.5028 123.891 88.1832 123.699C88.1832 122.74 87.6718 121.717 86.713 121.142C84.8593 119.991 81.5994 120.503 77.1889 122.484C74.3764 123.763 72.7144 125.425 72.3309 127.406C72.0113 128.876 72.4587 130.283 73.034 131.369C70.2215 135.268 72.8423 140.83 77.6363 141.085V143.003C76.3579 143.067 74.5681 143.386 73.2897 143.642C71.3082 144.026 64.6604 145.56 61.8479 148.116C59.2272 150.545 55.6477 159.75 54.8806 161.795L51.5568 157.257C51.5568 157.193 51.4928 155.979 50.2144 155.467C46.4431 150.418 46.507 150.162 46.1874 150.354L44.4616 148.628C42.544 145.879 41.4573 144.089 41.3295 143.322C41.0099 141.341 38.8366 142.172 39.0923 145.304C38.5809 144.793 38.0056 144.473 37.4303 144.473C36.919 144.473 36.5354 144.537 36.0241 144.92C35.5127 144.537 35.0653 144.217 34.7457 143.834C33.7869 142.683 32.6363 143.706 33.5951 145.368C33.2116 145.112 32.892 144.793 32.7002 144.601C32.1889 144.026 31.7414 144.026 31.4857 144.217C31.1022 144.537 31.0383 145.176 31.5497 146.007C30.9104 146.199 30.9744 147.094 31.23 147.733C30.3991 147.605 29.7599 149.203 32.4445 151.249C31.9971 152.527 31.5497 153.933 31.23 155.212H23.4957C22.3451 155.212 21.3224 156.043 21.1306 157.257C17.0397 183.528 17.2954 181.803 17.2954 182.186V182.314C17.3593 183.592 18.382 184.615 19.7244 184.615H53.2187C54.561 184.615 55.5837 183.464 55.392 182.058L54.8806 178.99C57.5653 177.52 63.5099 171.447 65.3636 169.53L60.8891 205.006C60.8891 205.133 60.9531 205.197 61.017 205.261C61.3366 205.389 61.7201 205.517 62.0397 205.645C61.2087 233.45 61.7201 216.064 59.7386 284.523C59.7386 285.801 60.5695 286.824 61.7201 287.079L61.5283 290.403C59.2272 291.107 58.588 293.28 58.5241 293.344C57.9488 294.75 57.8849 296.604 57.8849 298.649C57.8849 298.969 58.1406 299.224 58.4602 299.224C91.3792 299.8 80.0653 299.608 82.4943 299.608C82.8139 299.608 83.0695 299.352 83.0695 299.033C83.1335 297.69 82.3664 296.54 81.088 296.092C66.7059 290.979 75.9104 294.239 72.7144 293.088L71.8835 290.531C71.6917 289.892 71.1164 289.508 70.4772 289.508H70.2215L70.3494 287.271C70.8607 287.08 71.3082 286.632 71.3721 286.057C73.034 273.656 77.1889 242.974 80.1931 220.73C80.257 221.178 81.088 225.013 81.1519 225.268C83.517 241.952 79.7457 215.616 89.7173 285.226C89.973 286.44 90.8039 287.463 91.9545 287.91L92.7854 291.426C91.3153 291.81 90.2926 292.96 89.7173 294.303C89.142 295.645 89.142 296.604 89.0141 299.672C89.0141 299.991 89.2059 300.247 89.5894 300.247C89.7812 300.247 113.687 300.695 113.624 300.695C113.943 300.695 114.199 300.439 114.199 300.119C114.263 298.777 113.496 297.626 112.217 297.179C100.776 293.088 104.675 294.494 103.844 294.175L103.013 291.618C102.821 291.043 102.31 290.595 101.67 290.595L101.351 288.486H101.479C101.926 288.486 102.31 288.102 102.31 287.655C98.0909 215.489 98.8579 228.976 97.4516 204.303C97.963 204.111 98.4104 203.855 98.9218 203.599C98.9857 203.535 99.0497 203.472 99.0497 203.344C97.7712 195.929 95.4062 174.771 95.2784 173.493C97.132 175.219 104.227 181.611 106.592 182.122C110.619 182.953 119.952 157.768 120.335 156.746C120.335 156.682 120.399 156.618 120.335 156.554C120.335 156.49 119.696 154.892 118.354 153.614C118.993 152.91 120.079 151.76 120.463 150.993C121.997 147.925 123.276 140.83 121.869 137.25C121.677 136.803 121.422 136.611 121.23 136.483L123.979 128.173C124.17 127.534 123.787 126.831 123.02 126.831ZM78.2755 143.386C79.2982 143.322 79.5539 143.258 80.1292 143.514C80.4488 143.578 80.5127 143.195 80.321 143.131C79.4261 142.747 78.5951 142.939 78.0198 142.939V136.419C78.4033 136.547 78.7229 136.547 79.1065 136.483C79.2343 136.483 79.2982 136.355 79.2982 136.227C79.2982 136.099 79.1704 136.035 79.0425 136.035C78.659 136.099 78.2755 136.099 77.9559 135.908C76.6775 135.268 76.8693 133.287 78.3394 132.903C79.2343 132.712 80.0653 133.223 80.257 134.054C80.257 134.182 80.4488 134.246 80.5127 134.246C80.6406 134.246 80.7045 134.118 80.7045 133.99C80.5766 133.543 80.3849 133.223 80.0653 132.903C82.4943 131.625 85.115 129.771 86.713 127.598L88.2471 130.347C88.7585 133.926 89.0781 141.788 85.6903 140.638C85.3068 140.51 84.284 139.807 83.9644 139.615C82.3025 138.209 82.5582 138.401 82.4303 138.401C82.3664 138.337 82.2386 138.401 82.1747 138.464C82.1107 138.528 82.1107 138.656 82.1747 138.72C82.1747 138.784 83.6448 139.935 83.6448 139.935C83.6448 139.999 83.9005 143.131 83.9005 143.195C83.9005 143.322 84.0284 143.386 84.0923 143.386C84.9872 143.45 85.8181 143.514 86.5852 143.642C86.4573 146.518 84.0923 148.82 81.2158 148.82C78.3394 148.82 75.9744 146.518 75.8465 143.642C76.6136 143.578 77.1889 143.514 78.2755 143.386ZM46.4431 151.121L49.5113 155.276H44.5894L45.0369 154.828C45.8678 153.678 46.2514 152.463 46.4431 151.121ZM40.946 143.386C41.0738 144.217 42.1605 146.007 44.142 148.883C44.2698 149.075 45.9957 150.801 46.0596 150.865C46.0596 151.76 45.5482 153.358 44.6533 154.572C44.4616 154.828 44.2059 155.084 43.8863 155.339H43.6945C42.6718 151.952 41.2656 148.053 39.6036 146.007C39.0923 143.195 40.6264 141.788 40.946 143.386ZM41.4573 154.508C41.1377 154.445 41.1377 154.445 40.8181 154.317C40.6903 152.527 40.4985 150.673 40.1789 149.075C40.3707 149.267 40.6264 149.459 40.946 149.587C41.0099 149.587 41.0738 149.587 41.1377 149.523C41.9048 151.249 42.6079 153.294 43.1832 155.212H42.7357C42.7997 155.212 41.5852 154.572 41.4573 154.508ZM41.9048 155.276H40.882V154.828C41.5212 155.02 41.2016 154.892 41.9048 155.276ZM40.4346 155.276H34.4261C34.4261 154.381 34.4261 153.486 34.49 152.591C36.0241 153.422 37.4943 153.869 40.4346 154.7V155.276ZM40.115 147.285C40.4346 147.797 40.7542 148.436 41.0738 149.139C41.0099 149.139 40.946 149.075 40.882 149.075C40.0511 148.5 40.115 147.349 40.115 147.285ZM38.3252 145.432C38.6448 145.751 38.9005 146.199 39.0923 146.774C38.4531 146.455 37.4943 145.943 36.5994 145.368C37.1747 144.793 37.8139 144.857 38.3252 145.432ZM30.9744 148.5C30.9744 148.436 31.0383 148.308 31.1022 148.244C31.3579 148.18 31.6136 148.564 31.6775 148.564C32.1889 149.075 33.0837 149.714 33.7229 150.034C33.9786 150.162 34.1704 149.778 33.9147 149.651C32.8281 149.075 31.9332 148.244 31.9332 148.244C31.1661 147.222 31.4218 146.327 31.8053 146.518C32.2528 146.966 33.2116 147.733 34.0426 148.116C34.1065 148.18 34.2982 148.116 34.3622 148.053C34.4261 147.925 34.3622 147.797 34.2982 147.733C33.2116 147.158 32.1889 146.199 32.1889 146.199C31.3579 145.048 31.6775 144.026 32.4445 144.92C32.892 145.432 33.7229 146.071 34.8096 146.71C35.0653 146.838 35.257 146.518 35.0653 146.327C33.1477 144.729 33.5951 143.131 34.4261 144.217C35.4488 145.368 37.8778 146.71 39.284 147.413C39.8593 149.203 40.1789 151.824 40.3707 154.317C37.8778 153.55 30.7826 151.121 30.9744 148.5ZM32.8281 151.568C33.2116 151.824 33.5951 152.08 34.0426 152.335C33.9786 153.294 33.9786 154.253 33.9786 155.212H31.6775C32.061 154.061 32.4445 152.783 32.8281 151.568ZM21.7698 156.746C22.0894 156.17 22.7286 155.723 23.4957 155.723H27.5227C27.3309 155.915 23.3678 159.686 23.3039 159.75L21.7698 156.746ZM26.6917 157.129L22.9204 181.483C22.8565 181.419 20.7471 179.246 20.6193 179.118L23.4957 160.197L26.6917 157.129ZM21.5781 157.321L23.0482 160.197L20.1079 179.182C19.4687 179.885 17.8707 181.611 17.7428 181.739C20.7471 162.435 21.5781 157.385 21.5781 157.321ZM19.6604 184.231C18.6377 184.231 17.8068 183.464 17.7428 182.442L20.3636 179.565L22.7926 182.058V182.122C22.6647 182.953 22.9843 183.72 23.6235 184.231H19.6604ZM54.9445 182.186C55.1363 183.273 54.3053 184.231 53.2187 184.231H24.9658C23.9431 184.231 23.0482 183.401 23.24 182.122C23.4957 180.46 26.3082 162.435 27.1391 157.257C27.267 156.426 27.9701 155.787 28.865 155.787H49.3195C50.9815 155.787 51.0454 157.449 51.1093 157.513C53.2187 170.872 54.2414 177.456 54.9445 182.186ZM80.8962 296.604C81.9829 296.987 82.6221 298.01 82.5582 299.097C82.5582 299.16 82.4943 299.224 82.4303 299.224C82.1107 299.224 80.6406 299.16 80.7684 299.224L80.257 296.348L80.8962 296.604ZM71.436 290.723L72.267 293.408C72.267 293.472 72.3309 293.535 72.3948 293.535C72.7144 293.663 79.3622 296.028 79.7457 296.156L80.321 299.16L58.3962 298.777C58.3962 298.777 58.3323 298.777 58.3323 298.713C58.2684 298.649 58.3323 298.585 58.3962 297.307L60.7613 297.371L77.3167 297.69C77.4445 297.69 77.5085 297.562 77.5085 297.499C77.5085 297.371 77.4445 297.243 77.3167 297.243L61.0809 296.987C61.784 295.389 60.7613 293.535 59.0354 293.344C59.6107 292.193 60.5056 291.234 61.784 290.915C62.5511 292.641 64.4687 294.239 66.7059 294.047C68.24 293.919 69.1349 292.513 69.3266 291.107C69.3906 290.531 69.7741 290.148 70.2215 290.084C70.8607 289.956 71.3082 290.276 71.436 290.723ZM61.9758 290.339L62.1675 287.207C62.2315 287.207 69.838 287.463 69.9658 287.463L69.838 289.764C69.3266 290.02 69.007 290.531 68.9431 291.107C68.9431 291.298 68.4957 293.472 66.7059 293.599C63.5738 293.855 62.1675 290.595 62.1675 290.531C62.1036 290.403 62.0397 290.403 61.9758 290.339ZM92.4658 288.102C93.105 288.294 92.8494 288.166 100.967 288.486L101.287 290.659C100.648 290.851 100.136 291.426 100.072 292.065C99.8806 293.28 99.1136 294.494 97.8352 294.558C94.7031 294.814 93.2968 291.554 93.2968 291.49C93.2968 291.426 93.2329 291.426 93.2329 291.426L92.4658 288.102ZM112.089 297.626C113.112 298.01 113.815 299.033 113.751 300.119C113.751 300.183 113.687 300.247 113.624 300.247H111.962L111.45 297.371L112.089 297.626ZM101.606 291.043C101.99 290.979 102.565 291.234 102.693 291.746C103.588 294.558 103.46 294.494 103.652 294.558C110.555 297.051 110.875 297.115 111.003 297.179L111.578 300.183C88.4389 299.736 89.5894 299.928 89.5894 299.672L89.6533 298.33C92.2741 298.393 108.51 298.649 108.574 298.649C108.702 298.649 108.766 298.521 108.766 298.457C108.766 298.33 108.638 298.202 108.574 298.202L92.338 297.946C93.0411 296.284 92.0184 294.494 90.2925 294.303C90.74 293.344 91.571 292.257 92.9133 291.874H92.9772C94.2556 294.303 96.2372 295.197 97.8991 295.006C99.4332 294.878 100.328 293.472 100.52 292.065C100.584 291.554 100.967 291.107 101.606 291.043ZM99.3053 243.294C99.3693 243.933 99.8806 252.882 101.926 287.655C101.926 287.847 101.798 288.038 101.543 288.038H101.159C92.5937 287.783 92.8494 287.783 92.338 287.655C91.3153 287.335 90.4204 286.44 90.1647 285.226C82.3664 230.574 97.5795 338.535 81.6633 225.332L81.0241 210.758C81.0241 210.503 80.5766 210.439 80.5766 210.758C80.4488 212.932 80.0014 219.643 80.0014 219.643C80.0014 219.707 71.0525 285.993 71.0525 286.121C70.9886 286.44 70.7968 286.76 70.5411 286.888C70.0298 287.143 61.9119 286.76 61.8479 286.696C60.9531 286.44 60.2499 285.609 60.3139 284.587C62.0397 226.291 61.9758 227.761 62.615 205.837C73.8011 209.864 86.2656 209.416 97.132 204.43C100.839 269.246 99.3693 244.445 99.3053 243.294ZM119.376 156.937C119.504 156.937 119.632 156.874 119.76 156.874C117.651 162.626 109.788 182.314 106.656 181.611C104.227 181.099 96.1093 173.621 95.2144 172.79C95.534 171.639 97.4516 163.969 97.3238 161.156C97.132 158.408 94.2556 150.993 94.1278 150.673C94.0639 150.545 93.936 150.481 93.8082 150.545C93.6803 150.609 93.6164 150.737 93.6803 150.865C93.7443 150.929 96.6846 158.535 96.8764 161.22C97.0681 164.097 94.767 172.726 94.767 172.854V172.982C94.767 173.045 97.3238 195.801 98.6022 203.28C87.1604 209.097 73.7372 209.672 62.2954 205.389L61.3366 205.006C63.2542 189.984 59.419 219.963 65.8749 169.082L69.5184 164.736C69.7102 164.48 69.3906 164.224 69.1988 164.416L65.5553 168.699C63.5099 170.808 57.3096 177.008 54.8167 178.479L51.6207 158.088L54.6889 162.243C54.8167 162.371 55.0085 162.371 55.0724 162.179C55.1363 162.051 59.2911 150.865 62.0397 148.244C64.1491 146.263 69.007 144.729 72.9701 143.898C73.2897 148.116 76.7414 151.376 81.0241 151.376C85.2428 151.376 88.7585 148.116 89.0781 143.898C91.1235 144.345 95.598 145.432 97.5156 147.222C100.903 150.29 104.163 164.033 104.227 164.16C104.291 164.352 104.547 164.416 104.611 164.224L111.386 152.655C113.112 156.298 115.797 157.577 119.376 156.937ZM121.422 137.314C122.764 140.702 121.486 147.733 120.016 150.673C119.44 151.824 116.692 154.636 114.966 156.043C113.368 155.276 111.962 153.23 111.77 152.655L111.706 152.463C112.537 150.865 114.263 147.797 114.263 147.733C114.263 147.669 114.327 147.605 114.263 147.541C114.199 147.413 113.496 145.112 113.496 144.345C113.496 144.089 113.687 143.514 113.943 143.386C114.199 143.45 114.774 144.857 115.158 146.327C115.222 146.582 115.541 146.518 115.605 146.327C115.605 146.199 116.18 143.514 115.989 142.619C115.797 141.66 114.646 140.254 114.391 139.423C114.135 138.72 114.263 138.209 114.518 138.081C115.222 137.761 116.5 140.254 116.756 140.957C116.947 141.405 117.203 142.875 117.203 142.939C117.267 143.195 117.651 143.195 117.651 142.875C117.651 141.597 117.778 137.953 118.098 136.739C118.29 135.972 118.801 135.844 118.993 136.547C119.249 137.57 119.249 139.999 119.249 141.533V142.811C119.249 143.067 119.632 143.131 119.696 142.875C119.696 142.875 120.399 140.382 120.591 138.592C120.591 138.273 120.719 137.57 120.655 137.122C120.655 136.994 120.974 136.866 121.102 136.93C121.23 136.93 121.358 137.058 121.422 137.314ZM123.531 128.045L120.719 136.483C120.399 136.547 120.079 136.866 120.143 137.122C120.143 137.378 120.207 137.697 120.143 138.081L119.696 139.487C119.696 138.273 119.632 137.058 119.44 136.419C119.121 135.332 118.034 135.268 117.651 136.611C117.395 137.633 117.267 139.807 117.267 140.957C117.075 140.318 116.244 138.848 115.733 138.209C114.582 136.93 113.496 137.889 114.007 139.551C114.327 140.574 115.413 141.916 115.605 142.683C115.733 143.195 115.541 144.409 115.349 145.304C115.03 144.281 114.518 143.067 114.071 142.939C113.496 142.811 113.112 143.77 113.112 144.345C113.112 145.112 113.624 146.838 113.879 147.605L113.304 148.628C113.304 148.628 112.153 148.628 105.442 148.756C105.378 148.692 104.739 148.564 104.93 147.989L106.656 142.939L111.706 127.854C111.77 127.598 112.153 127.406 112.217 127.47L123.02 127.342C123.403 127.278 123.659 127.662 123.531 128.045ZM99.3053 243.294C99.3053 243.23 99.3053 243.23 99.3053 243.294V243.294Z" fill="#036A79"/>
<path d="M86.0099 136.994C87.0327 137.186 87.4162 136.675 87.2244 136.163C87.1605 136.035 87.0966 135.908 86.9687 135.78C86.9048 135.716 86.4574 135.141 86.4574 134.31C86.4574 134.182 86.3934 134.054 86.2656 134.054C86.1378 134.054 86.0099 134.182 86.0099 134.31C86.0099 135.332 86.5852 135.972 86.5852 136.035C86.6491 136.163 86.8409 136.355 86.713 136.483C86.5852 136.611 86.3295 136.611 86.0099 136.547C85.8821 136.547 85.7542 136.611 85.7542 136.739C85.7542 136.866 85.8821 136.994 86.0099 136.994ZM85.2429 138.209C85.8821 138.72 86.7131 138.656 87.2883 138.273C87.4162 138.209 87.4162 138.081 87.3522 137.953C87.2883 137.825 87.1605 137.825 87.0326 137.889C86.9687 137.889 86.2656 138.401 85.5625 137.825C85.4986 137.761 85.3068 137.761 85.2429 137.825C85.179 137.953 85.179 138.081 85.2429 138.209ZM84.6676 133.734C84.4119 133.734 84.2202 133.926 84.2841 134.246C84.348 134.501 84.5397 134.757 84.7954 134.757C85.0511 134.757 85.2429 134.565 85.179 134.246C85.115 133.99 84.9233 133.734 84.6676 133.734ZM83.4531 133.67C83.5809 133.734 83.7088 133.67 83.7727 133.607C84.0284 133.159 84.5397 132.967 84.9872 133.287C85.115 133.351 85.2429 133.351 85.3068 133.223C85.3707 133.095 85.3707 132.967 85.2429 132.903C84.6676 132.52 83.9005 132.584 83.3892 133.351C83.3253 133.479 83.3253 133.607 83.4531 133.67ZM87.4162 133.351C87.1605 133.351 86.9687 133.543 87.0326 133.862C87.0326 134.118 87.2883 134.374 87.544 134.374C87.7997 134.374 87.9915 134.182 87.9275 133.862C87.9275 133.607 87.6719 133.351 87.4162 133.351ZM86.5213 133.223C87.0327 132.456 87.6719 132.839 87.7358 132.903C87.8636 132.967 87.9915 132.967 88.0554 132.839C88.1193 132.712 88.1193 132.584 87.9915 132.52C87.6079 132.264 86.777 132.072 86.1378 132.967C86.0738 133.095 86.0738 133.223 86.2017 133.287C86.3295 133.351 86.4574 133.287 86.5213 133.223ZM77.5085 134.501C77.5085 134.629 77.6363 134.693 77.7642 134.693C77.892 134.693 77.9559 134.565 77.9559 134.501C77.9559 134.246 78.1477 134.054 78.3395 134.054C78.5952 134.054 78.6591 133.798 78.4673 133.67C78.2755 133.479 77.5085 133.798 77.5085 134.501ZM42.0326 248.152C37.4943 247.513 34.6818 248.28 33.4034 250.581C31.9332 253.202 32.5085 257.101 33.4673 257.996C33.5312 258.06 33.723 258.187 33.9787 258.379C33.5951 260.297 33.6591 265.091 33.723 269.182H32.7642C32.6363 265.602 31.6136 261.767 30.3991 258.379C33.4034 257.42 32.3807 250.645 31.6775 247.641C30.9744 244.636 31.6136 244.445 32.7642 240.098C33.3395 237.989 32.3807 236.199 30.9105 235.432C28.4815 234.153 24.9659 235.368 23.4318 240.865C21.642 247.065 22.9844 251.348 23.0483 251.54C24.071 254.608 26.6278 258.955 29.9517 258.507C31.1022 261.831 32.1889 265.666 32.3167 269.246H29.8238C29.7599 268.223 29.5682 267.328 29.3764 266.689C30.8466 265.411 31.2301 263.301 29.4403 260.872C26.5639 257.037 20.5554 254.097 14.2272 256.717C14.0994 256.717 11.6065 258.06 11.0312 259.594C10.5838 260.872 11.7343 262.534 13.3324 262.534C14.0355 262.534 14.6747 262.278 15.1221 262.023C15.8253 261.575 17.8707 260.936 18.7017 261.128C18.7656 261.256 18.8295 261.384 18.8934 261.575C20.044 264.324 21.5142 266.497 23.4318 267.392C25.2216 268.287 27.1392 267.903 28.929 266.881C29.1207 267.648 29.3125 268.415 29.3125 269.182H20.5554C20.1079 269.182 19.7883 269.501 19.7883 269.949V273.337C19.7883 273.784 20.1079 274.104 20.5554 274.104H21.2585C21.2585 274.168 22.2173 278.322 24.3906 288.358C24.5824 289.317 25.4133 289.956 26.3721 289.956H37.6221C38.5809 289.956 39.4119 289.317 39.6037 288.358C40.4346 284.523 41.9048 278.003 42.7358 274.104H43.4389C43.8863 274.104 44.2059 273.72 44.2059 273.337V269.949C44.2059 269.501 43.8224 269.182 43.4389 269.182H34.1704C34.1065 265.027 34.0426 260.297 34.4261 258.507C36.8551 259.274 39.4119 257.037 40.946 254.991C42.2244 256.526 43.0554 258.188 45.2926 258.188C46.1236 258.188 46.8906 257.868 47.6576 257.293C49.9588 255.503 48.169 251.923 48.169 251.859C47.5298 250.453 45.6122 248.663 42.0326 248.152ZM28.6733 253.777C25.6051 245.915 28.6733 239.459 28.6733 239.395L28.2897 239.267C28.2897 239.331 25.0937 245.979 28.2897 253.969C28.7372 255.119 29.2486 256.462 29.8238 257.996C25.9886 258.443 23.4957 251.412 23.4957 251.348C23.4957 251.284 22.0895 247.001 23.8792 240.929C24.902 237.349 27.2031 234.217 30.5909 235.687C31.9971 236.327 32.9559 237.797 32.3807 239.906C31.1662 244.253 30.5909 244.636 31.294 247.641C31.9332 250.325 32.9559 257.101 30.3352 257.868C29.696 256.334 29.1207 254.928 28.6733 253.777ZM22.6008 259.018C22.3451 258.891 22.1534 259.338 22.4091 259.402C22.473 259.402 27.2031 261.511 28.8011 266.369C26.8835 267.456 25.2216 267.584 23.8153 266.945C21.9616 266.114 20.4915 264.004 19.3409 261.256C19.277 261.064 19.213 260.872 19.0852 260.744V260.68C18.446 259.082 17.0397 257.357 15.0582 256.717C20.875 254.608 26.3721 257.42 28.9929 261C30.2713 262.726 30.5909 264.452 29.1207 266.05C27.4588 261.192 22.6647 259.018 22.6008 259.018ZM39.5397 286.504H24.4545L21.7059 274.04H42.3522L39.5397 286.504ZM43.4389 269.565C43.6307 269.565 43.7585 269.693 43.7585 269.885V273.273C43.7585 273.464 43.5667 273.592 43.4389 273.592H20.5554C20.3636 273.592 20.2358 273.401 20.2358 273.273V269.885C20.2358 269.693 20.3636 269.565 20.5554 269.565H43.4389ZM40.7542 254.416C40.2429 254.928 38.1974 257.932 35.6406 258.124C35.1292 258.188 34.7457 258.124 34.49 257.996C35.6406 252.946 39.5397 250.773 39.6037 250.773C39.8593 250.645 39.6676 250.261 39.4119 250.389C39.348 250.389 35.321 252.626 34.1065 257.804C33.9787 257.74 33.8508 257.612 33.7869 257.548C32.9559 256.781 32.4446 253.138 33.8508 250.709C35.3849 248.024 39.0284 248.088 42.0326 248.536C44.142 248.855 46.2514 249.686 47.4659 251.476C44.8451 250.837 42.1605 252.499 40.7542 254.416ZM26.3082 125.616H58.0767L64.0852 130.794C64.277 130.922 64.4687 130.794 64.4687 130.602V125.553H65.9389C67.7926 125.553 69.3267 124.018 69.3267 122.165V101.071C69.3267 99.2173 67.7926 97.6832 65.9389 97.6832H26.3082C24.4545 97.6832 22.9204 99.2173 22.9204 101.071V122.165C22.9204 124.082 24.4545 125.616 26.3082 125.616ZM23.3679 101.135C23.3679 99.5369 24.6463 98.1946 26.3082 98.1946H65.9389C67.5369 98.1946 68.8792 99.473 68.8792 101.135V122.229C68.8792 123.827 67.5369 125.169 65.9389 125.169H64.213C64.0852 125.169 64.0213 125.297 64.0213 125.361V130.155L58.3324 125.233C58.2684 125.169 58.2045 125.169 58.2045 125.169H26.3082C24.7102 125.169 23.3679 123.891 23.3679 122.229V101.135Z" fill="#036A79"/>
<path d="M27.4588 122.357H64.7244C65.7471 122.357 66.642 121.526 66.642 120.439V102.286C66.642 101.263 65.7471 100.368 64.7244 100.368H27.4588C26.3721 100.368 25.5411 101.199 25.5411 102.286V120.439C25.5411 121.462 26.3721 122.357 27.4588 122.357ZM25.9886 102.286C25.9886 101.455 26.6278 100.815 27.4588 100.815H64.7244C65.5553 100.815 66.1946 101.455 66.1946 102.286V120.439C66.1946 121.27 65.5553 121.909 64.7244 121.909H27.4588C26.6278 121.909 25.9886 121.27 25.9886 120.439V102.286ZM177.864 142.619H150.122C148.78 142.619 147.693 143.706 147.693 145.048V171.575C147.693 172.918 148.78 174.004 150.122 174.004H177.864C179.206 174.004 180.293 172.918 180.293 171.575V145.048C180.293 143.706 179.206 142.619 177.864 142.619ZM179.845 171.575C179.845 172.662 178.95 173.557 177.864 173.557H150.122C149.035 173.557 148.141 172.662 148.141 171.575V145.048C148.141 143.962 149.035 143.067 150.122 143.067H177.864C178.95 143.067 179.845 143.962 179.845 145.048V171.575ZM188.922 144.665H238.652C238.78 144.665 238.908 144.537 238.908 144.473C238.908 144.409 238.78 144.281 238.652 144.281H188.922C188.794 144.281 188.666 144.409 188.666 144.473C188.666 144.537 188.794 144.665 188.922 144.665ZM188.922 151.632H225.42C225.548 151.632 225.676 151.504 225.676 151.44C225.676 151.376 225.548 151.249 225.42 151.249H188.922C188.794 151.249 188.666 151.376 188.666 151.44C188.666 151.504 188.794 151.632 188.922 151.632ZM188.922 158.536H238.652C238.78 158.536 238.908 158.408 238.908 158.344C238.908 158.28 238.78 158.152 238.652 158.152H188.922C188.794 158.152 188.666 158.28 188.666 158.344C188.666 158.408 188.794 158.536 188.922 158.536ZM188.922 165.439H225.42C225.548 165.439 225.676 165.311 225.676 165.247C225.676 165.183 225.548 165.055 225.42 165.055H188.922C188.794 165.055 188.666 165.183 188.666 165.247C188.666 165.311 188.794 165.439 188.922 165.439ZM188.922 172.406H238.652C238.78 172.406 238.908 172.278 238.908 172.215C238.908 172.151 238.78 172.023 238.652 172.023H188.922C188.794 172.023 188.666 172.151 188.666 172.215C188.666 172.278 188.794 172.406 188.922 172.406ZM177.864 181.867H150.122C148.78 181.867 147.693 182.953 147.693 184.295V210.822C147.693 212.165 148.78 213.251 150.122 213.251H177.864C179.206 213.251 180.293 212.165 180.293 210.822V184.295C180.293 183.017 179.206 181.867 177.864 181.867ZM179.845 210.886C179.845 211.973 178.95 212.868 177.864 212.868H150.122C149.035 212.868 148.141 211.973 148.141 210.886V184.359C148.141 183.273 149.035 182.378 150.122 182.378H177.864C178.95 182.378 179.845 183.273 179.845 184.359V210.886ZM188.922 183.976H238.652C238.78 183.976 238.908 183.848 238.908 183.784C238.908 183.72 238.78 183.592 238.652 183.592H188.922C188.794 183.592 188.666 183.72 188.666 183.784C188.666 183.848 188.794 183.976 188.922 183.976ZM188.922 190.879H225.42C225.548 190.879 225.676 190.751 225.676 190.688C225.676 190.624 225.548 190.496 225.42 190.496H188.922C188.794 190.496 188.666 190.624 188.666 190.688C188.666 190.751 188.794 190.879 188.922 190.879ZM188.922 197.847H238.652C238.78 197.847 238.908 197.719 238.908 197.655C238.908 197.591 238.78 197.463 238.652 197.463H188.922C188.794 197.463 188.666 197.591 188.666 197.655C188.666 197.719 188.794 197.847 188.922 197.847ZM225.42 204.75C225.548 204.75 225.676 204.622 225.676 204.558C225.676 204.494 225.548 204.367 225.42 204.367H188.922C188.794 204.367 188.666 204.494 188.666 204.558C188.666 204.622 188.794 204.75 188.922 204.75H225.42ZM177.864 221.178H150.122C148.78 221.178 147.693 222.264 147.693 223.607V250.134C147.693 251.476 148.78 252.563 150.122 252.563H177.864C179.206 252.563 180.293 251.476 180.293 250.134V223.607C180.293 222.264 179.206 221.178 177.864 221.178ZM179.845 250.197C179.845 251.284 178.95 252.179 177.864 252.179H150.122C149.035 252.179 148.141 251.284 148.141 250.197V223.67C148.141 222.584 149.035 221.689 150.122 221.689H177.864C178.95 221.689 179.845 222.584 179.845 223.67V250.197Z" fill="#036A79"/>
<path d="M170.704 150.993C168.787 149.267 166.166 149.523 164.824 150.993L160.797 155.339L156.77 159.75C155.3 161.348 155.491 164.033 157.281 165.631C159.007 167.229 161.692 167.229 163.162 165.631L167.189 161.284L171.216 156.938C172.622 155.276 172.494 152.655 170.704 150.993ZM162.778 165.311C161.5 166.717 159.135 166.781 157.537 165.311C155.939 163.841 155.747 161.476 157.089 160.07L160.989 155.851L166.678 161.156L162.778 165.311ZM170.832 156.554L166.997 160.773L161.244 155.531L165.08 151.313C166.358 149.906 168.723 149.842 170.321 151.313C171.983 152.783 172.175 155.148 170.832 156.554ZM166.997 194.523C166.614 194.523 166.23 194.203 166.23 193.756V193.436H166.55C166.805 193.436 166.997 193.244 166.997 192.989V191.646C166.997 191.391 166.805 191.199 166.55 191.199H165.783L164.185 186.98C164.121 186.852 163.929 186.852 163.865 186.98L162.267 191.199H161.82C161.564 191.199 161.372 191.391 161.372 191.646V192.989C161.372 193.244 161.564 193.436 161.82 193.436H162.139V193.756C162.139 194.139 161.82 194.523 161.372 194.523C159.966 194.523 158.879 195.673 158.879 197.016V208.585C158.879 208.969 159.199 209.352 159.646 209.352H168.787C169.17 209.352 169.554 209.033 169.554 208.585V197.016C169.49 195.609 168.403 194.523 166.997 194.523ZM163.993 187.364L165.399 191.071L162.587 191.199L163.993 187.364ZM161.82 193.116C161.756 193.116 161.692 193.053 161.692 192.989V191.646C161.692 191.582 161.756 191.518 161.82 191.518H166.55C166.614 191.518 166.678 191.582 166.678 191.646V192.989C166.678 193.053 166.614 193.116 166.55 193.116H161.82ZM169.17 208.521C169.17 208.777 168.979 208.969 168.723 208.969H159.582C159.327 208.969 159.135 208.777 159.135 208.521V204.239H169.106V208.521H169.17ZM169.17 203.919H159.199V199.892H169.17V203.919ZM169.17 199.572H159.199V197.016C159.199 195.801 160.158 194.842 161.372 194.842C161.947 194.842 162.459 194.331 162.459 193.756V193.436H165.974V193.756C165.974 194.331 166.486 194.842 167.061 194.842C167.317 194.842 167.572 194.906 167.828 194.97C168.659 195.29 169.234 196.057 169.234 197.016V199.572H169.17ZM39.1562 161.604C34.5539 161.604 30.7826 165.375 30.7187 169.977C30.6548 174.516 34.2983 178.351 38.9645 178.351C43.5667 178.351 47.338 174.58 47.402 169.977C47.4659 165.247 43.6946 161.604 39.1562 161.604ZM47.1463 169.977C47.0824 174.452 43.375 178.031 39.0284 178.031C34.554 178.031 31.0383 174.388 31.1022 169.977C31.1022 165.567 34.7457 161.923 39.2201 161.923C43.6307 161.923 47.1463 165.439 47.1463 169.849V169.977Z" fill="#036A79"/>
<path d="M42.6719 171L40.8821 169.977L42.6719 168.955C43.1193 168.699 43.2472 168.124 42.9915 167.74C42.7358 167.293 42.1605 167.165 41.777 167.42L40.0511 168.443V166.398C40.0511 165.886 39.6676 165.503 39.1562 165.503C38.6449 165.503 38.2614 165.886 38.2614 166.398V168.507L36.4716 167.484C36.0241 167.229 35.5128 167.356 35.2571 167.804C35.0014 168.251 35.1293 168.827 35.5767 169.018L37.3026 170.041L35.5128 171.064C35.0653 171.32 34.9375 171.895 35.1932 172.278C35.4489 172.662 35.9602 172.854 36.4077 172.598L38.1974 171.575V173.621C38.1974 174.132 38.6449 174.516 39.0923 174.516C39.6037 174.516 39.9872 174.132 39.9872 173.621V171.639L41.777 172.662C42.2244 172.918 42.7358 172.79 42.9915 172.342C43.2472 171.831 43.1193 171.256 42.6719 171ZM42.7358 172.087C42.544 172.406 42.2244 172.47 41.9048 172.278L39.9233 171.128C39.7954 171.064 39.6676 171.192 39.6676 171.256V173.557C39.6676 173.876 39.4119 174.132 39.0923 174.132C38.7727 174.132 38.517 173.876 38.517 173.557V171.256C38.517 171.128 38.3892 171.064 38.2614 171.128L36.2159 172.278C35.8963 172.47 35.5767 172.278 35.3849 172.087C35.2571 171.831 35.321 171.447 35.6406 171.256L37.6861 170.105C37.8139 170.041 37.8139 169.913 37.6861 169.849L35.7045 168.699C35.4489 168.571 35.321 168.187 35.5128 167.932C35.7045 167.676 36.0241 167.548 36.3437 167.74L38.3253 168.891C38.4531 168.955 38.581 168.891 38.581 168.763V166.398C38.581 166.078 38.8366 165.822 39.1562 165.822C39.4758 165.822 39.7315 166.078 39.7315 166.398V168.699C39.7315 168.827 39.8594 168.891 39.9872 168.827L41.9687 167.676C42.2883 167.484 42.6079 167.612 42.7997 167.868C42.9276 168.124 42.8636 168.507 42.608 168.699L40.5625 169.849C40.4347 169.913 40.4347 170.041 40.5625 170.105L42.608 171.256C42.7997 171.447 42.8636 171.831 42.7358 172.087ZM170.129 227.25H157.729C157.601 227.25 157.537 227.314 157.537 227.442V229.935C157.537 230.062 157.665 230.126 157.729 230.126H158.56V245.787C158.56 246.17 158.879 246.426 159.199 246.426H168.659C169.043 246.426 169.298 246.107 169.298 245.787V230.126H170.129C170.257 230.126 170.321 229.999 170.321 229.935V227.442C170.385 227.378 170.257 227.25 170.129 227.25ZM168.915 239.97H164.824V234.345H168.915V239.97ZM168.915 233.898H164.824C164.568 233.898 164.376 234.089 164.376 234.345V239.97C164.376 240.226 164.568 240.418 164.824 240.418H168.915V245.851C168.915 245.979 168.851 246.043 168.723 246.043H159.263C159.135 246.043 159.071 245.979 159.071 245.851V230.19H168.915V233.898ZM169.938 229.743H157.984V227.697H169.938V229.743ZM175.626 263.429C173.517 263.429 171.791 265.155 171.791 267.264C171.791 269.374 173.517 271.099 175.626 271.099C177.736 271.099 179.462 269.374 179.462 267.264C179.462 265.155 177.736 263.429 175.626 263.429ZM175.626 270.716C173.773 270.716 172.239 269.182 172.239 267.328C172.239 265.474 173.773 263.94 175.626 263.94C177.48 263.94 179.014 265.474 179.014 267.328C179.014 269.182 177.48 270.716 175.626 270.716ZM193.013 263.429C190.903 263.429 189.178 265.155 189.178 267.264C189.178 269.374 190.903 271.099 193.013 271.099C195.122 271.099 196.848 269.374 196.848 267.264C196.848 265.155 195.122 263.429 193.013 263.429ZM193.013 270.716C191.159 270.716 189.625 269.182 189.625 267.328C189.625 265.474 191.159 263.94 193.013 263.94C194.866 263.94 196.401 265.474 196.401 267.328C196.401 269.182 194.866 270.716 193.013 270.716ZM210.335 263.429C208.226 263.429 206.5 265.155 206.5 267.264C206.5 269.374 208.226 271.099 210.335 271.099C212.445 271.099 214.17 269.374 214.17 267.264C214.17 265.155 212.445 263.429 210.335 263.429ZM210.335 270.716C208.482 270.716 206.947 269.182 206.947 267.328C206.947 265.474 208.482 263.94 210.335 263.94C212.189 263.94 213.723 265.474 213.723 267.328C213.723 269.182 212.253 270.716 210.335 270.716ZM256.869 250.837C249.838 250.837 244.021 256.589 244.021 263.685C244.021 270.78 249.838 276.533 256.869 276.533C263.964 276.533 269.717 270.78 269.717 263.685C269.653 256.589 263.901 250.837 256.869 250.837ZM256.869 276.085C250.03 276.085 244.469 270.524 244.469 263.685C244.469 256.845 250.03 251.284 256.869 251.284C263.709 251.284 269.27 256.845 269.27 263.685C269.206 270.524 263.645 276.085 256.869 276.085Z" fill="#036A79"/>
<path d="M262.75 260.297C262.367 259.658 261.536 259.466 260.896 259.785L258.276 261.32V258.251C258.276 257.548 257.7 256.909 256.933 256.909C256.166 256.909 255.591 257.484 255.591 258.251L255.527 261.383L252.842 259.849C252.203 259.466 251.372 259.722 250.989 260.361C250.605 260.936 250.797 261.831 251.436 262.214L254.057 263.749L251.372 265.283C250.733 265.666 250.477 266.433 250.861 267.136C251.244 267.776 252.011 268.031 252.715 267.648L253.226 267.328L255.335 266.114L255.463 266.05V269.118C255.463 269.821 256.038 270.46 256.805 270.46C257.509 270.46 258.148 269.885 258.148 269.118C258.148 269.054 258.212 265.858 258.148 266.05C258.212 266.114 260.96 267.712 260.832 267.584C261.408 267.903 262.175 267.839 262.686 267.072C263.07 266.433 262.878 265.602 262.239 265.219L259.554 263.621L262.239 262.087C262.878 261.767 263.07 260.936 262.75 260.297ZM258.979 263.493C258.851 263.621 258.851 263.812 258.979 263.876L262.047 265.666C262.494 265.922 262.622 266.433 262.367 266.881C262.111 267.264 261.663 267.392 261.28 267.264C261.088 267.2 261.344 267.328 258.148 265.474C258.02 265.41 257.828 265.474 257.828 265.666C257.828 265.73 257.764 269.31 257.764 269.054C257.764 269.565 257.381 269.949 256.869 269.949C256.358 269.949 255.974 269.565 255.974 269.054C255.974 268.99 256.038 265.347 255.974 265.538C255.974 265.41 255.847 265.283 255.655 265.347L252.587 267.136C252.139 267.392 251.564 267.2 251.372 266.817C251.117 266.369 251.308 265.858 251.692 265.602L254.696 263.876C254.824 263.812 254.824 263.557 254.696 263.493L251.756 261.767C251.372 261.511 251.18 261 251.436 260.553C251.692 260.105 252.267 259.977 252.651 260.233L255.655 261.959C255.783 262.023 255.974 261.959 255.974 261.767V258.251C255.974 257.74 256.422 257.356 256.869 257.356C257.381 257.356 257.764 257.74 257.764 258.251L257.7 261.703C257.7 261.895 257.892 261.959 258.02 261.895L261.024 260.169C261.472 259.913 261.983 260.105 262.239 260.489C262.494 260.936 262.303 261.447 261.919 261.703L258.979 263.493Z" fill="#036A79"/>
<path d="M328.524 257.932H326.798C326.67 255.631 324.753 253.777 322.452 253.777H314.142L313.119 250.325C313.119 250.197 312.991 250.134 312.928 250.134H290.044C289.916 250.134 289.852 250.197 289.852 250.325L288.83 253.777H281.415C281.351 247.193 281.223 228.464 281.159 221.625C281.159 221.497 281.031 221.369 280.967 221.369H267.736V217.79C267.672 211.462 262.494 206.284 256.102 206.284C253.673 206.284 251.436 207.051 249.518 208.393C248.943 208.01 248.304 207.626 247.665 207.371V128.94C248.176 129.068 248.687 129.132 249.199 129.132C252.395 129.132 255.016 126.511 255.016 123.315V121.27C255.016 121.206 253.673 118.649 247.665 107.207V87.1364C247.665 83.7486 244.916 81 241.528 81H144.881C141.493 81 138.744 83.7486 138.744 87.1364V107.207C131.393 121.27 131.393 121.206 131.393 121.334V123.315C131.393 126.511 134.014 129.132 137.21 129.132C137.722 129.132 138.233 129.068 138.744 128.94V276.021C138.744 277.3 139.128 278.45 139.767 279.473C140.854 281.071 142.707 282.158 144.817 282.158H219.54C219.54 285.609 219.604 288.358 219.604 291.362C219.604 291.49 219.732 291.554 219.795 291.554H324.945C327.054 291.554 328.844 289.828 328.844 287.655V262.854C330.122 262.662 330.953 261.575 330.953 260.425C331.017 259.082 329.93 257.932 328.524 257.932ZM290.172 250.645H312.736L313.695 253.841H289.277L290.172 250.645ZM322.452 254.224C324.561 254.224 326.223 255.886 326.351 257.932H276.557C276.685 255.886 278.347 254.224 280.456 254.224H322.452ZM268.503 236.263C268.503 237.349 267.608 238.244 266.521 238.244C265.435 238.244 264.54 237.349 264.476 236.263C264.476 235.56 264.795 234.92 265.371 234.601C265.69 234.409 266.074 234.281 266.457 234.281C267.608 234.281 268.503 235.176 268.503 236.263ZM256.038 206.795C262.175 206.795 267.16 211.781 267.224 217.854C267.224 219.196 267.288 227.57 267.352 233.962C267.097 233.834 266.777 233.77 266.457 233.77C266.138 233.77 265.818 233.834 265.562 233.962C265.562 230.83 265.435 220.602 265.435 217.854C265.371 212.74 261.152 208.521 256.038 208.521C251.692 208.521 248.176 211.462 247.153 215.361C246.706 216.959 246.834 216.192 246.962 233.962C246.706 233.834 246.386 233.77 246.067 233.77C245.747 233.77 245.428 233.834 245.172 233.962C245.172 229.743 245.172 232.491 245.044 217.854C245.044 211.717 249.966 206.795 256.038 206.795ZM251.628 214.722C251.244 213.571 250.605 212.548 249.774 211.653C249.838 211.589 250.413 211.014 251.116 210.503C252.906 212.484 253.929 215.041 253.993 217.854V221.433H252.203C252.139 218.621 252.459 216.959 251.628 214.722ZM251.82 221.433H247.601V215.425C247.984 214.082 248.624 212.932 249.455 211.973C250.094 212.676 250.605 213.443 250.989 214.274C252.139 216.831 251.628 218.685 251.82 221.433ZM251.5 210.247C252.842 209.416 254.44 208.969 256.038 208.969C260.896 208.969 264.923 212.932 264.987 217.854V221.433H254.376V217.854C254.44 215.233 253.482 212.484 251.5 210.247ZM244.66 221.433H234.05L233.986 217.854C233.986 215.616 234.753 213.443 236.415 211.717H238.78C239.099 211.717 239.099 211.27 238.78 211.27H236.862C238.46 209.8 240.57 209.033 242.743 209.033C244.277 209.033 245.747 209.416 247.089 210.183V210.631C245.364 212.74 244.533 215.297 244.533 217.918L244.66 221.433ZM248.112 236.263C248.112 237.349 247.281 238.244 246.131 238.244C245.044 238.244 244.085 237.349 244.085 236.263C244.085 235.176 244.98 234.281 246.067 234.281C247.217 234.281 248.112 235.176 248.112 236.263ZM249.071 208.713C248.432 209.224 247.856 209.8 247.729 209.928C247.089 209.352 244.98 208.521 242.807 208.521C237.693 208.521 233.538 212.74 233.602 217.854V221.433H231.812V217.854C231.749 211.717 236.67 206.795 242.807 206.795C244.98 206.795 247.153 207.371 249.071 208.713ZM226.955 232.491C226.507 231.852 220.499 223.095 219.668 221.945H233.986C224.589 236.071 227.53 231.597 226.955 232.491ZM254.504 123.315C254.504 126.256 252.075 128.685 249.135 128.685C246.195 128.685 243.766 126.256 243.766 123.315V121.589H254.504V123.315ZM254.376 121.142H243.702L237.885 107.527H247.281C247.409 107.847 254.312 121.078 254.376 121.142ZM176.202 121.142H165.463L168.723 107.527H178.119C177.608 110.979 176.713 117.626 176.202 121.142ZM143.155 121.142L148.972 107.527H158.368L153.83 121.142H143.155ZM153.766 121.589V123.315C153.766 126.256 151.337 128.685 148.396 128.685C145.456 128.685 143.027 126.256 143.027 123.315V121.589H153.766ZM154.213 121.589H164.952V123.315C164.952 126.256 162.523 128.685 159.582 128.685C156.642 128.685 154.213 126.256 154.213 123.315V121.589ZM154.341 121.142C154.341 121.078 158.751 107.847 158.879 107.527H168.276L165.016 121.142H154.341ZM165.399 121.589H176.138V123.315C176.138 126.256 173.709 128.685 170.768 128.685C167.828 128.685 165.399 126.256 165.399 123.315V121.589ZM176.585 121.589H187.324V123.315C187.324 126.256 184.895 128.685 181.955 128.685C179.014 128.685 176.585 126.256 176.585 123.315V121.589ZM178.567 107.527H188.027L187.388 121.142H176.649M188.474 107.527H197.935L198.574 121.142H187.835L188.474 107.527ZM187.835 121.589H198.574V123.315C198.574 126.256 196.145 128.685 193.205 128.685C190.264 128.685 187.835 126.256 187.835 123.315V121.589ZM198.318 107.527H207.778L209.696 121.142H198.957L198.318 107.527ZM199.021 121.589H209.76V123.315C209.76 126.256 207.331 128.685 204.391 128.685C201.45 128.685 199.021 126.256 199.021 123.315V121.589ZM208.226 107.527H217.622C217.622 107.655 220.69 120.567 220.818 121.142H210.08L208.226 107.527ZM210.207 121.589H220.946V123.315C220.946 126.256 218.517 128.685 215.577 128.685C212.636 128.685 210.207 126.256 210.207 123.315V121.589ZM218.133 107.527H227.53C233.858 126.575 231.493 119.544 232.068 121.142H221.33C217.942 106.888 218.133 107.591 218.133 107.527ZM221.393 121.589H232.132V123.315C232.132 126.256 229.703 128.685 226.763 128.685C223.822 128.685 221.393 126.256 221.393 123.315V121.589ZM227.977 107.527H237.374L243.19 121.142H232.516C228.105 107.783 227.977 107.527 227.977 107.527ZM232.58 121.589H243.318V123.315C243.318 126.256 240.889 128.685 237.949 128.685C235.008 128.685 232.58 126.256 232.58 123.315V121.589ZM211.678 81.5114L208.162 89.6932C207.714 90.7798 206.628 91.483 205.477 91.483H181.251C180.101 91.483 179.014 90.7798 178.567 89.6932L174.987 81.5114H211.678ZM139.192 87.1364C139.192 84.0043 141.749 81.4474 144.881 81.4474H174.54L178.183 89.821C178.695 91.0355 179.909 91.8665 181.251 91.8665H205.477C206.82 91.8665 208.034 91.0355 208.545 89.821L212.189 81.4474H241.464C244.597 81.4474 247.153 84.0043 247.153 87.1364V102.989H139.192V87.1364ZM139 107.719C138.936 107.783 138.936 107.847 139.064 107.527H148.46L142.643 121.142H131.969C137.274 110.979 138.68 108.294 139 107.719ZM137.21 128.685C134.27 128.685 131.841 126.256 131.841 123.315V121.589H142.58V123.315C142.58 126.32 140.151 128.685 137.21 128.685ZM144.881 281.646C143.027 281.646 141.365 280.751 140.342 279.345C139.639 278.386 139.256 277.236 139.256 275.957V128.812C140.982 128.173 142.388 126.703 142.899 124.913C143.602 127.342 145.839 129.132 148.524 129.132C151.209 129.132 153.446 127.342 154.149 124.913C154.852 127.342 157.089 129.132 159.774 129.132C162.459 129.132 164.696 127.342 165.399 124.913C166.102 127.342 168.339 129.132 171.024 129.132C173.709 129.132 175.946 127.342 176.649 124.913C177.352 127.342 179.589 129.132 182.274 129.132C184.959 129.132 187.196 127.342 187.899 124.913C188.602 127.342 190.839 129.132 193.524 129.132C196.209 129.132 198.446 127.342 199.149 124.913C199.852 127.342 202.089 129.132 204.774 129.132C207.459 129.132 209.696 127.342 210.399 124.913C211.102 127.342 213.339 129.132 216.024 129.132C218.709 129.132 220.946 127.342 221.649 124.913C222.352 127.342 224.589 129.132 227.274 129.132C229.959 129.132 232.196 127.342 232.899 124.913C233.602 127.342 235.839 129.132 238.524 129.132C241.209 129.132 243.446 127.342 244.149 124.913C244.66 126.703 246.003 128.173 247.793 128.812V207.179C246.45 206.604 244.916 206.348 243.446 206.348C239.547 206.348 236.159 208.266 234.05 211.27H189.753C189.625 211.27 189.561 211.398 189.561 211.462C189.561 211.589 189.689 211.717 189.753 211.717H233.73C232.58 213.507 231.94 215.616 232.004 217.854V221.433H219.859C219.732 221.433 219.668 221.561 219.668 221.689V222.839H189.753C189.625 222.839 189.561 222.967 189.561 223.095C189.561 223.223 189.689 223.287 189.753 223.287H219.668L219.731 229.743H189.753C189.625 229.743 189.561 229.871 189.561 229.935C189.561 229.999 189.689 230.19 189.753 230.19H219.731L219.795 236.646H189.753C189.625 236.646 189.561 236.774 189.561 236.902C189.561 237.03 189.689 237.094 189.753 237.094H219.795L219.859 243.55H189.753C189.625 243.55 189.561 243.678 189.561 243.741C189.561 243.805 189.689 243.997 189.753 243.997H219.859L219.923 250.453H189.753C189.625 250.453 189.561 250.581 189.561 250.645C189.561 250.709 189.689 250.837 189.753 250.837H219.923C220.435 307.278 219.859 246.234 220.179 281.518H144.881V281.646ZM219.476 222.456C219.476 222.456 226.187 232.172 226.699 232.939C226.699 234.409 227.082 280.112 227.082 280.112C226.891 280.368 220.754 289.572 220.051 290.595C220.115 289.956 220.115 296.412 219.476 222.456ZM220.307 291.107C220.562 290.723 220.69 290.467 220.818 290.339C221.841 288.805 227.338 280.624 227.402 280.56C227.658 280.943 234.561 291.043 234.689 291.107H220.307ZM227.594 280.112C227.594 278.067 227.21 235.751 227.146 232.939C228.616 230.83 234.178 222.456 234.178 222.392C234.178 222.456 234.753 290.467 234.753 290.595C234.817 290.531 227.594 280.112 227.594 280.112ZM235.264 291.107C235.264 290.212 234.689 222.392 234.625 221.881H244.597L244.724 234.153C244.085 234.601 243.638 235.368 243.638 236.199C243.638 237.541 244.788 238.628 246.131 238.628C247.473 238.628 248.56 237.541 248.56 236.199C248.56 235.432 248.176 234.601 247.409 234.153C247.409 231.213 247.345 223.798 247.281 221.881H264.987C265.051 226.163 265.115 232.875 265.115 234.153C264.476 234.601 264.028 235.368 264.028 236.199C264.028 237.541 265.115 238.628 266.521 238.628C267.928 238.628 268.95 237.477 268.95 236.199C268.95 235.432 268.567 234.601 267.8 234.153C267.8 234.601 267.672 222.712 267.672 221.881H280.648C280.648 224.885 280.584 215.361 280.903 253.777H280.392C278.091 253.777 276.173 255.631 276.045 257.932H274.383C273.041 257.932 271.891 259.018 271.891 260.425C271.891 261.703 272.913 262.726 274 262.854V287.655C274 289.125 274.831 290.403 276.045 291.107H235.264ZM328.46 287.719C328.46 289.636 326.926 291.17 325.009 291.17H277.899C275.982 291.17 274.447 289.636 274.447 287.719V262.918H328.396V287.719H328.46ZM328.524 262.47H274.383C273.297 262.47 272.338 261.575 272.338 260.425C272.338 259.274 273.233 258.379 274.383 258.379H328.524C329.675 258.379 330.57 259.274 330.57 260.425C330.57 261.511 329.675 262.47 328.524 262.47Z" fill="#036A79"/>
<path d="M176.649 121.142C177.544 114.814 177.544 114.814 176.649 121.142V121.142ZM139 107.719C139.064 107.591 139.192 107.399 139 107.719V107.719ZM232.068 121.142C232.004 121.014 232.004 121.078 232.068 121.142V121.142ZM301.166 286.44C306.344 286.44 310.626 282.222 310.69 276.98C310.754 271.739 306.536 267.52 301.358 267.52C296.18 267.52 291.898 271.739 291.834 276.98C291.77 282.222 295.989 286.44 301.166 286.44ZM301.358 268.031C306.28 268.031 310.307 272.058 310.243 277.044C310.179 282.03 306.088 286.057 301.166 286.057C296.244 286.057 292.217 282.03 292.281 277.044C292.345 272.058 296.372 268.031 301.358 268.031Z" fill="#036A79"/>
<path d="M298.29 279.92L300.207 278.834V281.007C300.207 281.646 300.719 282.03 301.23 282.03C301.805 282.03 302.253 281.582 302.253 281.007V278.898L304.106 279.984C304.618 280.304 305.257 280.112 305.513 279.601C305.832 279.089 305.64 278.45 305.129 278.195L303.211 277.108L305.129 276.021C305.64 275.702 305.832 275.062 305.513 274.615C305.193 274.104 304.554 273.976 304.106 274.232L302.253 275.254V273.081C302.253 272.506 301.805 272.058 301.23 272.058C300.655 272.058 300.143 272.506 300.143 273.081V275.318L298.29 274.232C297.778 273.976 297.139 274.104 296.883 274.615C296.564 275.126 296.755 275.766 297.267 276.021L299.121 277.108L297.203 278.195C296.947 278.322 296.819 278.578 296.692 278.834C296.628 279.089 296.692 279.345 296.819 279.601C297.139 280.048 297.778 280.176 298.29 279.92ZM297.203 278.834C297.267 278.642 297.331 278.578 297.459 278.45L299.696 277.172C299.824 277.108 299.824 276.852 299.696 276.788L297.523 275.51C297.267 275.318 297.139 274.999 297.331 274.679C297.523 274.359 297.842 274.295 298.162 274.487L300.335 275.766C300.463 275.83 300.655 275.766 300.655 275.574V272.953C300.655 272.634 300.91 272.378 301.294 272.378C301.613 272.378 301.869 272.634 301.869 272.953V275.51C301.869 275.702 302.061 275.766 302.189 275.702L304.362 274.423C304.682 274.232 305.001 274.359 305.193 274.615C305.385 274.871 305.257 275.254 304.937 275.446L302.7 276.724C302.572 276.788 302.508 276.98 302.7 277.108L304.937 278.386C305.257 278.578 305.321 278.898 305.129 279.217C304.937 279.537 304.554 279.601 304.298 279.409L302.125 278.131C301.997 278.067 301.805 278.131 301.805 278.322V280.815C301.805 281.135 301.55 281.391 301.23 281.391C300.91 281.391 300.655 281.135 300.655 280.815V278.259C300.655 278.067 300.463 278.003 300.335 278.067L298.098 279.345C297.778 279.537 297.459 279.409 297.267 279.153C297.203 279.153 297.139 279.026 297.203 278.834Z" fill="#036A79"/>
</svg>
