<svg width="105" height="160" viewBox="0 0 105 160" fill="none" xmlns="http://www.w3.org/2000/svg">
<g clip-path="url(#clip0_7_1133)">
<path d="M94.837 8.02352C105.526 18.7123 105.523 36.0647 94.837 46.7507L70.7465 70.8412L32.0193 32.1141L56.1098 8.02352C66.7986 -2.66527 84.151 -2.66251 94.837 8.02352Z" fill="#DBDBDB"/>
<path d="M95.2331 8.18503L51.6601 51.7579L31.9015 31.9993L55.713 8.18779C66.62 -2.71925 84.3288 -2.71925 95.2358 8.18779L95.2331 8.18503Z" fill="#F4F4F4"/>
<path d="M52.7773 52.143C52.5507 52.0297 52.4101 51.8187 52.2343 51.6468C51.5857 51.006 50.9489 50.3536 50.3081 49.7089C51.5466 48.4665 52.7812 47.2241 54.0237 45.9816C59.2356 40.7658 64.4515 35.5538 69.6674 30.3379C69.7025 30.3028 69.7338 30.2676 69.7807 30.2168C69.1399 28.7751 69.0852 27.3139 69.7416 25.8605C70.2417 24.7587 71.0426 23.9304 72.121 23.3756C74.2268 22.2973 76.8328 22.8169 78.3956 24.6259C79.9662 26.4427 80.0639 29.1033 78.6418 31.0607C77.3915 32.7837 74.8988 33.8699 72.2186 32.6743C71.5701 33.3268 70.9176 33.9871 70.2612 34.6435C64.471 40.4337 58.6808 46.2239 52.8906 52.0141C52.8516 52.0531 52.8125 52.1 52.7734 52.143H52.7773Z" fill="#475868"/>
<path d="M57.9541 57.3198C57.5205 57.0072 57.1845 56.5892 56.8055 56.2219C56.4109 55.839 56.0202 55.4483 55.6334 55.0576C55.5748 54.999 55.4966 54.9521 55.5044 54.8505C57.0047 53.3541 58.505 51.8578 60.0053 50.3614C62.0995 48.2672 64.1975 46.1731 66.2878 44.075C66.6863 43.6765 67.1708 43.5202 67.7178 43.5202C69.3861 43.5202 71.0544 43.5202 72.7227 43.5202C72.8281 43.5202 72.9297 43.5202 73.0235 43.5202C74.137 40.7111 76.8406 39.6757 79.0911 40.211C81.4861 40.7814 83.1036 42.8716 83.0801 45.3799C83.0606 47.7359 81.3376 49.8261 78.9934 50.3301C76.5984 50.8419 74.0315 49.6269 73.0235 47.0053H68.2569C64.8305 50.4317 61.3845 53.8777 57.9424 57.3198H57.9541Z" fill="#475868"/>
<path d="M47.6006 46.9584C47.4521 46.9154 47.374 46.7865 47.2763 46.6888C46.6043 46.0246 45.9401 45.3604 45.2759 44.6923C45.2212 44.6376 45.1274 44.5907 45.1665 44.4813C48.5929 41.0471 52.0233 37.6128 55.4615 34.1668V29.4393C52.5351 28.275 51.6092 25.4659 52.1718 23.2819C52.7695 20.9533 54.8871 19.3241 57.2626 19.3631C59.6615 19.4061 61.74 21.0861 62.2519 23.3717C62.7793 25.7238 61.6775 28.3454 58.9309 29.4354C58.9309 29.5409 58.9309 29.6542 58.9309 29.7675C58.9309 31.4358 58.927 33.1041 58.9348 34.7763C58.9348 35.3467 58.7473 35.8156 58.3448 36.2219C54.7621 39.8007 51.1833 43.3796 47.6006 46.9584Z" fill="#475868"/>
<path d="M55.5864 79.7538C55.563 79.7695 55.5435 79.7851 55.52 79.8046C55.5435 79.789 55.563 79.7734 55.5864 79.7538Z" fill="#10F2AE"/>
<path d="M8.346 94.516C-2.34279 83.8272 -2.34003 66.4749 8.346 55.7888L32.4365 31.6983L71.1637 70.4255L47.0732 94.516C36.3844 105.205 19.032 105.202 8.346 94.516Z" fill="#28D7D5"/>
<path d="M51.5179 50.781L71.2793 70.5424L47.4678 94.3539C36.5607 105.261 18.852 105.261 7.94495 94.3539L51.5179 50.781Z" fill="#036A79"/>
<path d="M17.4852 84.8173C14.2268 81.5589 12.4335 77.2299 12.4335 72.6236C12.4335 68.0172 14.2268 63.6882 17.4852 60.4298L28.7062 49.2088C29.3821 48.5329 30.4722 48.5329 31.1481 49.2088C31.824 49.8847 31.824 50.9748 31.1481 51.6507L19.9271 62.8716C17.3211 65.4776 15.8873 68.9392 15.8873 72.6236C15.8873 76.3079 17.3211 79.7695 19.9271 82.3755L17.4852 84.8173Z" fill="#FDFDFF"/>
<path d="M79.6264 106.552C93.4599 106.552 104.674 95.3377 104.674 81.5042C104.674 67.6706 93.4599 56.4563 79.6264 56.4563C65.7928 56.4563 54.5785 67.6706 54.5785 81.5042C54.5785 95.3377 65.7928 106.552 79.6264 106.552Z" fill="#EAEAEA"/>
<path d="M79.6263 103.762C91.9192 103.762 101.885 93.7971 101.885 81.5042C101.885 69.2113 91.9192 59.2459 79.6263 59.2459C67.3334 59.2459 57.368 69.2113 57.368 81.5042C57.368 93.7971 67.3334 103.762 79.6263 103.762Z" fill="#28D7D5"/>
<path d="M103.35 79.8203H55.9108V83.2467H103.35V79.8203Z" fill="#EAEAEA"/>
<path d="M0.321777 128.459H2.61519V130.99C2.61519 132.584 3.01371 133.768 3.81074 134.55C4.60777 135.331 5.82676 135.722 7.4638 135.722H11.4763C12.9727 135.722 13.7228 134.808 13.7228 132.975V119.383H15.9928V133.307C15.9928 134.917 16.6218 135.718 17.8799 135.718H18.5714V138.011H17.8799C16.4616 138.011 15.4575 137.421 14.8715 136.245C14.219 137.425 13.086 138.011 11.4802 138.011H7.4677C5.17429 138.011 3.41222 137.398 2.17761 136.171C0.942992 134.944 0.325684 133.217 0.325684 130.987V128.455L0.321777 128.459ZM6.05337 129.963H7.08091C6.76053 129.611 6.60425 129.224 6.60425 128.791C6.60425 128.248 6.7957 127.798 7.17859 127.443C7.56147 127.083 8.03031 126.904 8.58902 126.904C9.21023 126.904 9.73377 127.142 10.1635 127.619L9.49544 128.287C9.27274 128.033 8.97581 127.904 8.61246 127.904C8.32725 127.904 8.08111 127.998 7.88576 128.177C7.6865 128.361 7.58882 128.595 7.58882 128.881C7.58882 129.166 7.6865 129.42 7.88576 129.635C8.08501 129.85 8.32725 129.959 8.61246 129.959H10.4058V130.963H6.05337V129.959V129.963Z" fill="#475868"/>
<path d="M27.7881 138.011H18.2355V135.718H27.7881V138.011Z" fill="#475868"/>
<path d="M27.3114 135.718H28.7218C29.3587 135.718 29.8431 135.503 30.1791 135.073C30.5152 134.643 30.6792 134.054 30.6792 133.307V126.071H32.9727V133.307C32.9727 134.726 32.5859 135.862 31.8162 136.722C31.0426 137.582 30.0111 138.011 28.7218 138.011H27.3114V135.718ZM28.4093 123.368C28.4093 122.985 28.546 122.661 28.8156 122.387C29.0852 122.118 29.4056 121.981 29.7689 121.981C30.1323 121.981 30.48 122.118 30.7613 122.387C31.0387 122.657 31.1793 122.985 31.1793 123.368C31.1793 123.751 31.0387 124.075 30.7613 124.348C30.4839 124.618 30.1518 124.755 29.7689 124.755C29.386 124.755 29.0852 124.618 28.8156 124.348C28.546 124.079 28.4093 123.751 28.4093 123.368ZM32.4452 123.368C32.4452 122.985 32.5781 122.661 32.8398 122.387C33.1016 122.118 33.4259 121.981 33.8088 121.981C34.1916 121.981 34.5159 122.118 34.7894 122.387C35.059 122.657 35.1958 122.985 35.1958 123.368C35.1958 123.751 35.059 124.075 34.7894 124.348C34.5198 124.622 34.1916 124.755 33.8088 124.755C33.4259 124.755 33.1055 124.618 32.8398 124.348C32.5781 124.079 32.4452 123.751 32.4452 123.368Z" fill="#475868"/>
<path d="M35.6959 136.722C35.6959 136.323 35.8366 135.987 36.114 135.706C36.3914 135.429 36.7313 135.288 37.1298 135.288C37.5283 135.288 37.8643 135.429 38.1456 135.706C38.423 135.984 38.5637 136.323 38.5637 136.722C38.5637 137.121 38.4269 137.46 38.1573 137.75C37.8721 138.035 37.5283 138.179 37.1298 138.179C36.7313 138.179 36.3914 138.035 36.114 137.75C35.8366 137.464 35.6959 137.121 35.6959 136.722Z" fill="#475868"/>
<path d="M41.2869 119.383H43.5568V133.307C43.5568 134.917 44.1859 135.718 45.4439 135.718H46.0417V138.011H45.4439C44.1546 138.011 43.1388 137.582 42.4004 136.722C41.6619 135.862 41.2908 134.726 41.2908 133.307V119.383H41.2869Z" fill="#475868"/>
<path d="M55.1137 138.011H45.561V135.718H55.1137V138.011Z" fill="#475868"/>
<path d="M54.6371 135.718H58.2198C57.6299 135.319 57.161 134.8 56.8094 134.155C56.4578 133.51 56.2858 132.807 56.2858 132.041C56.2858 130.385 56.8719 128.974 58.0401 127.814C59.2122 126.654 60.6148 126.071 62.2558 126.071C63.8967 126.071 65.2993 126.654 66.4714 127.814C67.6435 128.978 68.2257 130.385 68.2257 132.041C68.2257 133.698 67.6435 135.108 66.4831 136.269C65.3189 137.433 63.9123 138.011 62.2558 138.011H54.6371V135.718ZM59.6537 134.643C60.3687 135.358 61.2399 135.718 62.2558 135.718C63.2716 135.718 64.1428 135.358 64.8578 134.643C65.5728 133.928 65.9323 133.061 65.9323 132.041C65.9323 131.022 65.5728 130.15 64.8578 129.428C64.1428 128.705 63.2716 128.341 62.2558 128.341C61.2399 128.341 60.3687 128.705 59.6537 129.428C58.9387 130.154 58.5793 131.026 58.5793 132.041C58.5793 133.057 58.9387 133.928 59.6537 134.643Z" fill="#475868"/>
<path d="M68.4171 141.043C68.7531 141.153 69.0774 141.211 69.3978 141.211C70.2886 141.211 70.9215 140.949 71.2966 140.422C71.6717 139.895 71.8592 139.078 71.8592 137.961V126.064L74.1526 126.04V137.984C74.1526 139.766 73.7502 141.125 72.9453 142.055C72.1405 142.985 70.984 143.454 69.4681 143.454C68.8625 143.454 68.296 143.36 67.7725 143.169L68.4171 141.043Z" fill="#475868"/>
<path d="M77.6143 119.383H79.8842V133.307C79.8842 134.917 80.5133 135.718 81.7713 135.718H82.3691V138.011H81.7713C80.482 138.011 79.4662 137.582 78.7278 136.722C77.9854 135.862 77.6182 134.726 77.6182 133.307V119.383H77.6143Z" fill="#475868"/>
<path d="M91.445 138.011H81.8923V135.718H91.445V138.011Z" fill="#475868"/>
<path d="M90.9684 135.718H95.0043C94.3675 135.273 93.8596 134.694 93.4884 133.987C93.1133 133.28 92.9258 132.51 92.9258 131.682C92.9258 130.139 93.4845 128.814 94.598 127.716C95.7115 126.618 97.0829 126.068 98.7082 126.068C100.333 126.068 101.814 126.658 102.959 127.834C104.104 129.013 104.678 130.471 104.678 132.206V138.011H90.9684V135.718ZM96.1022 134.643C96.8172 135.358 97.6845 135.718 98.7043 135.718H102.381V132.041C102.381 131.006 102.021 130.131 101.306 129.416C100.591 128.701 99.7201 128.341 98.7043 128.341C97.6884 128.341 96.8172 128.705 96.1022 129.428C95.3872 130.154 95.0278 131.026 95.0278 132.041C95.0278 133.057 95.3872 133.928 96.1022 134.643ZM97.6298 122.293C97.8994 122.024 98.2354 121.887 98.6339 121.887C99.0325 121.887 99.3685 122.028 99.6498 122.305C99.9272 122.583 100.068 122.922 100.068 123.321C100.068 123.719 99.9311 124.052 99.6615 124.325C99.3763 124.61 99.0325 124.755 98.6339 124.755C98.2354 124.755 97.8994 124.614 97.6298 124.337C97.3603 124.059 97.2235 123.719 97.2235 123.321C97.2235 122.922 97.3603 122.579 97.6298 122.293Z" fill="#475868"/>
<path d="M0.321777 159.816V147.111H2.40812V159.816H0.321777ZM1.75565 155.022V153.206H4.93205C5.36964 153.206 5.75253 153.12 6.08462 152.944C6.41672 152.768 6.68239 152.522 6.87384 152.202C7.06919 151.881 7.16296 151.502 7.16296 151.069C7.16296 150.635 7.06528 150.256 6.87384 149.936C6.67849 149.615 6.41672 149.365 6.08462 149.193C5.75253 149.017 5.36964 148.931 4.93205 148.931H1.75565V147.115H5.04145C5.83848 147.115 6.55737 147.279 7.19421 147.603C7.83106 147.931 8.33115 148.388 8.70232 148.982C9.06958 149.576 9.25712 150.272 9.25712 151.069C9.25712 151.866 9.07349 152.565 8.70232 153.155C8.33115 153.749 7.83106 154.206 7.19421 154.534C6.55737 154.862 5.84239 155.022 5.04145 155.022H1.75565Z" fill="#475868"/>
<path d="M11.0114 159.816V146.747H13.0078V159.816H11.0114ZM16.9852 159.816V154.788C16.9852 154.206 16.8015 153.729 16.4304 153.354C16.0592 152.979 15.5865 152.792 15.0043 152.792C14.6175 152.792 14.2737 152.878 13.969 153.046C13.6681 153.214 13.4298 153.452 13.2618 153.753C13.0938 154.054 13.0078 154.401 13.0078 154.788L12.2264 154.354C12.2264 153.69 12.371 153.1 12.664 152.584C12.9531 152.069 13.3556 151.666 13.8713 151.369C14.387 151.072 14.9613 150.924 15.606 150.924C16.2507 150.924 16.8406 151.069 17.3485 151.358C17.8564 151.647 18.255 152.049 18.548 152.565C18.8371 153.081 18.9817 153.675 18.9817 154.354V159.816H16.9852Z" fill="#475868"/>
<path d="M24.6624 160C23.8771 160 23.1661 159.801 22.5292 159.402C21.8924 159.004 21.3923 158.461 21.0211 157.777C20.6499 157.093 20.4663 156.327 20.4663 155.48C20.4663 154.632 20.6499 153.85 21.0211 153.167C21.3884 152.483 21.8924 151.94 22.5292 151.534C23.1661 151.127 23.8771 150.924 24.6624 150.924C25.3266 150.924 25.9166 151.065 26.4323 151.35C26.948 151.635 27.3544 152.026 27.6591 152.522C27.96 153.018 28.1123 153.581 28.1123 154.21V156.714C28.1123 157.343 27.9639 157.906 27.6669 158.402C27.37 158.898 26.9637 159.289 26.4401 159.574C25.9205 159.859 25.3266 160 24.6624 160ZM24.9906 158.113C25.7291 158.113 26.3229 157.867 26.78 157.371C27.2333 156.874 27.4599 156.238 27.4599 155.464C27.4599 154.944 27.3583 154.483 27.1512 154.085C26.9441 153.686 26.6589 153.374 26.2878 153.151C25.9166 152.928 25.4868 152.815 24.9906 152.815C24.4944 152.815 24.0803 152.928 23.7091 153.151C23.338 153.374 23.0488 153.686 22.8379 154.085C22.6269 154.483 22.5214 154.944 22.5214 155.464C22.5214 155.984 22.6269 156.445 22.8379 156.843C23.0488 157.242 23.338 157.554 23.7091 157.777C24.0764 158 24.5062 158.113 24.9906 158.113ZM27.3309 159.82V157.48L27.6747 155.355L27.3309 153.249V151.108H29.3274V159.82H27.3309Z" fill="#475868"/>
<path d="M31.5427 159.816V151.104H33.5392V159.816H31.5427ZM33.5392 154.972L32.8477 154.628C32.8477 153.526 33.0938 152.635 33.5822 151.952C34.0706 151.268 34.8129 150.928 35.8053 150.928C36.239 150.928 36.6336 151.006 36.9852 151.162C37.3368 151.319 37.6611 151.573 37.9659 151.924L36.657 153.268C36.5007 153.1 36.3249 152.979 36.1296 152.905C35.9342 152.831 35.7115 152.795 35.4576 152.795C34.8988 152.795 34.4417 152.971 34.0784 153.323C33.715 153.675 33.5353 154.225 33.5353 154.976L33.5392 154.972Z" fill="#475868"/>
<path d="M38.9309 159.816V151.104H40.9274V159.816H38.9309ZM44.7211 159.816V154.624C44.7211 154.042 44.5414 153.593 44.178 153.272C43.8147 152.952 43.3654 152.792 42.834 152.792C42.4707 152.792 42.1464 152.866 41.8612 153.01C41.576 153.155 41.3494 153.366 41.1813 153.635C41.0133 153.909 40.9274 154.237 40.9274 154.624L40.146 154.19C40.146 153.526 40.2906 152.952 40.5836 152.467C40.8727 151.983 41.2673 151.604 41.7635 151.334C42.2597 151.061 42.8145 150.924 43.4318 150.924C44.0491 150.924 44.6039 151.057 45.1001 151.323C45.5963 151.588 45.9909 151.963 46.28 152.448C46.5691 152.932 46.7137 153.514 46.7137 154.19V159.816H44.7172H44.7211ZM50.5113 159.816V154.624C50.5113 154.042 50.3316 153.593 49.9682 153.272C49.6049 152.952 49.1556 152.792 48.6242 152.792C48.2726 152.792 47.9522 152.866 47.6631 153.01C47.374 153.155 47.1435 153.366 46.9715 153.635C46.8035 153.909 46.7176 154.237 46.7176 154.624L45.5924 154.19C45.651 153.526 45.8463 152.952 46.1745 152.467C46.5027 151.983 46.9207 151.604 47.4365 151.334C47.9522 151.061 48.5148 150.924 49.1321 150.924C49.7494 150.924 50.3316 151.057 50.8395 151.323C51.3474 151.588 51.7537 151.963 52.0546 152.448C52.3554 152.932 52.5078 153.514 52.5078 154.19V159.816H50.5113Z" fill="#475868"/>
<path d="M58.2081 160C57.4228 160 56.7117 159.801 56.0749 159.402C55.438 159.004 54.9379 158.461 54.5668 157.777C54.1956 157.093 54.012 156.327 54.012 155.48C54.012 154.632 54.1956 153.85 54.5668 153.167C54.934 152.483 55.438 151.94 56.0749 151.534C56.7117 151.127 57.4228 150.924 58.2081 150.924C58.8723 150.924 59.4622 151.065 59.978 151.35C60.4937 151.635 60.9 152.026 61.2048 152.522C61.5056 153.018 61.658 153.581 61.658 154.21V156.714C61.658 157.343 61.5095 157.906 61.2126 158.402C60.9157 158.898 60.5093 159.289 59.9858 159.574C59.4662 159.859 58.8723 160 58.2081 160ZM58.5363 158.113C59.2747 158.113 59.8686 157.867 60.3257 157.371C60.7789 156.874 61.0055 156.238 61.0055 155.464C61.0055 154.944 60.9039 154.483 60.6969 154.085C60.4898 153.686 60.2046 153.374 59.8334 153.151C59.4622 152.928 59.0325 152.815 58.5363 152.815C58.0401 152.815 57.626 152.928 57.2548 153.151C56.8836 153.374 56.5945 153.686 56.3835 154.085C56.1725 154.483 56.067 154.944 56.067 155.464C56.067 155.984 56.1725 156.445 56.3835 156.843C56.5945 157.242 56.8875 157.554 57.2548 157.777C57.622 158 58.0518 158.113 58.5363 158.113ZM60.8766 159.82V157.48L61.2204 155.355L60.8766 153.249V151.108H62.8731V159.82H60.8766Z" fill="#475868"/>
<path d="M66.6121 160C66.2253 160 65.9088 159.871 65.6588 159.609C65.4087 159.348 65.2876 159.031 65.2876 158.656C65.2876 158.281 65.4126 157.949 65.6588 157.695C65.9049 157.441 66.2253 157.312 66.6121 157.312C66.9989 157.312 67.3153 157.441 67.5654 157.695C67.8115 157.949 67.9366 158.269 67.9366 158.656C67.9366 159.043 67.8115 159.348 67.5654 159.609C67.3153 159.871 66.9989 160 66.6121 160Z" fill="#475868"/>
<path d="M68.5187 149.017V147.111H78.884V149.017H68.5187ZM72.6562 159.816V147.474H74.7425V159.816H72.6562Z" fill="#475868"/>
<path d="M82.2245 160C81.3533 160 80.568 159.805 79.8725 159.41C79.1771 159.015 78.6262 158.476 78.2198 157.785C77.8135 157.093 77.6104 156.32 77.6104 155.46C77.6104 154.601 77.8096 153.831 78.2081 153.147C78.6066 152.463 79.1497 151.92 79.8334 151.522C80.5172 151.123 81.2751 150.924 82.1112 150.924C82.9473 150.924 83.6389 151.112 84.264 151.487C84.8852 151.862 85.3775 152.377 85.733 153.03C86.0886 153.682 86.2683 154.429 86.2683 155.261C86.2683 155.405 86.2605 155.554 86.2409 155.706C86.2214 155.859 86.1941 156.023 86.1589 156.206H79.0091V154.573H85.1274L84.3851 155.226C84.3617 154.694 84.2562 154.245 84.0765 153.882C83.8967 153.518 83.6389 153.241 83.3068 153.046C82.9747 152.854 82.5644 152.756 82.08 152.756C81.5721 152.756 81.1306 152.866 80.7555 153.085C80.3804 153.303 80.0913 153.608 79.8842 154.003C79.6772 154.397 79.5756 154.866 79.5756 155.409C79.5756 155.952 79.685 156.433 79.9038 156.843C80.1226 157.253 80.4312 157.574 80.8297 157.796C81.2282 158.019 81.6893 158.132 82.2089 158.132C82.6582 158.132 83.0724 158.054 83.4513 157.898C83.8342 157.742 84.1546 157.511 84.4242 157.206L85.694 158.496C85.272 158.992 84.7563 159.367 84.1507 159.621C83.5451 159.875 82.9044 160.004 82.2284 160.004L82.2245 160Z" fill="#475868"/>
<path d="M91.8787 160C91.0192 160 90.2417 159.801 89.5462 159.402C88.8508 159.004 88.3038 158.457 87.9053 157.769C87.5068 157.078 87.3075 156.312 87.3075 155.464C87.3075 154.616 87.5068 153.835 87.9053 153.151C88.3038 152.467 88.8508 151.924 89.5462 151.526C90.2417 151.127 91.0192 150.928 91.8787 150.928C92.5546 150.928 93.1876 151.057 93.7736 151.319C94.3597 151.58 94.8598 151.952 95.27 152.436L93.965 153.761C93.7111 153.46 93.4063 153.233 93.0469 153.081C92.6914 152.928 92.3007 152.854 91.8748 152.854C91.3786 152.854 90.941 152.967 90.5581 153.19C90.1752 153.413 89.8783 153.721 89.6673 154.108C89.4563 154.495 89.3509 154.948 89.3509 155.468C89.3509 155.988 89.4563 156.429 89.6673 156.82C89.8783 157.214 90.1752 157.523 90.5581 157.746C90.941 157.968 91.3786 158.082 91.8748 158.082C92.2968 158.082 92.6875 158.007 93.0469 157.855C93.4024 157.703 93.7111 157.476 93.965 157.175L95.27 158.5C94.8598 158.984 94.3597 159.355 93.7736 159.617C93.1876 159.879 92.5546 160.008 91.8787 160.008V160Z" fill="#475868"/>
<path d="M96.7078 159.816V146.747H98.7042V159.816H96.7078ZM102.682 159.816V154.788C102.682 154.206 102.498 153.729 102.127 153.354C101.756 152.979 101.283 152.792 100.701 152.792C100.314 152.792 99.9701 152.878 99.6654 153.046C99.3645 153.214 99.1262 153.452 98.9582 153.753C98.7902 154.054 98.7042 154.401 98.7042 154.788L97.9228 154.354C97.9228 153.69 98.0674 153.1 98.3565 152.584C98.6456 152.069 99.0481 151.666 99.5638 151.369C100.08 151.072 100.658 150.924 101.299 150.924C101.939 150.924 102.533 151.069 103.041 151.358C103.549 151.647 103.947 152.049 104.24 152.565C104.53 153.081 104.678 153.675 104.678 154.354V159.816H102.682Z" fill="#475868"/>
</g>
<defs>
<clipPath id="clip0_7_1133">
<rect width="104.356" height="160" fill="white" transform="translate(0.321777)"/>
</clipPath>
</defs>
</svg>
