<svg width="25" height="24" viewBox="0 0 25 24" fill="none" xmlns="http://www.w3.org/2000/svg">
<g clip-path="url(#clip0_30_3573)">
<path d="M12.5 24C15.0252 23.9976 17.4727 23.1264 19.4315 21.5327C21.3903 19.939 22.7412 17.7198 23.2572 15.2479C23.7733 12.776 23.4231 10.2017 22.2655 7.95747C21.1079 5.7132 19.2134 3.93555 16.9 2.92301C16.7795 2.86967 16.6497 2.84066 16.518 2.83766C16.3862 2.83466 16.2552 2.85772 16.1324 2.90552C16.0096 2.95333 15.8975 3.02492 15.8025 3.1162C15.7074 3.20748 15.6314 3.31663 15.5787 3.4374C15.526 3.55816 15.4976 3.68815 15.4953 3.8199C15.493 3.95164 15.5168 4.08254 15.5652 4.20508C15.6137 4.32761 15.6859 4.43937 15.7776 4.53391C15.8694 4.62846 15.979 4.70394 16.1 4.75601C17.9951 5.58308 19.5475 7.03743 20.4964 8.87452C21.4452 10.7116 21.7326 12.8194 21.3102 14.8434C20.8877 16.8675 19.7812 18.6844 18.1768 19.9885C16.5723 21.2927 14.5677 22.0047 12.5 22.0047C10.4323 22.0047 8.42773 21.2927 6.82326 19.9885C5.21878 18.6844 4.11229 16.8675 3.68984 14.8434C3.2674 12.8194 3.55477 10.7116 4.50363 8.87452C5.45248 7.03743 7.00496 5.58308 8.9 4.75601C9.02104 4.70394 9.1306 4.62846 9.22238 4.53391C9.31415 4.43937 9.38634 4.32761 9.43479 4.20508C9.48323 4.08254 9.50699 3.95164 9.50468 3.8199C9.50237 3.68815 9.47405 3.55816 9.42135 3.4374C9.36864 3.31663 9.29258 3.20748 9.19756 3.1162C9.10253 3.02492 8.99039 2.95333 8.8676 2.90552C8.74482 2.85772 8.61379 2.83466 8.48206 2.83766C8.35033 2.84066 8.22049 2.86967 8.1 2.92301C5.78666 3.93555 3.89214 5.7132 2.73454 7.95747C1.57694 10.2017 1.22676 12.776 1.7428 15.2479C2.25883 17.7198 3.60967 19.939 5.56847 21.5327C7.52728 23.1264 9.97478 23.9976 12.5 24Z" fill="#707070"/>
<path d="M12.5 9.99999C12.7652 9.99999 13.0196 9.89464 13.2071 9.7071C13.3946 9.51956 13.5 9.26521 13.5 8.99999V0.999999C13.5 0.734783 13.3946 0.480429 13.2071 0.292893C13.0196 0.105357 12.7652 0 12.5 0C12.2348 0 11.9804 0.105357 11.7929 0.292893C11.6054 0.480429 11.5 0.734783 11.5 0.999999V8.99999C11.5 9.26521 11.6054 9.51956 11.7929 9.7071C11.9804 9.89464 12.2348 9.99999 12.5 9.99999Z" fill="#707070"/>
</g>
<defs>
<clipPath id="clip0_30_3573">
<rect width="24" height="24" fill="white" transform="translate(0.5)"/>
</clipPath>
</defs>
</svg>
