<svg width="102" height="32" viewBox="0 0 102 32" fill="none" xmlns="http://www.w3.org/2000/svg">
<path d="M0.166504 9.3385H1.54413V10.8593C1.54413 11.8168 1.78351 12.5279 2.26228 12.9973C2.74105 13.4667 3.47328 13.7014 4.45663 13.7014H6.86689C7.76575 13.7014 8.21635 13.1522 8.21635 12.0515V3.88666H9.5799V12.251C9.5799 13.2179 9.95775 13.699 10.7134 13.699H11.1288V15.0767H10.7134C9.86153 15.0767 9.25837 14.7223 8.90634 14.0159C8.51441 14.7246 7.83381 15.0767 6.86924 15.0767H4.45897C3.08135 15.0767 2.0229 14.7082 1.28128 13.9713C0.53966 13.2343 0.168851 12.197 0.168851 10.8569V9.33615L0.166504 9.3385ZM3.6094 10.2421H4.22663C4.03419 10.0308 3.94031 9.79849 3.94031 9.53798C3.94031 9.21177 4.05531 8.94187 4.2853 8.7283C4.5153 8.51239 4.79693 8.40443 5.13253 8.40443C5.50569 8.40443 5.82017 8.5476 6.07833 8.83392L5.67701 9.23523C5.54324 9.08268 5.36488 9.00523 5.14661 9.00523C4.97529 9.00523 4.82744 9.06156 4.71009 9.16952C4.5904 9.27982 4.53173 9.42064 4.53173 9.59196C4.53173 9.76328 4.5904 9.91583 4.71009 10.0449C4.82978 10.174 4.97529 10.2397 5.14661 10.2397H6.22384V10.8429H3.6094V10.2397V10.2421Z" fill="#475868"/>
<path d="M16.6652 15.0767H10.927V13.699H16.6652V15.0767Z" fill="#475868"/>
<path d="M16.3789 13.699H17.2261C17.6087 13.699 17.8997 13.57 18.1015 13.3118C18.3034 13.0536 18.4019 12.6993 18.4019 12.251V7.90456H19.7796V12.251C19.7796 13.1029 19.5472 13.7859 19.0849 14.3022C18.6202 14.8185 18.0006 15.0767 17.2261 15.0767H16.3789V13.699ZM17.0384 6.28051C17.0384 6.05051 17.1205 5.85572 17.2825 5.69144C17.4444 5.5295 17.6368 5.44736 17.8551 5.44736C18.0734 5.44736 18.2822 5.5295 18.4512 5.69144C18.6178 5.85337 18.7023 6.05051 18.7023 6.28051C18.7023 6.5105 18.6178 6.70529 18.4512 6.86957C18.2846 7.03151 18.0851 7.11365 17.8551 7.11365C17.6251 7.11365 17.4444 7.03151 17.2825 6.86957C17.1205 6.70764 17.0384 6.5105 17.0384 6.28051ZM19.4627 6.28051C19.4627 6.05051 19.5425 5.85572 19.6998 5.69144C19.857 5.5295 20.0518 5.44736 20.2818 5.44736C20.5118 5.44736 20.7066 5.5295 20.8709 5.69144C21.0328 5.85337 21.1149 6.05051 21.1149 6.28051C21.1149 6.5105 21.0328 6.70529 20.8709 6.86957C20.7089 7.03386 20.5118 7.11365 20.2818 7.11365C20.0518 7.11365 19.8594 7.03151 19.6998 6.86957C19.5425 6.70764 19.4627 6.5105 19.4627 6.28051Z" fill="#475868"/>
<path d="M21.4153 14.3022C21.4153 14.0628 21.4998 13.861 21.6664 13.692C21.833 13.5254 22.0372 13.4409 22.2766 13.4409C22.516 13.4409 22.7178 13.5254 22.8868 13.692C23.0534 13.8586 23.1379 14.0628 23.1379 14.3022C23.1379 14.5416 23.0558 14.7458 22.8938 14.9194C22.7225 15.0908 22.516 15.1776 22.2766 15.1776C22.0372 15.1776 21.833 15.0908 21.6664 14.9194C21.4998 14.7481 21.4153 14.5416 21.4153 14.3022Z" fill="#475868"/>
<path d="M24.7737 3.88666H26.1372V12.251C26.1372 13.2179 26.5151 13.699 27.2708 13.699H27.6299V15.0767H27.2708C26.4963 15.0767 25.8861 14.8185 25.4425 14.3022C24.999 13.7859 24.776 13.1029 24.776 12.251V3.88666H24.7737Z" fill="#475868"/>
<path d="M33.0792 15.0767H27.3411V13.699H33.0792V15.0767Z" fill="#475868"/>
<path d="M32.793 13.6991H34.9451C34.5907 13.4597 34.3091 13.1475 34.0978 12.7603C33.8866 12.3731 33.7834 11.9506 33.7834 11.4906C33.7834 10.4955 34.1354 9.64832 34.8371 8.95129C35.5412 8.25426 36.3837 7.90457 37.3694 7.90457C38.3551 7.90457 39.1976 8.25426 39.9017 8.95129C40.6058 9.65067 40.9555 10.4955 40.9555 11.4906C40.9555 12.4857 40.6058 13.3329 39.9088 14.03C39.2094 14.7293 38.3645 15.0767 37.3694 15.0767H32.793V13.6991ZM35.8064 13.0537C36.2359 13.4831 36.7592 13.6991 37.3694 13.6991C37.9796 13.6991 38.503 13.4831 38.9324 13.0537C39.3619 12.6242 39.5778 12.1032 39.5778 11.4906C39.5778 10.8781 39.3619 10.3547 38.9324 9.92055C38.503 9.48638 37.9796 9.26812 37.3694 9.26812C36.7592 9.26812 36.2359 9.48638 35.8064 9.92055C35.3769 10.3571 35.161 10.8804 35.161 11.4906C35.161 12.1008 35.3769 12.6242 35.8064 13.0537Z" fill="#475868"/>
<path d="M41.0706 16.8978C41.2724 16.9636 41.4672 16.9988 41.6597 16.9988C42.1948 16.9988 42.5749 16.8415 42.8002 16.5247C43.0256 16.2079 43.1382 15.7174 43.1382 15.0461V7.89985L44.5158 7.88577V15.0602C44.5158 16.1304 44.2741 16.9471 43.7906 17.5057C43.3072 18.0643 42.6125 18.3459 41.7019 18.3459C41.3381 18.3459 40.9978 18.2896 40.6833 18.1746L41.0706 16.8978Z" fill="#475868"/>
<path d="M46.595 3.88666H47.9585V12.251C47.9585 13.2179 48.3364 13.699 49.0921 13.699H49.4511V15.0767H49.0921C48.3176 15.0767 47.7074 14.8185 47.2638 14.3022C46.8179 13.7859 46.5973 13.1029 46.5973 12.251V3.88666H46.595Z" fill="#475868"/>
<path d="M54.903 15.0767H49.1648V13.699H54.903V15.0767Z" fill="#475868"/>
<path d="M54.6167 13.699H57.041C56.6585 13.4315 56.3534 13.0841 56.1304 12.6594C55.9051 12.2346 55.7925 11.7722 55.7925 11.2747C55.7925 10.3477 56.1281 9.55207 56.797 8.89259C57.4658 8.23311 58.2896 7.9022 59.2659 7.9022C60.2422 7.9022 61.1317 8.25658 61.8193 8.963C62.507 9.67176 62.852 10.5472 62.852 11.5892V15.0767H54.6167V13.699ZM57.7005 13.0536C58.13 13.4831 58.651 13.699 59.2636 13.699H61.472V11.4906C61.472 10.8687 61.2561 10.343 60.8266 9.91349C60.3971 9.484 59.8737 9.26809 59.2636 9.26809C58.6534 9.26809 58.13 9.48635 57.7005 9.92053C57.271 10.357 57.0551 10.8804 57.0551 11.4906C57.0551 12.1008 57.271 12.6241 57.7005 13.0536ZM58.6182 5.6351C58.7801 5.47317 58.9819 5.39102 59.2213 5.39102C59.4607 5.39102 59.6625 5.47551 59.8315 5.64214C59.9981 5.80877 60.0826 6.01295 60.0826 6.25234C60.0826 6.49172 60.0005 6.6912 59.8385 6.85548C59.6672 7.02681 59.4607 7.11364 59.2213 7.11364C58.9819 7.11364 58.7801 7.02915 58.6182 6.86252C58.4562 6.69589 58.3741 6.49172 58.3741 6.25234C58.3741 6.01295 58.4562 5.80642 58.6182 5.6351Z" fill="#475868"/>
<path d="M0.166504 27.9983V20.3662H1.41975V27.9983H0.166504ZM1.02781 25.1187V24.0274H2.93584C3.19869 24.0274 3.42869 23.9757 3.62817 23.8701C3.82766 23.7645 3.98725 23.6167 4.10225 23.4242C4.21959 23.2318 4.27592 23.0041 4.27592 22.7436C4.27592 22.4831 4.21724 22.2555 4.10225 22.063C3.9849 21.8706 3.82766 21.7204 3.62817 21.6171C3.42869 21.5115 3.19869 21.4599 2.93584 21.4599H1.02781V20.3686H3.00155C3.48032 20.3686 3.91215 20.4671 4.29469 20.6619C4.67724 20.8591 4.97764 21.1336 5.20059 21.4904C5.4212 21.8471 5.53385 22.2648 5.53385 22.7436C5.53385 23.2224 5.42355 23.6425 5.20059 23.9969C4.97764 24.3536 4.67724 24.6282 4.29469 24.8253C3.91215 25.0224 3.48267 25.1187 3.00155 25.1187H1.02781Z" fill="#475868"/>
<path d="M6.58765 27.9983V20.1479H7.78691V27.9983H6.58765ZM10.176 27.9983V24.9779C10.176 24.6282 10.0657 24.3419 9.84279 24.1165C9.61983 23.8912 9.33586 23.7786 8.98617 23.7786C8.75383 23.7786 8.5473 23.8302 8.36425 23.9311C8.18353 24.0321 8.04037 24.1752 7.93946 24.3559C7.83854 24.5366 7.78691 24.7455 7.78691 24.9779L7.31753 24.7174C7.31753 24.3184 7.40437 23.964 7.58038 23.6542C7.75405 23.3444 7.99578 23.1027 8.30557 22.9243C8.61536 22.746 8.96036 22.6568 9.34759 22.6568C9.73483 22.6568 10.0892 22.7436 10.3943 22.9173C10.6994 23.091 10.9388 23.3327 11.1148 23.6425C11.2885 23.9523 11.3753 24.309 11.3753 24.7174V27.9983H10.176Z" fill="#475868"/>
<path d="M14.7877 28.1086C14.3159 28.1086 13.8888 27.9889 13.5062 27.7495C13.1237 27.5101 12.8233 27.1839 12.6003 26.7732C12.3774 26.3625 12.2671 25.9025 12.2671 25.3932C12.2671 24.884 12.3774 24.4146 12.6003 24.0039C12.821 23.5932 13.1237 23.267 13.5062 23.0229C13.8888 22.7788 14.3159 22.6568 14.7877 22.6568C15.1866 22.6568 15.541 22.7413 15.8508 22.9126C16.1606 23.0839 16.4047 23.3186 16.5877 23.6166C16.7684 23.9147 16.86 24.2527 16.86 24.6305V26.1349C16.86 26.5127 16.7708 26.8507 16.5924 27.1487C16.4141 27.4468 16.17 27.6815 15.8555 27.8528C15.5434 28.0241 15.1866 28.1086 14.7877 28.1086ZM14.9848 26.9751C15.4284 26.9751 15.7851 26.8272 16.0597 26.5291C16.3319 26.2311 16.468 25.8485 16.468 25.3839C16.468 25.0717 16.407 24.7948 16.2826 24.5554C16.1582 24.316 15.9869 24.1283 15.764 23.9945C15.541 23.8607 15.2828 23.7927 14.9848 23.7927C14.6867 23.7927 14.438 23.8607 14.215 23.9945C13.9921 24.1283 13.8184 24.316 13.6917 24.5554C13.5649 24.7948 13.5016 25.0717 13.5016 25.3839C13.5016 25.696 13.5649 25.9729 13.6917 26.2123C13.8184 26.4517 13.9921 26.6394 14.215 26.7732C14.4356 26.907 14.6938 26.9751 14.9848 26.9751ZM16.3906 28.0006V26.5949L16.5971 25.3181L16.3906 24.0532V22.7671H17.5898V28.0006H16.3906Z" fill="#475868"/>
<path d="M18.9204 27.9983V22.7647H20.1197V27.9983H18.9204ZM20.1197 25.0882L19.7043 24.8816C19.7043 24.2198 19.8521 23.6847 20.1455 23.274C20.4388 22.8633 20.8848 22.6591 21.4809 22.6591C21.7414 22.6591 21.9784 22.7061 22.1896 22.7999C22.4009 22.8938 22.5956 23.0464 22.7787 23.2576L21.9925 24.0649C21.8986 23.964 21.793 23.8912 21.6757 23.8466C21.5583 23.8021 21.4245 23.7809 21.272 23.7809C20.9364 23.7809 20.6618 23.8865 20.4435 24.0978C20.2253 24.309 20.1173 24.6399 20.1173 25.0905L20.1197 25.0882Z" fill="#475868"/>
<path d="M23.3584 27.9983V22.7647H24.5577V27.9983H23.3584ZM26.8365 27.9983V24.8793C26.8365 24.5296 26.7285 24.2597 26.5103 24.0672C26.292 23.8748 26.0221 23.7786 25.7029 23.7786C25.4847 23.7786 25.2899 23.8232 25.1186 23.91C24.9472 23.9968 24.8111 24.1236 24.7102 24.2855C24.6093 24.4498 24.5577 24.6469 24.5577 24.8793L24.0883 24.6188C24.0883 24.2198 24.1751 23.8748 24.3511 23.5838C24.5248 23.2928 24.7618 23.0651 25.0599 22.9032C25.358 22.7389 25.6912 22.6568 26.062 22.6568C26.4328 22.6568 26.7661 22.7366 27.0641 22.8961C27.3622 23.0557 27.5992 23.281 27.7729 23.5721C27.9466 23.8631 28.0334 24.2128 28.0334 24.6188V27.9983H26.8341H26.8365ZM30.3146 27.9983V24.8793C30.3146 24.5296 30.2066 24.2597 29.9884 24.0672C29.7701 23.8748 29.5002 23.7786 29.181 23.7786C28.9698 23.7786 28.7774 23.8232 28.6037 23.91C28.43 23.9968 28.2916 24.1236 28.1883 24.2855C28.0874 24.4498 28.0358 24.6469 28.0358 24.8793L27.3599 24.6188C27.3951 24.2198 27.5124 23.8748 27.7095 23.5838C27.9067 23.2928 28.1578 23.0651 28.4676 22.9032C28.7774 22.7389 29.1153 22.6568 29.4861 22.6568C29.8569 22.6568 30.2066 22.7366 30.5117 22.8961C30.8168 23.0557 31.0609 23.281 31.2416 23.5721C31.4223 23.8631 31.5139 24.2128 31.5139 24.6188V27.9983H30.3146Z" fill="#475868"/>
<path d="M34.938 28.1086C34.4663 28.1086 34.0392 27.9889 33.6566 27.7495C33.2741 27.5101 32.9737 27.1839 32.7507 26.7732C32.5278 26.3625 32.4175 25.9025 32.4175 25.3932C32.4175 24.884 32.5278 24.4146 32.7507 24.0039C32.9713 23.5932 33.2741 23.267 33.6566 23.0229C34.0392 22.7788 34.4663 22.6568 34.938 22.6568C35.337 22.6568 35.6914 22.7413 36.0012 22.9126C36.311 23.0839 36.5551 23.3186 36.7381 23.6166C36.9188 23.9147 37.0104 24.2527 37.0104 24.6305V26.1349C37.0104 26.5127 36.9212 26.8507 36.7428 27.1487C36.5644 27.4468 36.3204 27.6815 36.0059 27.8528C35.6937 28.0241 35.337 28.1086 34.938 28.1086ZM35.1352 26.9751C35.5787 26.9751 35.9355 26.8272 36.2101 26.5291C36.4823 26.2311 36.6184 25.8485 36.6184 25.3839C36.6184 25.0717 36.5574 24.7948 36.433 24.5554C36.3086 24.316 36.1373 24.1283 35.9144 23.9945C35.6914 23.8607 35.4332 23.7927 35.1352 23.7927C34.8371 23.7927 34.5884 23.8607 34.3654 23.9945C34.1424 24.1283 33.9688 24.316 33.842 24.5554C33.7153 24.7948 33.6519 25.0717 33.6519 25.3839C33.6519 25.696 33.7153 25.9729 33.842 26.2123C33.9688 26.4517 34.1448 26.6394 34.3654 26.7732C34.586 26.907 34.8442 26.9751 35.1352 26.9751ZM36.541 28.0006V26.5949L36.7475 25.3181L36.541 24.0532V22.7671H37.7402V28.0006H36.541Z" fill="#475868"/>
<path d="M39.9863 28.1086C39.7539 28.1086 39.5638 28.0311 39.4136 27.8739C39.2634 27.7167 39.1907 27.5266 39.1907 27.3013C39.1907 27.076 39.2658 26.8765 39.4136 26.7239C39.5615 26.5714 39.7539 26.4939 39.9863 26.4939C40.2186 26.4939 40.4087 26.5714 40.5589 26.7239C40.7068 26.8765 40.7819 27.0689 40.7819 27.3013C40.7819 27.5336 40.7068 27.7167 40.5589 27.8739C40.4087 28.0311 40.2186 28.1086 39.9863 28.1086Z" fill="#475868"/>
<path d="M41.1316 21.5115V20.3662H47.3579V21.5115H41.1316ZM43.617 27.9983V20.5845H44.8702V27.9983H43.617Z" fill="#475868"/>
<path d="M49.3645 28.1086C48.8411 28.1086 48.3694 27.9913 47.9516 27.7542C47.5339 27.5172 47.203 27.1933 46.9589 26.7779C46.7148 26.3625 46.5928 25.8978 46.5928 25.3815C46.5928 24.8652 46.7125 24.4029 46.9518 23.9922C47.1912 23.5814 47.5174 23.2552 47.9282 23.0158C48.3389 22.7765 48.7942 22.6568 49.2964 22.6568C49.7986 22.6568 50.214 22.7694 50.5895 22.9947C50.9627 23.22 51.2584 23.5298 51.472 23.9217C51.6855 24.3137 51.7935 24.7619 51.7935 25.2618C51.7935 25.3487 51.7888 25.4378 51.7771 25.5294C51.7653 25.6209 51.7489 25.7195 51.7278 25.8298H47.433V24.8488H51.1082L50.6623 25.2407C50.6482 24.9215 50.5848 24.6516 50.4769 24.4334C50.3689 24.2151 50.214 24.0485 50.0145 23.9311C49.8151 23.8161 49.5686 23.7575 49.2776 23.7575C48.9725 23.7575 48.7073 23.8232 48.482 23.9546C48.2567 24.086 48.083 24.2691 47.9587 24.5061C47.8343 24.7432 47.7733 25.0248 47.7733 25.351C47.7733 25.6772 47.839 25.9659 47.9704 26.2123C48.1018 26.4587 48.2872 26.6512 48.5266 26.785C48.766 26.9187 49.0429 26.9868 49.3551 26.9868C49.625 26.9868 49.8737 26.9399 50.1014 26.846C50.3314 26.7521 50.5238 26.6136 50.6858 26.4306L51.4485 27.2051C51.195 27.5031 50.8852 27.7284 50.5215 27.881C50.1577 28.0335 49.7728 28.1109 49.3668 28.1109L49.3645 28.1086Z" fill="#475868"/>
<path d="M55.1636 28.1086C54.6473 28.1086 54.1802 27.9889 53.7625 27.7495C53.3447 27.5102 53.0162 27.1816 52.7768 26.7685C52.5374 26.3531 52.4177 25.8931 52.4177 25.3839C52.4177 24.8746 52.5374 24.4052 52.7768 23.9945C53.0162 23.5838 53.3447 23.2576 53.7625 23.0182C54.1802 22.7788 54.6473 22.6591 55.1636 22.6591C55.5696 22.6591 55.9498 22.7366 56.3018 22.8938C56.6539 23.0511 56.9543 23.274 57.2007 23.565L56.4168 24.3606C56.2643 24.1799 56.0812 24.0438 55.8653 23.9523C55.6517 23.8607 55.4171 23.8161 55.1612 23.8161C54.8632 23.8161 54.6003 23.8842 54.3703 24.018C54.1403 24.1517 53.962 24.3372 53.8352 24.5695C53.7085 24.8018 53.6451 25.0741 53.6451 25.3862C53.6451 25.6984 53.7085 25.9636 53.8352 26.1982C53.962 26.4353 54.1403 26.6207 54.3703 26.7545C54.6003 26.8882 54.8632 26.9563 55.1612 26.9563C55.4147 26.9563 55.6494 26.9117 55.8653 26.8202C56.0789 26.7286 56.2643 26.5925 56.4168 26.4118L57.2007 27.2074C56.9543 27.4984 56.6539 27.7214 56.3018 27.8786C55.9498 28.0359 55.5696 28.1133 55.1636 28.1133V28.1086Z" fill="#475868"/>
<path d="M58.0642 27.9983V20.1479H59.2635V27.9983H58.0642ZM61.6526 27.9983V24.9779C61.6526 24.6282 61.5423 24.3419 61.3194 24.1165C61.0964 23.8912 60.8124 23.7786 60.4627 23.7786C60.2304 23.7786 60.0239 23.8302 59.8408 23.9311C59.6601 24.0321 59.5169 24.1752 59.416 24.3559C59.3151 24.5366 59.2635 24.7455 59.2635 24.9779L58.7941 24.7174C58.7941 24.3184 58.8809 23.964 59.0546 23.6542C59.2283 23.3444 59.47 23.1027 59.7798 22.9243C60.0896 22.746 60.4369 22.6568 60.8218 22.6568C61.2067 22.6568 61.5634 22.7436 61.8685 22.9173C62.1736 23.091 62.413 23.3327 62.589 23.6425C62.7627 23.9523 62.8519 24.309 62.8519 24.7174V27.9983H61.6526Z" fill="#475868"/>
<path d="M99.0459 2.40758C102.256 5.61789 102.255 10.8296 99.0459 14.039L91.8104 21.2745L80.179 9.64302L87.4144 2.40758C90.6247 -0.802737 95.8364 -0.801907 99.0459 2.40758Z" fill="#DBDBDB"/>
<path d="M99.1648 2.45607L86.0779 15.5429L80.1436 9.60854L87.2952 2.4569C90.5711 -0.818966 95.8898 -0.818966 99.1656 2.4569L99.1648 2.45607Z" fill="#F4F4F4"/>
<path d="M86.4132 15.6586C86.3452 15.6246 86.3029 15.5612 86.2501 15.5096C86.0553 15.3171 85.8641 15.1211 85.6716 14.9275C86.0436 14.5544 86.4144 14.1812 86.7876 13.8081C88.353 12.2415 89.9195 10.6761 91.4861 9.10958C91.4966 9.09901 91.506 9.08845 91.5201 9.0732C91.3276 8.6402 91.3112 8.20133 91.5084 7.76481C91.6586 7.43389 91.8991 7.18512 92.223 7.01849C92.8555 6.69462 93.6382 6.85069 94.1075 7.394C94.5793 7.93965 94.6086 8.73877 94.1815 9.32666C93.806 9.84415 93.0573 10.1704 92.2523 9.8113C92.0575 10.0073 91.8616 10.2056 91.6644 10.4027C89.9254 12.1418 88.1863 13.8808 86.4473 15.6199C86.4355 15.6316 86.4238 15.6457 86.4121 15.6586H86.4132Z" fill="#475868"/>
<path d="M87.9681 17.2134C87.8378 17.1195 87.7369 16.994 87.6231 16.8837C87.5046 16.7687 87.3872 16.6513 87.2711 16.534C87.2535 16.5164 87.23 16.5023 87.2323 16.4718C87.6829 16.0224 88.1335 15.5729 88.5842 15.1235C89.2131 14.4945 89.8433 13.8656 90.4711 13.2354C90.5907 13.1157 90.7363 13.0688 90.9005 13.0688C91.4016 13.0688 91.9027 13.0688 92.4037 13.0688C92.4354 13.0688 92.4659 13.0688 92.4941 13.0688C92.8285 12.2251 93.6405 11.9141 94.3164 12.0749C95.0358 12.2462 95.5216 12.874 95.5145 13.6274C95.5087 14.3349 94.9912 14.9627 94.2871 15.1141C93.5678 15.2678 92.7968 14.9029 92.4941 14.1155H91.0625C90.0334 15.1446 88.9984 16.1796 87.9646 17.2134H87.9681Z" fill="#475868"/>
<path d="M84.8586 14.1014C84.814 14.0885 84.7905 14.0498 84.7612 14.0204C84.5594 13.821 84.3599 13.6215 84.1604 13.4208C84.144 13.4044 84.1158 13.3903 84.1275 13.3574C85.1567 12.326 86.1869 11.2945 87.2196 10.2595V8.83967C86.3407 8.48998 86.0626 7.64627 86.2315 6.99032C86.4111 6.29094 87.0471 5.80161 87.7605 5.81335C88.481 5.82626 89.1053 6.33084 89.259 7.0173C89.4174 7.72372 89.0865 8.5111 88.2616 8.83849C88.2616 8.87018 88.2616 8.90421 88.2616 8.93824C88.2616 9.4393 88.2604 9.94036 88.2628 10.4426C88.2628 10.6139 88.2064 10.7547 88.0856 10.8768C87.0095 11.9517 85.9346 13.0265 84.8586 14.1014Z" fill="#475868"/>
<path d="M87.257 23.9513C87.25 23.956 87.2441 23.9607 87.2371 23.9666C87.2441 23.9619 87.25 23.9572 87.257 23.9513Z" fill="#10F2AE"/>
<path d="M73.0688 28.385C69.8585 25.1747 69.8593 19.9631 73.0688 16.7536L80.3042 9.51813L91.9357 21.1496L84.7003 28.385C81.49 31.5954 76.2783 31.5945 73.0688 28.385Z" fill="#28D7D5"/>
<path d="M86.0351 15.2495L91.9703 21.1847L84.8187 28.3364C81.5428 31.6122 76.2241 31.6122 72.9482 28.3364L86.0351 15.2495Z" fill="#036A79"/>
<path d="M75.8137 25.4721C74.835 24.4935 74.2964 23.1933 74.2964 21.8098C74.2964 20.4263 74.835 19.1261 75.8137 18.1475L79.1838 14.7773C79.3868 14.5743 79.7142 14.5743 79.9172 14.7773C80.1202 14.9803 80.1202 15.3077 79.9172 15.5107L76.5471 18.8809C75.7644 19.6636 75.3337 20.7032 75.3337 21.8098C75.3337 22.9163 75.7644 23.956 76.5471 24.7387L75.8137 25.4721Z" fill="#FDFDFF"/>
<path d="M94.4773 32C98.6321 32 102 28.6319 102 24.477C102 20.3222 98.6321 16.9541 94.4773 16.9541C90.3225 16.9541 86.9543 20.3222 86.9543 24.477C86.9543 28.6319 90.3225 32 94.4773 32Z" fill="#EAEAEA"/>
<path d="M94.4774 31.1622C98.1695 31.1622 101.162 28.1691 101.162 24.477C101.162 20.7849 98.1695 17.7919 94.4774 17.7919C90.7853 17.7919 87.7922 20.7849 87.7922 24.477C87.7922 28.1691 90.7853 31.1622 94.4774 31.1622Z" fill="#28D7D5"/>
<path d="M101.602 23.9713H87.3545V25.0004H101.602V23.9713Z" fill="#EAEAEA"/>
</svg>
