<svg width="32" height="34" viewBox="0 0 32 34" fill="none" xmlns="http://www.w3.org/2000/svg">
<path d="M28.9831 3.12086C32.2611 6.39888 32.2603 11.7205 28.9831 14.9977L21.5951 22.3857L9.71826 10.5089L17.1063 3.12086C20.3843 -0.157165 25.7059 -0.156318 28.9831 3.12086Z" fill="#DBDBDB"/>
<path d="M29.1046 3.17041L15.7417 16.5333L9.68219 10.4737L16.9847 3.17125C20.3296 -0.173702 25.7605 -0.173703 29.1055 3.17125L29.1046 3.17041Z" fill="#F4F4F4"/>
<path d="M16.0843 16.6514C16.0149 16.6166 15.9717 16.5519 15.9178 16.4992C15.7189 16.3027 15.5236 16.1026 15.3271 15.9049C15.7069 15.5239 16.0855 15.1428 16.4666 14.7618C18.065 13.1622 19.6646 11.5638 21.2642 9.96422C21.2749 9.95344 21.2845 9.94266 21.2989 9.92708C21.1024 9.48494 21.0856 9.03682 21.2869 8.59109C21.4403 8.2532 21.6859 7.99918 22.0166 7.82904C22.6625 7.49833 23.4616 7.65769 23.9409 8.21246C24.4226 8.76962 24.4526 9.58559 24.0164 10.1859C23.633 10.7143 22.8685 11.0474 22.0466 10.6807C21.8477 10.8808 21.6476 11.0833 21.4463 11.2846C19.6706 13.0604 17.8948 14.8361 16.1191 16.6118C16.1071 16.6238 16.0951 16.6382 16.0831 16.6514H16.0843Z" fill="#475868"/>
<path d="M17.672 18.239C17.539 18.1431 17.4359 18.0149 17.3197 17.9023C17.1987 17.7849 17.0789 17.665 16.9602 17.5452C16.9423 17.5272 16.9183 17.5129 16.9207 17.4817C17.3808 17.0228 17.8409 16.5639 18.301 16.105C18.9433 15.4627 19.5867 14.8205 20.2277 14.1771C20.3499 14.0549 20.4985 14.0069 20.6663 14.0069C21.1779 14.0069 21.6895 14.0069 22.2012 14.0069C22.2335 14.0069 22.2647 14.0069 22.2934 14.0069C22.6349 13.1454 23.4641 12.8279 24.1542 12.9921C24.8887 13.167 25.3848 13.808 25.3776 14.5773C25.3716 15.2998 24.8432 15.9408 24.1243 16.0954C23.3898 16.2524 22.6026 15.8797 22.2934 15.0757H20.8316C19.7808 16.1265 18.724 17.1834 17.6684 18.239H17.672Z" fill="#475868"/>
<path d="M14.4968 15.0613C14.4512 15.0482 14.4273 15.0086 14.3973 14.9787C14.1912 14.775 13.9875 14.5713 13.7838 14.3664C13.7671 14.3496 13.7383 14.3352 13.7503 14.3017C14.8011 13.2485 15.8531 12.1953 16.9075 11.1384V9.68863C16.0101 9.33157 15.7261 8.47006 15.8986 7.80027C16.082 7.08614 16.7314 6.5865 17.4599 6.59848C18.1956 6.61166 18.833 7.12688 18.99 7.82783C19.1518 8.54914 18.8139 9.35313 17.9715 9.68743C17.9715 9.71978 17.9715 9.75453 17.9715 9.78928C17.9715 10.3009 17.9703 10.8125 17.9727 11.3254C17.9727 11.5003 17.9152 11.6441 17.7918 11.7687C16.693 12.8662 15.5955 13.9638 14.4968 15.0613Z" fill="#475868"/>
<path d="M16.9458 25.119C16.9387 25.1238 16.9327 25.1286 16.9255 25.1346C16.9327 25.1298 16.9387 25.125 16.9458 25.119Z" fill="#10F2AE"/>
<path d="M2.4582 29.6463C-0.819824 26.3682 -0.818977 21.0466 2.4582 17.7695L9.84625 10.3814L21.7231 22.2582L14.335 29.6463C11.057 32.9243 5.73538 32.9234 2.4582 29.6463Z" fill="#28D7D5"/>
<path d="M15.6981 16.2337L21.7585 22.2941L14.456 29.5966C11.1111 32.9415 5.68016 32.9415 2.33521 29.5966L15.6981 16.2337Z" fill="#036A79"/>
<path d="M5.261 26.6719C4.2617 25.6726 3.71173 24.345 3.71173 22.9323C3.71173 21.5197 4.2617 20.1921 5.261 19.1928L8.70222 15.7515C8.90951 15.5442 9.24381 15.5442 9.4511 15.7515C9.65839 15.9588 9.65839 16.2931 9.4511 16.5004L6.00987 19.9416C5.21068 20.7408 4.77094 21.8024 4.77094 22.9323C4.77094 24.0622 5.21068 25.1238 6.00987 25.923L5.261 26.6719Z" fill="#FDFDFF"/>
<path d="M24.3184 33.3375C28.5608 33.3375 32 29.8983 32 25.6558C32 21.4134 28.5608 17.9742 24.3184 17.9742C20.0759 17.9742 16.6367 21.4134 16.6367 25.6558C16.6367 29.8983 20.0759 33.3375 24.3184 33.3375Z" fill="#EAEAEA"/>
<path d="M24.3183 32.4819C28.0883 32.4819 31.1445 29.4258 31.1445 25.6558C31.1445 21.8858 28.0883 18.8297 24.3183 18.8297C20.5484 18.8297 17.4922 21.8858 17.4922 25.6558C17.4922 29.4258 20.5484 32.4819 24.3183 32.4819Z" fill="#28D7D5"/>
<path d="M31.5938 25.1394H17.0453V26.1902H31.5938V25.1394Z" fill="#EAEAEA"/>
</svg>
