<svg width="48" height="17" viewBox="0 0 48 17" fill="none" xmlns="http://www.w3.org/2000/svg">
<path d="M20.2968 9.72632H0V16.4879H20.2968V9.72632Z" fill="#84B740"/>
<path d="M20.2968 0.5H0V7.26761H20.2968V0.5Z" fill="#259BD6"/>
<path d="M40.5936 15.1138L40.5032 15.1319C40.1898 15.1921 40.0753 15.2162 39.8463 15.2162C39.316 15.2162 38.6893 14.945 38.6893 13.6674C38.6893 13.0106 38.7977 12.1368 39.7861 12.1368H39.7921C39.9608 12.1488 40.1537 12.1669 40.5153 12.2754L40.5936 12.2995V15.1138ZM40.7563 8.74391L40.5936 8.77404V11.1364L40.449 11.0942L40.4068 11.0821C40.2441 11.0339 39.8704 10.9255 39.5089 10.9255C37.5322 10.9255 37.1164 12.42 37.1164 13.6735C37.1164 15.391 38.0806 16.3793 39.762 16.3793C40.4731 16.3793 40.9974 16.307 41.5277 16.1322C42.0158 15.9755 42.1906 15.7526 42.1906 15.2765V8.49683C41.7205 8.5812 41.2324 8.66556 40.7563 8.74391Z" fill="#27292D"/>
<path d="M46.4693 15.1559L46.3849 15.18L46.0836 15.2584C45.8004 15.3307 45.5473 15.3729 45.3544 15.3729C44.8904 15.3729 44.6132 15.1439 44.6132 14.7521C44.6132 14.499 44.7277 14.0712 45.487 14.0712H46.4693V15.1559ZM45.7763 10.8953C45.1676 10.8953 44.5409 11.0037 43.7635 11.2448L43.2573 11.3955L43.426 12.5405L43.9202 12.3778C44.4384 12.209 45.0833 12.1005 45.5654 12.1005C45.7823 12.1005 46.4452 12.1005 46.4452 12.8177V13.131H45.5232C43.8418 13.131 43.0644 13.6674 43.0644 14.8184C43.0644 15.8007 43.7816 16.3913 44.9868 16.3913C45.3605 16.3913 45.8787 16.319 46.3247 16.2105L46.3488 16.2045L46.3729 16.2105L46.5236 16.2346C46.9936 16.319 47.4817 16.4034 47.9578 16.4938V12.7333C47.9578 11.516 47.2226 10.8953 45.7763 10.8953Z" fill="#27292D"/>
<path d="M34.7601 15.1559L34.6757 15.18L34.3744 15.2584C34.0912 15.3307 33.8441 15.3729 33.6452 15.3729C33.1812 15.3729 32.904 15.1439 32.904 14.7521C32.904 14.499 33.0185 14.0712 33.7718 14.0712H34.7541V15.1559H34.7601ZM34.0731 10.8953C33.4584 10.8953 32.8377 11.0037 32.0603 11.2448L31.5541 11.3955L31.7228 12.5405L32.217 12.3778C32.7352 12.209 33.3801 12.1005 33.8622 12.1005C34.0791 12.1005 34.742 12.1005 34.742 12.8177V13.131H33.82C32.1386 13.131 31.3552 13.6674 31.3552 14.8184C31.3552 15.8007 32.0723 16.3913 33.2836 16.3913C33.6573 16.3913 34.1755 16.319 34.6215 16.2105L34.6456 16.2045L34.6697 16.2105L34.8143 16.2346C35.2904 16.319 35.7725 16.4034 36.2486 16.4998V12.7393C36.2546 11.51 35.5194 10.8953 34.0731 10.8953Z" fill="#27292D"/>
<path d="M28.4143 10.9078C27.6489 10.9078 27.0162 11.1609 26.7811 11.2693L26.7209 11.2995L26.6666 11.2573C26.3412 11.0223 25.8651 10.9017 25.2022 10.9017C24.6177 10.9017 24.0693 10.9861 23.4727 11.1609C22.9604 11.3176 22.7616 11.5646 22.7616 12.0287V16.3255H24.3646V12.3541L24.4429 12.33C24.7683 12.2215 24.9612 12.2034 25.148 12.2034C25.612 12.2034 25.8471 12.4505 25.8471 12.9326V16.3315H27.426V12.8663C27.426 12.6614 27.3838 12.5409 27.3777 12.5168L27.3235 12.4143L27.432 12.3661C27.673 12.2577 27.9382 12.2034 28.2154 12.2034C28.5348 12.2034 28.9145 12.33 28.9145 12.9326V16.3315H30.4874V12.7759C30.4874 11.5164 29.8124 10.9078 28.4143 10.9078Z" fill="#27292D"/>
<path d="M45.2881 4.9113C45.0531 4.9113 44.6614 4.88719 44.354 4.82693L44.2636 4.80885V2.4887C44.2636 2.29586 44.2275 2.17533 44.2215 2.15725L44.1732 2.06083L44.2757 2.01864C44.2998 2.00659 44.3239 2.00057 44.354 1.98851L44.3721 1.97646C44.4083 1.96441 44.4444 1.95236 44.4806 1.9403C44.4987 1.93428 44.5107 1.92825 44.5228 1.92825C44.8783 1.83183 45.2037 1.84388 45.3484 1.83183H45.3544C46.3367 1.83183 46.4512 2.70565 46.4512 3.36252C46.4452 4.64011 45.8124 4.9113 45.2881 4.9113ZM45.2821 0.5C45.27 0.5 45.252 0.5 45.2399 0.5C44.3179 0.5 43.3717 0.753109 43.0343 1.24727C42.8535 1.48833 42.751 1.78964 42.745 2.1452V4.53766C42.745 4.74256 42.7028 4.8209 42.6968 4.83898L42.6425 4.94143H39.7318V3.27815H39.7258C39.6896 1.52448 38.6531 0.560264 37.1525 0.560264H36.9778H35.6881C35.6279 0.988136 35.5796 1.28945 35.5194 1.71733H36.9778C37.7431 1.71733 38.1469 2.36817 38.1469 3.36855V5.04388L38.0444 4.98964C38.0264 4.98362 37.8998 4.94143 37.7009 4.94143H35.1819C35.1337 5.26083 35.0734 5.67665 35.0071 6.09247H42.751C43.0162 6.03823 43.3235 5.99002 43.5887 5.94784C43.9804 6.14068 44.7096 6.24313 45.2098 6.24313C46.8911 6.24313 47.9819 5.1162 47.9819 3.3806C47.9759 1.66309 46.9213 0.536158 45.2821 0.5Z" fill="#27292D"/>
<path d="M31.7047 6.79767H31.777C33.4584 6.79767 34.2418 6.24324 34.2418 4.87526C34.2418 3.89296 33.5246 3.10953 32.3194 3.10953H30.7706C30.3066 3.10953 30.0293 2.84437 30.0293 2.39842C30.0293 2.0971 30.1439 1.72347 30.9032 1.72347H34.29C34.3623 1.28354 34.3985 1.00633 34.4648 0.566406H30.9454C29.3062 0.566406 28.4806 1.25341 28.4806 2.39842C28.4806 3.53138 29.1977 4.12196 30.403 4.12196H31.9518C32.4158 4.12196 32.693 4.48957 32.693 4.87526C32.693 5.12836 32.5785 5.65266 31.8252 5.65266H31.5661L26.6064 5.64061H25.7024C24.9371 5.64061 24.4007 5.20671 24.4007 4.20031V3.50727C24.4007 2.45869 24.8165 1.80784 25.7024 1.80784H27.1729C27.2391 1.36189 27.2813 1.07865 27.3416 0.656802H25.5096H25.3348C23.8342 0.656802 22.7977 1.66321 22.7616 3.41688V3.48317V4.20031C22.7977 5.95398 23.8342 6.79164 25.3348 6.79164H25.5096H26.7992L29.487 6.79767H31.09H31.7047Z" fill="#27292D"/>
</svg>
