<svg width="26" height="17" viewBox="0 0 26 17" fill="none" xmlns="http://www.w3.org/2000/svg">
<path d="M9.09248 2.21069H16.7931V14.7881H9.09248V2.21069Z" fill="#FF5F00"/>
<path d="M9.88564 8.50065C9.88469 7.28956 10.1592 6.09412 10.6885 5.0048C11.2178 3.91548 11.9879 2.96082 12.9406 2.21307C11.7606 1.28576 10.3436 0.709113 8.85141 0.549047C7.35924 0.388981 5.85214 0.651951 4.50236 1.3079C3.15257 1.96385 2.01456 2.98632 1.21839 4.25844C0.422215 5.53056 0 7.00102 0 8.50174C0 10.0025 0.422215 11.4729 1.21839 12.7451C2.01456 14.0172 3.15257 15.0396 4.50236 15.6956C5.85214 16.3515 7.35924 16.6145 8.85141 16.4544C10.3436 16.2944 11.7606 15.7177 12.9406 14.7904C11.9876 14.0424 11.2173 13.0874 10.688 11.9977C10.1587 10.908 9.88435 9.71208 9.88564 8.50061V8.50065Z" fill="#EB001B"/>
<path d="M25.118 13.457V13.1993H25.2291V13.146H24.9647V13.1993H25.0691V13.4571L25.118 13.457ZM25.6312 13.457V13.146H25.5512L25.4579 13.3682L25.3646 13.146H25.2847V13.457H25.3424V13.2215L25.4291 13.4237H25.489L25.5757 13.2215V13.457H25.6312Z" fill="#F79E1B"/>
<path d="M25.8823 8.5004C25.8823 10.0012 25.4599 11.4718 24.6636 12.744C23.8673 14.0161 22.7291 15.0386 21.3792 15.6944C20.0292 16.3503 18.5219 16.6131 17.0297 16.4528C15.5374 16.2925 14.1204 15.7156 12.9405 14.7879C13.8928 14.0395 14.6627 13.0846 15.1921 11.9952C15.7215 10.9059 15.9966 9.71047 15.9966 8.49927C15.9966 7.28807 15.7215 6.09268 15.1921 5.00331C14.6627 3.91393 13.8928 2.95901 12.9405 2.2106C14.1204 1.28298 15.5374 0.706054 17.0297 0.545755C18.522 0.385457 20.0292 0.648257 21.3792 1.30412C22.7291 1.95998 23.8673 2.98243 24.6636 4.2546C25.46 5.52677 25.8823 6.99733 25.8823 8.49818V8.5004Z" fill="#F79E1B"/>
</svg>
