<svg width="36" height="36" viewBox="0 0 36 36" fill="none" xmlns="http://www.w3.org/2000/svg">
<path d="M18.0001 8C16.5886 8 15.4402 9.14836 15.4402 10.5599C15.4402 11.9714 16.5886 13.1197 18.0001 13.1197C19.4116 13.1197 20.56 11.9714 20.56 10.5599C20.56 9.14836 19.4116 8 18.0001 8ZM18.0001 11.9479C17.2347 11.9479 16.6121 11.3252 16.6121 10.5599C16.6121 9.79453 17.2347 9.17188 18.0001 9.17188C18.7654 9.17188 19.3881 9.79453 19.3881 10.5599C19.3881 11.3252 18.7655 11.9479 18.0001 11.9479ZM12.8701 10.1656C11.6802 10.1656 10.712 11.1337 10.712 12.3236C10.712 13.5136 11.6801 14.4816 12.8701 14.4816C14.06 14.4816 15.0281 13.5136 15.0281 12.3236C15.0281 11.1337 14.06 10.1656 12.8701 10.1656ZM12.8701 13.3097C12.3263 13.3097 11.8839 12.8673 11.8839 12.3236C11.8839 11.7798 12.3263 11.3375 12.8701 11.3375C13.4138 11.3375 13.8562 11.7798 13.8562 12.3236C13.8562 12.8673 13.4138 13.3097 12.8701 13.3097Z" fill="#036A79"/>
<path d="M25.0523 14.9501H22.1185C21.7612 14.3844 21.1308 14.0076 20.4136 14.0076H15.5865C14.8694 14.0076 14.2389 14.3844 13.8817 14.9501H10.9478C9.99694 14.9501 9.22339 15.7237 9.22339 16.6745V20.9286L11.71 21.1919C11.8272 21.567 11.978 21.9308 12.1606 22.2788L10.5883 24.2236L12.9998 26.6351L14.9446 25.0627C15.2927 25.2453 15.6565 25.3961 16.0316 25.5134L16.2949 28H19.7053L19.9686 25.5134C20.3437 25.3962 20.7075 25.2453 21.0555 25.0628L23.0003 26.6352L25.4119 24.2236L23.8395 22.2789C24.0221 21.9308 24.1729 21.567 24.2901 21.1919L26.7767 20.9286V16.6746C26.7767 15.7237 26.0032 14.9501 25.0523 14.9501ZM14.743 16.023C14.743 15.5579 15.1214 15.1795 15.5865 15.1795H20.4136C20.8787 15.1795 21.2571 15.5579 21.2571 16.023V18.6374H14.743V16.023ZM20.0933 19.8093C19.8368 20.7243 18.9959 21.3975 18.0001 21.3975C17.0043 21.3975 16.1633 20.7243 15.9068 19.8093H20.0933ZM10.3953 16.6745C10.3953 16.3698 10.6431 16.122 10.9478 16.122H13.5711V18.6374H10.3953V16.6745ZM23.361 20.1118L23.2634 20.5122C23.1325 21.0486 22.9198 21.5616 22.6328 22.0332L22.4187 22.3854L23.8377 24.1406L22.9173 25.061L21.1621 23.642L20.8099 23.8561C20.3383 24.1431 19.8253 24.3557 19.2889 24.4866L18.8885 24.5843L18.6509 26.8281H17.3492L17.1116 24.5843L16.7111 24.4866C16.1748 24.3558 15.6618 24.1431 15.1902 23.8561L14.838 23.642L13.0829 25.061L12.1624 24.1406L13.5814 22.3854L13.3673 22.0332C13.0803 21.5616 12.8676 21.0486 12.7367 20.5122L12.6391 20.1118L10.3953 19.8742V19.8093H14.7065C14.9844 21.3757 16.355 22.5693 18 22.5693C19.645 22.5693 21.0156 21.3757 21.2936 19.8093H25.6048V19.8742H25.6048L23.361 20.1118ZM25.6048 18.6374H22.429V16.122H25.0523C25.357 16.122 25.6048 16.3698 25.6048 16.6745V18.6374Z" fill="#036A79"/>
<path d="M23.1302 10.1656C21.9403 10.1656 20.9722 11.1337 20.9722 12.3236C20.9722 13.5135 21.9403 14.4816 23.1302 14.4816C24.3201 14.4816 25.2882 13.5135 25.2882 12.3236C25.2882 11.1337 24.3201 10.1656 23.1302 10.1656ZM23.1302 13.3098C22.5864 13.3098 22.144 12.8674 22.144 12.3236C22.144 11.7799 22.5864 11.3375 23.1302 11.3375C23.6739 11.3375 24.1163 11.7798 24.1163 12.3236C24.1163 12.8673 23.6739 13.3098 23.1302 13.3098Z" fill="#036A79"/>
</svg>
