<svg width="24" height="24" viewBox="0 0 24 24" fill="none" xmlns="http://www.w3.org/2000/svg">
<g clip-path="url(#clip0_30_4583)">
<path d="M0 12.4C0.000827027 12.702 0.115755 12.9925 0.321751 13.2133C0.527748 13.4342 0.809592 13.569 1.1108 13.5908L4.0576 14.4952L2.1924 17.9936C2.12576 18.1183 2.09251 18.2582 2.09588 18.3995C2.09925 18.5409 2.13912 18.679 2.21162 18.8004C2.28412 18.9218 2.38679 19.0224 2.50965 19.0924C2.63251 19.1624 2.77139 19.1995 2.9128 19.2C3.05564 19.199 3.19584 19.1614 3.32 19.0908L8.6584 16.0464C8.80023 15.9679 8.92152 15.857 9.0124 15.7228C9.13349 15.5461 9.19845 15.337 9.1988 15.1228V13.6H19.6C19.7576 13.6004 19.9138 13.5696 20.0594 13.5092C20.2051 13.4489 20.3373 13.3602 20.4484 13.2484L23.6484 10.0484C23.8734 9.82336 23.9997 9.51819 23.9997 9.19999C23.9997 8.88179 23.8734 8.57662 23.6484 8.35159L20.4484 5.15159C20.3372 5.03983 20.205 4.95122 20.0594 4.89087C19.9138 4.83052 19.7576 4.79963 19.6 4.79999H1.2C0.88174 4.79999 0.576515 4.92642 0.351472 5.15146C0.126428 5.37651 0 5.68173 0 5.99999L0 12.4ZM2.898 18.3716L4.8372 14.7344L7.7644 15.6324L2.898 18.3716ZM8.4 14.9908L3.8672 13.6H8.4V14.9908ZM0.8 5.99999C0.8 5.8939 0.842143 5.79216 0.917157 5.71715C0.992172 5.64213 1.09391 5.59999 1.2 5.59999H19.6C19.7061 5.60001 19.8078 5.64217 19.8828 5.71719L23.0828 8.91719C23.1578 8.9922 23.1999 9.09393 23.1999 9.19999C23.1999 9.30606 23.1578 9.40778 23.0828 9.48279L19.8828 12.6828C19.8078 12.7578 19.7061 12.8 19.6 12.8H1.2C1.09391 12.8 0.992172 12.7578 0.917157 12.6828C0.842143 12.6078 0.8 12.5061 0.8 12.4V5.99999Z" fill="#DF1C26"/>
</g>
<defs>
<clipPath id="clip0_30_4583">
<rect width="24" height="24" fill="white"/>
</clipPath>
</defs>
</svg>
