<svg width="24" height="24" viewBox="0 0 24 24" fill="none" xmlns="http://www.w3.org/2000/svg">
<g clip-path="url(#clip0_30_4589)">
<path d="M22.4229 15.7648C21.9288 15.4189 21.3464 15.2918 20.8311 15.1789C20.6405 15.1365 20.4499 15.2601 20.4111 15.4507C20.3687 15.6412 20.4887 15.8283 20.6793 15.8707C21.1523 15.973 21.6393 16.0789 22.017 16.3436C22.3099 16.5448 22.5888 16.9366 22.504 17.3142C22.384 17.8577 21.6111 18.0977 21.1558 18.193C19.5676 18.5283 17.8911 18.5142 16.2676 18.5001C15.3287 18.493 14.3582 18.486 13.4052 18.5424C12.6993 18.5848 11.9617 18.6801 11.3511 19.0754C10.7193 19.4848 10.2146 20.3565 10.5146 21.1754C10.5746 21.3307 10.6523 21.4683 10.7299 21.5989C10.8287 21.7683 10.917 21.913 10.9205 22.0471C10.9276 22.2236 10.7723 22.4001 10.6205 22.4918C10.4087 22.6189 10.137 22.6719 9.85462 22.7177C7.36286 23.1236 4.63816 23.1342 1.54286 22.753C1.66992 22.1107 1.89227 21.4154 2.22403 20.6424C2.25932 20.6424 2.29463 20.646 2.33345 20.646C2.98287 20.646 3.70992 20.5648 4.49345 20.406C6.56167 19.993 8.62993 19.0648 10.4758 17.7236C11.1464 17.2401 11.8029 16.7318 12.4276 16.2095C12.5405 16.1177 12.5829 15.9624 12.537 15.8248C12.4911 15.6871 12.364 15.5918 12.2158 15.5883C11.8276 15.5707 11.337 15.5177 10.8076 15.3695C11.8064 15.3095 13.0982 15.1083 14.2735 14.5542C14.3087 14.5365 14.3405 14.5154 14.3687 14.4907C15.4523 13.4565 16.4652 12.3554 17.3758 11.2224C17.4605 11.1165 17.4781 10.9718 17.4182 10.8518C17.3617 10.7283 17.2417 10.6506 17.104 10.6471C16.6735 10.6401 15.9676 10.5801 15.1946 10.3118C16.204 10.2095 17.5805 10.0118 18.5123 9.63067C18.5758 9.60242 18.6287 9.56008 18.6676 9.50359C19.8605 7.80243 20.8452 6.03773 21.597 4.25889C21.6393 4.16007 21.6323 4.04713 21.5829 3.95536C21.5299 3.86006 21.4417 3.793 21.3358 3.77536C21.0429 3.72243 20.7535 3.68712 20.4746 3.66948C20.937 3.5283 21.3605 3.4683 21.7029 3.44713C21.8405 3.43655 21.9605 3.34831 22.0099 3.21771C22.497 1.90124 22.6558 1.11066 22.6593 1.07537C22.6946 0.909479 22.6029 0.743608 22.4476 0.68359C22.3452 0.641237 19.9311 -0.301109 16.197 0.764781C16.1299 0.782424 16.0699 0.821241 16.0276 0.874192C15.537 1.44949 15.1417 2.14831 14.8452 2.76949C14.8735 2.43419 14.9299 2.09183 15.0076 1.74948C15.0393 1.62243 14.9935 1.48831 14.8911 1.40007C14.7923 1.31537 14.6511 1.2942 14.5276 1.34359C13.1829 1.90478 11.8382 2.67419 10.5393 3.6342C10.497 3.66242 10.4652 3.70126 10.4405 3.74361C9.98875 4.54124 9.76286 5.56124 9.64992 6.41536C9.56168 6.0236 9.50522 5.61773 9.48051 5.1942C9.47345 5.06008 9.38874 4.9436 9.26522 4.89067C9.14168 4.83772 8.99698 4.85889 8.89815 4.94713C8.12521 5.61773 7.33816 6.3836 6.55815 7.2236C6.5405 7.24478 6.52286 7.26596 6.51229 7.29066C6.05698 8.09183 5.82758 9.11536 5.71464 9.97301C5.66169 9.74008 5.61934 9.50008 5.59109 9.25302C5.57345 9.11183 5.47464 8.99538 5.33699 8.95654C5.20287 8.91772 5.05464 8.9636 4.9664 9.07301C4.09109 10.1495 3.21934 11.3389 2.3758 12.6095C1.53933 13.8589 1.00992 15.2212 0.840515 16.5412C0.561677 18.7224 1.24992 19.9118 1.58168 20.346C1.15815 21.3307 0.889913 22.206 0.780501 23.0142C0.75228 23.2048 0.886401 23.3848 1.08052 23.4095C1.09463 23.413 1.10522 23.413 1.11934 23.413C2.7711 23.6318 4.32052 23.7412 5.78874 23.7412C7.25699 23.7412 8.64404 23.6318 9.96757 23.413C10.3064 23.3601 10.6664 23.2895 10.984 23.0954C11.3934 22.8483 11.6405 22.4354 11.6264 22.0224C11.6158 21.7083 11.4676 21.4612 11.3405 21.2389C11.2735 21.1295 11.2134 21.0271 11.1782 20.9283C11.0088 20.473 11.3299 19.9295 11.7358 19.6683C12.2299 19.3471 12.8793 19.2801 13.4476 19.2483C14.3793 19.1918 15.3358 19.1989 16.2605 19.206C17.9193 19.2201 19.6382 19.2342 21.304 18.8848C22.3876 18.6554 23.0405 18.1648 23.1923 17.466C23.3476 16.7671 22.917 16.1071 22.4229 15.7648ZM1.53934 16.6295C1.69816 15.4189 2.18876 14.1624 2.9617 13.0012C3.63934 11.9848 4.33109 11.0248 5.0264 10.1283C5.16405 10.7283 5.37227 11.2965 5.64758 11.826C5.72168 11.9707 5.88757 12.0483 6.0464 12.006C6.20521 11.9636 6.31464 11.8189 6.31111 11.6565C6.31111 11.6318 6.27933 9.16125 7.10522 7.67536C7.68403 7.05067 8.26993 6.46831 8.84522 5.94243C8.96521 6.77183 9.20874 7.54831 9.57935 8.25772C9.65345 8.40242 9.81934 8.48007 9.97815 8.43773C10.137 8.39891 10.2464 8.25419 10.2464 8.09183C10.2464 8.06714 10.2182 5.64595 11.0193 4.15655C12.057 3.39419 13.1229 2.76243 14.1958 2.26479C14.0829 3.02713 14.0899 3.78243 14.2134 4.50949C14.2417 4.67185 14.3758 4.79184 14.5417 4.80244C14.6899 4.81302 14.8523 4.71067 14.9017 4.55184C14.9052 4.5342 15.484 2.64949 16.4934 1.41419C19.2182 0.662428 21.1911 1.05067 21.897 1.24832C21.8193 1.55185 21.6711 2.07419 21.424 2.7589C20.6829 2.83656 19.6699 3.08009 18.6993 3.76479C18.5687 3.86007 18.5158 4.0295 18.5758 4.18126C18.6323 4.33302 18.7911 4.42832 18.9464 4.40361C18.957 4.40361 19.8217 4.30125 20.764 4.40361C20.0687 5.96361 19.1935 7.51303 18.1487 9.01303C16.6382 9.58832 13.8746 9.70127 13.8464 9.70127C13.6911 9.70831 13.557 9.81419 13.5182 9.96244C13.4793 10.1107 13.5393 10.2695 13.6699 10.3507C14.637 10.9718 15.6429 11.2154 16.3911 11.3071C15.6287 12.2142 14.7993 13.1001 13.9205 13.9401C11.7852 14.9213 9.16992 14.653 9.14168 14.6495C8.97934 14.6354 8.82758 14.7307 8.77109 14.886C8.71817 15.0377 8.77816 15.2107 8.91581 15.2989C9.73815 15.8283 10.5923 16.0824 11.3158 16.2024C10.9064 16.5271 10.4864 16.8448 10.0629 17.1518C8.29816 18.433 6.32521 19.3224 4.35226 19.7142C3.69933 19.8483 3.09932 19.9189 2.54874 19.933C7.18992 10.3154 14.8735 7.4495 14.9511 7.42126C15.1346 7.3542 15.2299 7.15302 15.1629 6.96948C15.0993 6.78597 14.8946 6.69067 14.7111 6.75773C14.6299 6.78597 6.70639 9.72595 1.93109 19.5907C1.66285 19.0965 1.34522 18.1507 1.53934 16.6295Z" fill="#DF1C26"/>
</g>
<defs>
<clipPath id="clip0_30_4589">
<rect width="24" height="24" fill="white"/>
</clipPath>
</defs>
</svg>
