<svg width="19" height="20" viewBox="0 0 19 20" fill="none" xmlns="http://www.w3.org/2000/svg">
<path d="M13.7675 19.1821H2.67148C1.51059 19.1821 0.567017 18.2385 0.567017 17.0776V5.98166C0.567017 4.82077 1.51059 3.8772 2.67148 3.8772H9.17601C9.49282 3.8772 9.74994 4.13432 9.74994 4.45113C9.74994 4.76794 9.49282 5.02506 9.17601 5.02506H2.67148C2.14421 5.02506 1.71488 5.45439 1.71488 5.98166V17.0776C1.71488 17.6049 2.14421 18.0342 2.67148 18.0342H13.7675C14.2947 18.0342 14.7241 17.6049 14.7241 17.0776V10.5731C14.7241 10.2563 14.9812 9.99919 15.298 9.99919C15.6148 9.99919 15.8719 10.2556 15.8719 10.5731V17.0776C15.8719 18.2385 14.9284 19.1821 13.7675 19.1821Z" fill="#DF1C26"/>
<path d="M7.27981 13.0434C7.12904 13.0434 6.98205 12.9837 6.87416 12.8751C6.73796 12.7396 6.67981 12.5444 6.71736 12.357L7.25837 9.6511C7.28051 9.53942 7.33557 9.43755 7.41516 9.35796L15.3409 1.43317C16.1612 0.61277 17.4958 0.61277 18.3169 1.43317C18.714 1.83027 18.9329 2.35839 18.9329 2.92083C18.9329 3.48328 18.714 4.01125 18.3161 4.40849L10.3913 12.3341C10.3117 12.4144 10.2091 12.4688 10.0982 12.4909L7.39301 13.0319C7.35546 13.0396 7.3172 13.0434 7.27979 13.0434L7.27981 13.0434ZM9.98567 11.9285H9.99338H9.98567ZM8.34962 10.0468L8.01208 11.7379L9.70249 11.3997L17.505 3.59733C17.6856 3.41587 17.7851 3.17641 17.7851 2.92083C17.7851 2.66525 17.6856 2.42564 17.505 2.24433C17.1331 1.87161 16.5262 1.87161 16.1521 2.24433L8.34962 10.0468Z" fill="#DF1C26"/>
<path d="M16.8285 5.6596C16.6817 5.6596 16.5347 5.60369 16.423 5.49117L14.2588 3.32631C14.0347 3.10212 14.0347 2.73865 14.2588 2.51446C14.483 2.29027 14.8465 2.29027 15.0708 2.51446L17.2349 4.67932C17.459 4.90351 17.459 5.26698 17.2349 5.49117C17.1223 5.60299 16.9755 5.6596 16.8285 5.6596Z" fill="#DF1C26"/>
</svg>
