<svg width="48" height="49" viewBox="0 0 48 49" fill="none" xmlns="http://www.w3.org/2000/svg">
<rect y="0.314697" width="48" height="48" rx="24" fill="#F4FBF3"/>
<path d="M27.9062 26.9711C27.4114 26.9711 26.9687 27.1664 26.6301 27.4724L21.9882 24.7706C22.0208 24.6208 22.0468 24.4711 22.0468 24.3149C22.0468 24.1586 22.0208 24.0089 21.9882 23.8591L26.5781 21.1833C26.9296 21.5089 27.3919 21.7107 27.9062 21.7107C28.9869 21.7107 29.8593 20.8383 29.8593 19.7576C29.8593 18.6768 28.9869 17.8044 27.9062 17.8044C26.8255 17.8044 25.9531 18.6768 25.9531 19.7576C25.9531 19.9138 25.9791 20.0636 26.0117 20.2133L21.4218 22.8891C21.0703 22.5636 20.608 22.3617 20.0937 22.3617C19.013 22.3617 18.1406 23.2341 18.1406 24.3149C18.1406 25.3956 19.013 26.268 20.0937 26.268C20.608 26.268 21.0703 26.0662 21.4218 25.7406L26.0572 28.449C26.0247 28.5857 26.0051 28.7289 26.0051 28.8722C26.0051 29.9203 26.858 30.7732 27.9062 30.7732C28.9544 30.7732 29.8072 29.9203 29.8072 28.8722C29.8072 27.824 28.9544 26.9711 27.9062 26.9711Z" fill="#DF1C26"/>
</svg>
