<svg width="20" height="21" viewBox="0 0 20 21" fill="none" xmlns="http://www.w3.org/2000/svg">
<g clip-path="url(#clip0_1_1434)">
<path d="M20 9.87248C19.8795 7.9225 19.191 6.05041 18.0194 4.487C16.8477 2.9236 15.2442 1.73723 13.4065 1.07414C11.5687 0.411062 9.57711 0.300259 7.67716 0.755394C5.77721 1.21053 4.05198 2.21171 2.71415 3.6355C1.37633 5.05929 0.484392 6.84345 0.14831 8.76803C-0.187772 10.6926 0.0466888 12.6735 0.822789 14.4664C1.59889 16.2593 2.8827 17.786 4.51595 18.8581C6.1492 19.9302 8.06049 20.501 10.0142 20.5H15.8334C16.9381 20.4989 17.9973 20.0595 18.7784 19.2784C19.5596 18.4972 19.9989 17.438 20 16.3333V9.87248ZM18.3334 16.3333C18.3334 16.9964 18.07 17.6322 17.6011 18.1011C17.1323 18.5699 16.4964 18.8333 15.8334 18.8333H10.0142C8.8383 18.8328 7.67573 18.5844 6.60227 18.1044C5.52882 17.6244 4.56859 16.9235 3.78419 16.0475C2.996 15.1719 2.40413 14.1379 2.04827 13.0148C1.69241 11.8917 1.58077 10.7056 1.72086 9.53582C1.94206 7.69077 2.77102 5.97181 4.07706 4.64992C5.3831 3.32803 7.09194 2.47841 8.93419 2.23498C9.29355 2.18994 9.65535 2.16712 10.0175 2.16665C11.9596 2.16135 13.8415 2.8399 15.3334 4.08331C16.2046 4.80744 16.9198 5.70094 17.4355 6.70967C17.9511 7.7184 18.2566 8.82135 18.3334 9.95165V16.3333Z" fill="#036A79"/>
<path d="M6.66671 7.99992H10C10.2211 7.99992 10.433 7.91212 10.5893 7.75584C10.7456 7.59956 10.8334 7.3876 10.8334 7.16659C10.8334 6.94557 10.7456 6.73361 10.5893 6.57733C10.433 6.42105 10.2211 6.33325 10 6.33325H6.66671C6.44569 6.33325 6.23373 6.42105 6.07745 6.57733C5.92117 6.73361 5.83337 6.94557 5.83337 7.16659C5.83337 7.3876 5.92117 7.59956 6.07745 7.75584C6.23373 7.91212 6.44569 7.99992 6.66671 7.99992ZM13.3334 9.66659H6.66671C6.44569 9.66659 6.23373 9.75438 6.07745 9.91066C5.92117 10.0669 5.83337 10.2789 5.83337 10.4999C5.83337 10.7209 5.92117 10.9329 6.07745 11.0892C6.23373 11.2455 6.44569 11.3333 6.66671 11.3333H13.3334C13.5544 11.3333 13.7664 11.2455 13.9226 11.0892C14.0789 10.9329 14.1667 10.7209 14.1667 10.4999C14.1667 10.2789 14.0789 10.0669 13.9226 9.91066C13.7664 9.75438 13.5544 9.66659 13.3334 9.66659ZM13.3334 12.9999H6.66671C6.44569 12.9999 6.23373 13.0877 6.07745 13.244C5.92117 13.4003 5.83337 13.6122 5.83337 13.8333C5.83337 14.0543 5.92117 14.2662 6.07745 14.4225C6.23373 14.5788 6.44569 14.6666 6.66671 14.6666H13.3334C13.5544 14.6666 13.7664 14.5788 13.9226 14.4225C14.0789 14.2662 14.1667 14.0543 14.1667 13.8333C14.1667 13.6122 14.0789 13.4003 13.9226 13.244C13.7664 13.0877 13.5544 12.9999 13.3334 12.9999Z" fill="#036A79"/>
</g>
<defs>
<clipPath id="clip0_1_1434">
<rect width="20" height="20" fill="white" transform="translate(0 0.5)"/>
</clipPath>
</defs>
</svg>
