<svg width="49" height="48" viewBox="0 0 49 48" fill="none" xmlns="http://www.w3.org/2000/svg">
<g clip-path="url(#clip0_261_2674)">
<path d="M39.5117 15.3722V36.2812H4.66385V15.3722L22.0882 4.91809L39.5117 15.3722Z" fill="#FFA001"/>
<path d="M39.5117 15.3722V36.2812H22.0882V4.91809L39.5117 15.3722Z" fill="#F87F02"/>
<path d="M0.166656 15.3723L4.66366 4.91772H22.0878L17.5908 15.3723H0.166656Z" fill="#FFDA2D"/>
<path d="M44.0089 15.3723L39.5119 4.91772H22.0878L26.5848 15.3723H44.0089Z" fill="#FCBE00"/>
<path d="M10.2648 27.5195H13.0773V30.332H10.2648V27.5195Z" fill="#FFDA2D"/>
<path d="M48.1667 32.7969C48.1667 38.4772 43.5617 43.0822 37.8813 43.0822C32.2001 43.0822 27.5951 38.4772 27.5951 32.7969C27.5951 27.1157 32.2001 22.5107 37.8813 22.5107C43.5617 22.5107 48.1667 27.1156 48.1667 32.7969Z" fill="#83E470"/>
<path d="M48.1667 32.7969C48.1667 38.4772 43.5617 43.0822 37.8813 43.0822V22.5107C43.5617 22.5107 48.1667 27.1156 48.1667 32.7969Z" fill="#01B763"/>
<path d="M43.2635 31.131L37.8814 36.513L36.9485 37.446L32.4982 32.9955L34.4876 31.0071L36.9485 33.468L37.8814 32.5353L41.2742 29.1425L43.2635 31.131Z" fill="#F3FDFF"/>
<path d="M43.2635 31.131L37.8813 36.513V32.5353L41.2742 29.1425L43.2635 31.131Z" fill="#D7F3F7"/>
</g>
<defs>
<clipPath id="clip0_261_2674">
<rect width="48" height="48" fill="white" transform="translate(0.166656)"/>
</clipPath>
</defs>
</svg>
