<svg width="20" height="21" viewBox="0 0 20 21" fill="none" xmlns="http://www.w3.org/2000/svg">
<path d="M7.49992 13.8333C7.49992 14.0543 7.41212 14.2663 7.25584 14.4226C7.09956 14.5789 6.8876 14.6667 6.66659 14.6667C6.44557 14.6667 6.23361 14.5789 6.07733 14.4226C5.92105 14.2663 5.83325 14.0543 5.83325 13.8333C5.83325 13.6123 5.92105 13.4004 6.07733 13.2441C6.23361 13.0878 6.44557 13 6.66659 13C6.8876 13 7.09956 13.0878 7.25584 13.2441C7.41212 13.4004 7.49992 13.6123 7.49992 13.8333ZM10.8333 13.8333C10.8333 14.0543 10.7455 14.2663 10.5892 14.4226C10.4329 14.5789 10.2209 14.6667 9.99992 14.6667C9.7789 14.6667 9.56694 14.5789 9.41066 14.4226C9.25438 14.2663 9.16659 14.0543 9.16659 13.8333C9.16659 13.6123 9.25438 13.4004 9.41066 13.2441C9.56694 13.0878 9.7789 13 9.99992 13C10.2209 13 10.4329 13.0878 10.5892 13.2441C10.7455 13.4004 10.8333 13.6123 10.8333 13.8333ZM13.3333 14.6667C13.5543 14.6667 13.7662 14.5789 13.9225 14.4226C14.0788 14.2663 14.1666 14.0543 14.1666 13.8333C14.1666 13.6123 14.0788 13.4004 13.9225 13.2441C13.7662 13.0878 13.5543 13 13.3333 13C13.1122 13 12.9003 13.0878 12.744 13.2441C12.5877 13.4004 12.4999 13.6123 12.4999 13.8333C12.4999 14.0543 12.5877 14.2663 12.744 14.4226C12.9003 14.5789 13.1122 14.6667 13.3333 14.6667Z" fill="#036A79"/>
<path fill-rule="evenodd" clip-rule="evenodd" d="M4.37496 7.16666V8.2525C4.18579 8.26583 4.00829 8.2825 3.83996 8.30583C3.08996 8.40583 2.45829 8.6225 1.95663 9.12333C1.45496 9.625 1.23996 10.2567 1.13913 11.0067C1.04163 11.7292 1.04163 12.6483 1.04163 13.7875V13.8792C1.04163 15.0183 1.04163 15.9375 1.13913 16.66C1.23913 17.41 1.45579 18.0417 1.95663 18.5433C2.45829 19.045 3.08996 19.26 3.83996 19.3617C4.56246 19.4583 5.48163 19.4583 6.62079 19.4583H13.3791C14.5183 19.4583 15.4375 19.4583 16.16 19.3617C16.91 19.26 17.5416 19.045 18.0433 18.5433C18.545 18.0417 18.76 17.41 18.8616 16.66C18.9583 15.9375 18.9583 15.0183 18.9583 13.8792V13.7875C18.9583 12.6483 18.9583 11.7292 18.8616 11.0067C18.76 10.2567 18.545 9.625 18.0433 9.12333C17.5416 8.62166 16.91 8.40666 16.16 8.30583C15.9822 8.28242 15.8038 8.26464 15.625 8.2525V7.16666C15.625 5.67482 15.0323 4.24408 13.9774 3.18919C12.9225 2.1343 11.4918 1.54166 9.99996 1.54166C8.50812 1.54166 7.07738 2.1343 6.02248 3.18919C4.96759 4.24408 4.37496 5.67482 4.37496 7.16666ZM9.99996 2.79166C8.83964 2.79166 7.72684 3.2526 6.90637 4.07307C6.0859 4.89354 5.62496 6.00634 5.62496 7.16666V8.21083C5.93579 8.20833 6.26829 8.20833 6.62079 8.20833H13.3791C13.7316 8.20833 14.0641 8.20833 14.375 8.21083V7.16666C14.375 4.75 12.4166 2.79166 9.99996 2.79166ZM4.00663 9.54416C3.39496 9.62666 3.07163 9.7775 2.84079 10.0075C2.60996 10.2383 2.45996 10.5617 2.37746 11.1742C2.29329 11.8033 2.29163 12.6375 2.29163 13.8333C2.29163 15.0292 2.29329 15.8633 2.37746 16.4933C2.45996 17.105 2.61079 17.4283 2.84079 17.6592C3.07163 17.89 3.39496 18.04 4.00746 18.1225C4.63579 18.2067 5.47079 18.2083 6.66663 18.2083H13.3333C14.5291 18.2083 15.3633 18.2067 15.9933 18.1225C16.605 18.04 16.9283 17.8892 17.1591 17.6592C17.39 17.4283 17.54 17.105 17.6225 16.4925C17.7066 15.8633 17.7083 15.0292 17.7083 13.8333C17.7083 12.6375 17.7066 11.8025 17.6225 11.1733C17.54 10.5617 17.3891 10.2383 17.1591 10.0075C16.9283 9.77666 16.605 9.62666 15.9925 9.54416C15.3633 9.46 14.5291 9.45833 13.3333 9.45833H6.66663C5.47079 9.45833 4.63579 9.46 4.00663 9.54416Z" fill="#036A79"/>
</svg>
