<svg width="24" height="24" viewBox="0 0 24 24" fill="none" xmlns="http://www.w3.org/2000/svg">
<g clip-path="url(#clip0_252_2318)">
<path d="M22.9089 12.1007V8.7275C22.9089 7.5837 22.0217 6.6535 20.9007 6.56329L17.7682 1.09179C17.4779 0.585754 17.0091 0.224073 16.4482 0.0738875C15.89 -0.0752748 15.3062 0.00306481 14.8066 0.293873L4.06795 6.5457H2.18192C0.978651 6.5457 0.00012207 7.52418 0.00012207 8.7275V21.8182C0.00012207 23.0215 0.9786 24 2.18192 24H20.7271C21.9304 24 22.9089 23.0215 22.9089 21.8182V18.445C23.5424 18.2191 23.9998 17.6194 23.9998 16.9092V13.6365C23.9998 12.9263 23.5424 12.3266 22.9089 12.1007ZM19.6331 6.5457H14.879L18.4447 4.4698L19.6331 6.5457ZM17.9027 3.52313L12.7109 6.5457H10.5575L17.3642 2.5827L17.9027 3.52313ZM15.3557 1.23666C15.6023 1.0923 15.8905 1.05395 16.1659 1.12748C16.4445 1.20204 16.6767 1.38209 16.8211 1.63403L16.8222 1.63603L8.38947 6.5457H6.2361L15.3557 1.23666ZM21.818 21.8182C21.818 22.4195 21.3284 22.9091 20.7271 22.9091H2.18192C1.58057 22.9091 1.09105 22.4195 1.09105 21.8182V8.7275C1.09105 8.12615 1.58057 7.63663 2.18192 7.63663H20.7271C21.3284 7.63663 21.818 8.12615 21.818 8.7275V12.0002H18.5453C16.7406 12.0002 15.2726 13.4682 15.2726 15.2728C15.2726 17.0775 16.7406 18.5455 18.5453 18.5455H21.818V21.8182ZM22.9089 16.9092C22.9089 17.2101 22.6644 17.4546 22.3634 17.4546H18.5453C17.342 17.4546 16.3635 16.4762 16.3635 15.2728C16.3635 14.0696 17.342 13.091 18.5453 13.091H22.3634C22.6644 13.091 22.9089 13.3355 22.9089 13.6365V16.9092Z" fill="#DF1C26"/>
<path d="M18.5453 14.182C17.944 14.182 17.4545 14.6715 17.4545 15.2729C17.4545 15.8742 17.944 16.3638 18.5453 16.3638C19.1467 16.3638 19.6362 15.8742 19.6362 15.2729C19.6363 14.6715 19.1467 14.182 18.5453 14.182Z" fill="#DF1C26"/>
</g>
<defs>
<clipPath id="clip0_252_2318">
<rect width="24" height="24" fill="white"/>
</clipPath>
</defs>
</svg>
