<svg width="49" height="48" viewBox="0 0 49 48" fill="none" xmlns="http://www.w3.org/2000/svg">
<g clip-path="url(#clip0_261_2662)">
<path fill-rule="evenodd" clip-rule="evenodd" d="M24.8193 39.5923C16.2147 39.5923 9.21294 32.5905 9.21294 23.986C9.21294 15.3814 16.2147 8.37964 24.8193 8.37964C33.4238 8.37964 40.4256 15.3814 40.4256 23.986C40.4256 32.5905 33.4238 39.5923 24.8193 39.5923Z" fill="#FFC107"/>
<path fill-rule="evenodd" clip-rule="evenodd" d="M24.8193 6.01757C24.4256 6.01757 24.0882 5.70826 24.0882 5.28647V0.731107C24.0882 0.337434 24.4256 0 24.8193 0C25.2411 0 25.5504 0.337434 25.5504 0.731107V5.28647C25.5504 5.70826 25.2411 6.01757 24.8193 6.01757ZM34.1831 8.52021C34.0425 8.52021 33.93 8.49209 33.8175 8.43585C33.452 8.23902 33.3395 7.7891 33.5363 7.45167L35.8421 3.48682C36.039 3.12127 36.4889 3.00879 36.8263 3.20562C37.1637 3.40246 37.3043 3.85237 37.0794 4.21793L34.8017 8.15466C34.6611 8.40773 34.4361 8.52021 34.1831 8.52021ZM41.0161 15.3814C40.763 15.3814 40.51 15.2408 40.3975 15.0158C40.2006 14.6503 40.3131 14.2285 40.6506 14.0035L44.6154 11.7258C44.9528 11.529 45.4027 11.6415 45.5996 12.007C45.7964 12.3445 45.6839 12.7944 45.3465 12.9912L41.3817 15.2689C41.2692 15.3533 41.1567 15.3814 41.0161 15.3814ZM48.1022 24.717H43.5187C43.1251 24.717 42.7876 24.4077 42.7876 23.9859C42.7876 23.5923 43.1251 23.2548 43.5187 23.2548H48.1022C48.4959 23.2548 48.8333 23.5923 48.8333 23.9859C48.8333 24.4077 48.4959 24.717 48.1022 24.717ZM44.981 36.3585C44.8404 36.3585 44.7279 36.3304 44.6154 36.246L40.6506 33.9684C40.3131 33.7715 40.2006 33.3216 40.3975 32.9842C40.5943 32.6186 41.0442 32.5062 41.3817 32.703L45.3465 35.0088C45.6839 35.2056 45.7964 35.6555 45.5996 35.993C45.4871 36.2179 45.234 36.3585 44.981 36.3585ZM36.4607 44.8787C36.2077 44.8787 35.9546 44.7381 35.8421 44.5132L33.5363 40.5483C33.3395 40.2109 33.452 39.761 33.8175 39.5641C34.1549 39.3673 34.6049 39.4798 34.8017 39.8172L37.0794 43.7821C37.3043 44.1195 37.1637 44.5694 36.8263 44.7663C36.7138 44.8506 36.5732 44.8787 36.4607 44.8787ZM24.8193 48C24.4256 48 24.0882 47.6626 24.0882 47.2689V42.6854C24.0882 42.2917 24.4256 41.9543 24.8193 41.9543C25.2411 41.9543 25.5504 42.2917 25.5504 42.6854V47.2689C25.5504 47.6626 25.2411 48 24.8193 48ZM13.2059 44.8787C13.0653 44.8787 12.9528 44.8506 12.8404 44.7663C12.4748 44.5694 12.3623 44.1195 12.5592 43.7821L14.8368 39.8172C15.0618 39.4798 15.4836 39.3392 15.8491 39.5641C16.1866 39.761 16.2991 40.2109 16.1022 40.5483L13.8245 44.5132C13.6839 44.7381 13.459 44.8787 13.2059 44.8787ZM4.6857 36.3585C4.43263 36.3585 4.17955 36.2179 4.03895 35.993C3.84212 35.6555 3.95459 35.2056 4.32015 35.0088L8.285 32.703C8.62243 32.5062 9.07234 32.6186 9.26918 32.9842C9.46602 33.3216 9.35354 33.7715 9.0161 33.9684L5.05125 36.246C4.93878 36.3304 4.79818 36.3585 4.6857 36.3585ZM6.1198 24.717H1.56444C1.17076 24.717 0.833328 24.4077 0.833328 23.9859C0.833328 23.5923 1.17076 23.2548 1.56444 23.2548H6.1198C6.54159 23.2548 6.8509 23.5923 6.8509 23.9859C6.8509 24.4077 6.54159 24.717 6.1198 24.717ZM8.65055 15.3814C8.50995 15.3814 8.39748 15.3533 8.285 15.2689L4.32015 12.9912C3.95459 12.7944 3.84212 12.3445 4.03895 12.007C4.23579 11.6415 4.6857 11.529 5.05125 11.7258L9.0161 14.0035C9.35354 14.2285 9.46602 14.6503 9.26918 15.0158C9.12858 15.2408 8.87551 15.3814 8.65055 15.3814ZM15.4836 8.52021C15.2305 8.52021 14.9774 8.40773 14.8368 8.18278L12.5592 4.21793C12.3623 3.85237 12.4748 3.40246 12.8404 3.20562C13.1778 3.00879 13.6277 3.12127 13.8245 3.48682L16.1022 7.45167C16.2991 7.7891 16.1866 8.23902 15.8491 8.43585C15.7367 8.49209 15.5961 8.52021 15.4836 8.52021Z" fill="#FF9D05"/>
<path fill-rule="evenodd" clip-rule="evenodd" d="M30.1057 32.8436C30.0214 32.8436 29.937 32.8436 29.8527 32.7874L24.8193 30.8471L19.814 32.7874C19.589 32.8998 19.3078 32.8436 19.111 32.703C18.9142 32.5624 18.8017 32.3375 18.8298 32.0844L19.1391 26.7136L15.7085 22.5519C15.5679 22.355 15.5117 22.102 15.5961 21.8489C15.6804 21.6239 15.8491 21.4271 16.1022 21.3708L21.3043 20.0211L24.2288 15.4657C24.3412 15.2689 24.5943 15.1564 24.8193 15.1564C25.0723 15.1564 25.2973 15.2689 25.4379 15.4657L28.3623 20.0211L33.5644 21.3708C33.7894 21.4271 33.9862 21.6239 34.0706 21.8489C34.1549 22.102 34.0987 22.355 33.93 22.5519L30.5275 26.7136L30.8368 32.0844C30.8368 32.3375 30.7244 32.5624 30.5275 32.703C30.415 32.8155 30.2463 32.8436 30.1057 32.8436Z" fill="white"/>
</g>
<defs>
<clipPath id="clip0_261_2662">
<rect width="48" height="48" fill="white" transform="translate(0.833328)"/>
</clipPath>
</defs>
</svg>
