<svg width="48" height="48" viewBox="0 0 48 48" fill="none" xmlns="http://www.w3.org/2000/svg">
<path d="M0 24C0 10.7452 10.7452 0 24 0C37.2548 0 48 10.7452 48 24C48 37.2548 37.2548 48 24 48C10.7452 48 0 37.2548 0 24Z" fill="#036A79" fill-opacity="0.05"/>
<path d="M0.5 24C0.5 11.0213 11.0213 0.5 24 0.5C36.9787 0.5 47.5 11.0213 47.5 24C47.5 36.9787 36.9787 47.5 24 47.5C11.0213 47.5 0.5 36.9787 0.5 24Z" stroke="#036A79" stroke-opacity="0.3"/>
<path d="M34.3293 25.3812C33.6297 25.3812 33.0113 25.832 32.7956 26.4976C31.6293 30.1004 28.2476 32.7144 24.2612 32.7144C19.3121 32.7144 15.2855 28.6874 15.2855 23.738C15.2855 19.7679 17.8779 16.397 21.4586 15.2175C22.15 14.9897 22.6184 14.3433 22.6184 13.6145C22.6184 13.0983 22.3714 12.613 21.9543 12.3095C21.5372 12.0055 20.9997 11.9197 20.5089 12.0777C15.5783 13.6656 12 18.287 12 23.7381C12 30.4995 17.5002 36 24.2611 36C29.6905 36 34.2963 32.4498 35.9014 27.5505C36.0665 27.0467 35.9799 26.4945 35.6687 26.0651C35.3583 25.6359 34.8602 25.3812 34.3293 25.3812Z" fill="#036A79"/>
<path d="M27.0188 15.2033C29.7443 16.0856 31.9011 18.2376 32.7899 20.9603C33.0113 21.6381 33.6426 22.0958 34.3557 22.0958H34.3895C34.9044 22.0958 35.3882 21.8496 35.6913 21.4336C35.9938 21.0178 36.0803 20.4815 35.9224 19.9915C34.7201 16.2528 31.7692 13.2958 28.0336 12.0847C27.5387 11.9243 26.9957 12.0105 26.5746 12.3164C26.1535 12.6228 25.9041 13.1122 25.9041 13.633V13.6688C25.9039 14.3675 26.3546 14.9879 27.0188 15.2033Z" fill="#036A79"/>
</svg>
