<svg width="20" height="21" viewBox="0 0 20 21" fill="none" xmlns="http://www.w3.org/2000/svg">
<path d="M6.66667 19C6.22833 19 5.79917 18.8216 5.48833 18.5116L0.488333 13.5116C0.178333 13.2008 0 12.7716 0 12.3333C0 11.895 0.178333 11.4658 0.488333 11.155L7.98833 3.65496C8.29917 3.34496 8.72833 3.16663 9.16667 3.16663H14.1667C14.2742 3.16663 14.3758 3.17913 14.4758 3.20413C15.2342 3.31996 15.8333 4.02329 15.8333 4.83329V9.83329C15.8333 10.2716 15.655 10.7008 15.345 11.0116L7.845 18.5116C7.53417 18.8216 7.105 19 6.66667 19ZM9.16667 3.99996C8.9475 3.99996 8.73333 4.08913 8.5775 4.24413L1.0775 11.7441C0.9225 11.9 0.833333 12.1141 0.833333 12.3333C0.833333 12.5525 0.9225 12.7666 1.0775 12.9225L6.0775 17.9225C6.38833 18.2333 6.94417 18.2333 7.255 17.9225L14.755 10.4225C14.9108 10.2666 15 10.0525 15 9.83329V4.83329C15 4.43079 14.7042 4.08079 14.3108 4.01996C14.2392 4.00329 14.2067 3.99996 14.1667 3.99996H9.16667Z" fill="#DF1C26"/>
<path d="M18.275 20.6666H10.8916C10.4375 20.6666 9.99496 20.4908 9.67663 20.1824C9.35246 19.8691 9.16663 19.4374 9.16663 18.9999V16.1833C9.16663 16.0724 9.21079 15.9666 9.28829 15.8883L14.755 10.4216C14.9108 10.2666 15 10.0524 15 9.83328V4.83328C15 4.43078 14.7041 4.08078 14.3108 4.01995C14.11 3.98828 13.9616 3.81745 13.9583 3.61495C13.955 3.41245 14.0983 3.23578 14.2983 3.19828C14.84 3.09828 15.4033 3.26662 15.7983 3.65078L19.4883 7.19078C19.8141 7.50578 20 7.93745 20 8.37495V18.9999C20 19.4374 19.8141 19.8691 19.49 20.1824C19.1716 20.4908 18.7291 20.6666 18.275 20.6666ZM9.99996 16.3558V18.9999C9.99996 19.2133 10.0933 19.4266 10.2566 19.5841C10.42 19.7424 10.6516 19.8333 10.8916 19.8333H18.275C18.515 19.8333 18.7458 19.7424 18.91 19.5841C19.0733 19.4266 19.1666 19.2133 19.1666 18.9999V8.37495C19.1666 8.16162 19.0733 7.94828 18.91 7.79078L15.8333 4.83912V9.83328C15.8333 10.2716 15.655 10.7008 15.345 11.0116L9.99996 16.3558Z" fill="#DF1C26"/>
<path d="M12.9166 7.33331C12.2275 7.33331 11.6666 6.77248 11.6666 6.08331C11.6666 5.39415 12.2275 4.83331 12.9166 4.83331C13.6058 4.83331 14.1666 5.39415 14.1666 6.08331C14.1666 6.77248 13.6058 7.33331 12.9166 7.33331ZM12.9166 5.66665C12.6866 5.66665 12.5 5.85331 12.5 6.08331C12.5 6.31331 12.6866 6.49998 12.9166 6.49998C13.1466 6.49998 13.3333 6.31331 13.3333 6.08331C13.3333 5.85331 13.1466 5.66665 12.9166 5.66665Z" fill="#DF1C26"/>
<path d="M17.9167 6.49996C17.6867 6.49996 17.5 6.31329 17.5 6.08329V3.58329C17.5 2.43496 16.565 1.49996 15.4167 1.49996C14.2683 1.49996 13.3333 2.43496 13.3333 3.58329V5.24996C13.3333 5.47996 13.1467 5.66663 12.9167 5.66663C12.6867 5.66663 12.5 5.47996 12.5 5.24996V3.58329C12.5 1.97496 13.8083 0.666626 15.4167 0.666626C17.025 0.666626 18.3333 1.97496 18.3333 3.58329V6.08329C18.3333 6.31329 18.1467 6.49996 17.9167 6.49996Z" fill="#DF1C26"/>
</svg>
