<svg width="48" height="48" viewBox="0 0 48 48" fill="none" xmlns="http://www.w3.org/2000/svg">
<path d="M0 24C0 10.7452 10.7452 0 24 0C37.2548 0 48 10.7452 48 24C48 37.2548 37.2548 48 24 48C10.7452 48 0 37.2548 0 24Z" fill="#036A79" fill-opacity="0.05"/>
<path d="M0.5 24C0.5 11.0213 11.0213 0.5 24 0.5C36.9787 0.5 47.5 11.0213 47.5 24C47.5 36.9787 36.9787 47.5 24 47.5C11.0213 47.5 0.5 36.9787 0.5 24Z" stroke="#036A79" stroke-opacity="0.3"/>
<path d="M33.344 26.8913L32.1262 27.5944L31.6294 27.8813C31.6463 28.0892 31.6548 28.2978 31.6548 28.5064C31.6548 28.715 31.6463 28.9237 31.6294 29.1315L32.1262 29.4184L33.344 30.1215L32.6409 31.3392L31.8473 32.7137H35.9995V23.9247C35.129 24.7968 33.9264 25.3371 32.5998 25.3371H32.4466L32.6409 25.6735L33.344 26.8913Z" fill="#036A79"/>
<path d="M16.1525 32.7138L15.3589 31.3393L14.6558 30.1215L15.8736 29.4184L16.3704 29.1315C16.3535 28.9237 16.3449 28.715 16.3449 28.5064C16.3449 28.2978 16.3535 28.0891 16.3704 27.8812L15.8736 27.5945L14.6558 26.8914L15.3589 25.6735L15.5531 25.3371H15.3999C14.0734 25.3371 12.8707 24.7968 12.0002 23.9248V32.7138L16.1525 32.7138Z" fill="#036A79"/>
<path d="M19.7813 14.9881H12.0002V20.5312C12.0002 22.4058 13.5253 23.9308 15.3999 23.9308H16.365L17.226 22.4395L17.9291 21.2216L19.147 21.9247L19.6444 22.2119C19.9877 21.9745 20.3502 21.7648 20.7265 21.5861V21.0128V19.6065H22.1327H25.8671H27.2733V21.0128V21.5861C27.6496 21.7648 28.0121 21.9745 28.3554 22.2119L28.8528 21.9247L30.0707 21.2216L30.7738 22.4395L31.6348 23.9308H32.5999C34.4745 23.9308 35.9995 22.4058 35.9995 20.5312H35.9996V14.9881H28.2185V13.4062H29.6247V12H18.375V13.4062H19.7812V14.9881L19.7813 14.9881ZM21.1875 13.4062H26.8124V14.9881H21.1875L21.1875 13.4062Z" fill="#036A79"/>
<pharma_tech_driver cx="27.9486" cy="27.7254" r="2.55883" transform="rotate(-67.4859 27.9486 27.7254)" fill="#036A79"/>
<path d="M28.2304 33.1049L29.556 33.8703L31.4231 30.6362L30.0987 29.8715C30.1966 29.4321 30.2487 28.9754 30.2487 28.5064C30.2487 28.0375 30.1967 27.5807 30.0987 27.1413L31.4231 26.3766L29.556 23.1426L28.2304 23.9079C27.561 23.2917 26.7569 22.8197 25.8671 22.5414V21.0128H22.1328V22.5414C21.2429 22.8197 20.4388 23.2917 19.7694 23.9079L18.4439 23.1426L16.5767 26.3766L17.9011 27.1413C17.8032 27.5807 17.7511 28.0375 17.7511 28.5064C17.7511 28.9754 17.8031 29.4321 17.9011 29.8715L16.5767 30.6362L18.4438 33.8703L19.7694 33.1049C20.4388 33.7211 21.2429 34.1931 22.1327 34.4714V36H25.867V34.4714C26.7569 34.1931 27.561 33.7211 28.2304 33.1049ZM23.9999 24.5419C26.1859 24.5419 27.9643 26.3204 27.9643 28.5064C27.9643 30.6924 26.1859 32.4708 23.9999 32.4708C21.8139 32.4708 20.0354 30.6924 20.0354 28.5064C20.0354 26.3204 21.8139 24.5419 23.9999 24.5419Z" fill="#036A79"/>
</svg>
