<svg width="48" height="48" viewBox="0 0 48 48" fill="none" xmlns="http://www.w3.org/2000/svg">
<path d="M0 24C0 10.7452 10.7452 0 24 0C37.2548 0 48 10.7452 48 24C48 37.2548 37.2548 48 24 48C10.7452 48 0 37.2548 0 24Z" fill="#036A79" fill-opacity="0.05"/>
<path d="M0.5 24C0.5 11.0213 11.0213 0.5 24 0.5C36.9787 0.5 47.5 11.0213 47.5 24C47.5 36.9787 36.9787 47.5 24 47.5C11.0213 47.5 0.5 36.9787 0.5 24Z" stroke="#036A79" stroke-opacity="0.3"/>
<path d="M33.5032 31.7912L32.4315 18.2861C32.365 17.4159 31.6288 16.7346 30.7564 16.7346H28.6393V19.8714C28.6393 20.2598 28.3249 20.5742 27.9364 20.5742C27.5484 20.5742 27.2335 20.2598 27.2335 19.8714V16.7346H20.7671V19.8714C20.7671 20.2598 20.4522 20.5742 20.0642 20.5742C19.6757 20.5742 19.3613 20.2598 19.3613 19.8714V16.7346H17.2442C16.3717 16.7346 15.6356 17.4159 15.569 18.2842L14.4969 31.7931C14.414 32.875 14.7893 33.9519 15.5264 34.7475C16.2635 35.5431 17.3084 36 18.3932 36H29.6074C30.6922 36 31.7371 35.5431 32.4742 34.7475C33.2113 33.9518 33.5866 32.875 33.5032 31.7912ZM27.167 24.9137L23.5317 28.549C23.3944 28.6863 23.2145 28.7552 23.0345 28.7552C22.8546 28.7552 22.6747 28.6863 22.5374 28.549L20.8336 26.8453C20.559 26.5707 20.559 26.126 20.8336 25.8514C21.1082 25.5768 21.5534 25.5768 21.8275 25.8514L23.0346 27.058L26.1732 23.9194C26.4473 23.6453 26.8925 23.6453 27.167 23.9194C27.4416 24.194 27.4416 24.6392 27.167 24.9137Z" fill="#036A79"/>
<path d="M24.0003 12C21.4423 12 19.3613 14.0814 19.3613 16.6395V16.7346H20.7671V16.6395C20.7671 14.8565 22.2174 13.4057 24.0004 13.4057C25.7833 13.4057 27.2336 14.8565 27.2336 16.6395V16.7346H28.6393V16.6395C28.6393 14.0814 26.5583 12 24.0003 12Z" fill="#036A79"/>
</svg>
