<svg width="48" height="48" viewBox="0 0 48 48" fill="none" xmlns="http://www.w3.org/2000/svg">
<path d="M0 24C0 10.7452 10.7452 0 24 0C37.2548 0 48 10.7452 48 24C48 37.2548 37.2548 48 24 48C10.7452 48 0 37.2548 0 24Z" fill="#036A79" fill-opacity="0.05"/>
<path d="M0.5 24C0.5 11.0213 11.0213 0.5 24 0.5C36.9787 0.5 47.5 11.0213 47.5 24C47.5 36.9787 36.9787 47.5 24 47.5C11.0213 47.5 0.5 36.9787 0.5 24Z" stroke="#036A79" stroke-opacity="0.3"/>
<path d="M21.8906 24.7031H26.1094V26.1094H21.8906V24.7031Z" fill="#036A79"/>
<path d="M31.4709 26.1094H27.5156V26.8125C27.5156 27.201 27.201 27.5156 26.8125 27.5156H21.1875C20.799 27.5156 20.4844 27.201 20.4844 26.8125V26.1094H16.5291C15.62 26.1094 14.816 25.5298 14.5281 24.6674L12 17.0817V32.4375C12 33.6006 12.9463 34.5469 14.1094 34.5469H33.8906C35.0537 34.5469 36 33.6006 36 32.4375V17.0823L33.4717 24.6674C33.184 25.5298 32.38 26.1094 31.4709 26.1094H31.4709Z" fill="#036A79"/>
<path d="M26.8124 13.4531H21.1874C20.0243 13.4531 19.078 14.3994 19.078 15.5625V16.2656H13.2097L15.8616 24.2225C15.9578 24.5101 16.2262 24.7031 16.5291 24.7031H20.4843V24C20.4843 23.6114 20.7989 23.2969 21.1874 23.2969H26.8124C27.201 23.2969 27.5156 23.6114 27.5156 24V24.7031H31.4708C31.7737 24.7031 32.0421 24.5101 32.1382 24.2225L34.7903 16.2656H28.9218V15.5625C28.9218 14.3994 27.9755 13.4531 26.8125 13.4531H26.8124ZM20.4843 16.2656V15.5625C20.4843 15.1745 20.7994 14.8594 21.1874 14.8594H26.8124C27.2004 14.8594 27.5155 15.1745 27.5155 15.5625V16.2656H20.4843Z" fill="#036A79"/>
</svg>
