<svg width="24" height="24" viewBox="0 0 24 24" fill="none" xmlns="http://www.w3.org/2000/svg">
<path d="M19.2106 10.3031C18.2183 8.64235 15.9612 5.85602 11.9998 5.85602C8.03841 5.85602 5.78133 8.64235 4.78906 10.3031C4.48231 10.813 4.31982 11.4006 4.31982 12C4.31982 12.5995 4.48231 13.1871 4.78906 13.6969C5.78133 15.3577 8.03841 18.144 11.9998 18.144C15.9612 18.144 18.2183 15.3577 19.2106 13.6969C19.5173 13.1871 19.6798 12.5995 19.6798 12C19.6798 11.4006 19.5173 10.813 19.2106 10.3031ZM18.1198 13.0086C17.2676 14.4326 15.3387 16.8291 11.9998 16.8291C8.6609 16.8291 6.73202 14.4326 5.87985 13.0086C5.69761 12.7055 5.60108 12.3563 5.60108 12C5.60108 11.6438 5.69761 11.2945 5.87985 10.9915C6.73202 9.5674 8.6609 7.17095 11.9998 7.17095C15.3387 7.17095 17.2676 9.56477 18.1198 10.9915C18.302 11.2945 18.3986 11.6438 18.3986 12C18.3986 12.3563 18.302 12.7055 18.1198 13.0086Z" fill="#0D6EFD"/>
<path d="M11.9993 8.89215C11.3664 8.89215 10.7477 9.07443 10.2215 9.41592C9.69526 9.75742 9.2851 10.2428 9.0429 10.8107C8.8007 11.3786 8.73733 12.0035 8.8608 12.6064C8.98428 13.2092 9.28905 13.763 9.73658 14.1976C10.1841 14.6323 10.7543 14.9283 11.375 15.0482C11.9958 15.1681 12.6392 15.1066 13.2239 14.8714C13.8086 14.6361 14.3084 14.2378 14.66 13.7267C15.0116 13.2156 15.1993 12.6147 15.1993 12C15.1983 11.1761 14.8608 10.3861 14.2609 9.80352C13.661 9.22089 12.8477 8.89314 11.9993 8.89215ZM11.9993 13.8648C11.6196 13.8648 11.2484 13.7554 10.9326 13.5505C10.6169 13.3456 10.3708 13.0544 10.2255 12.7136C10.0801 12.3729 10.0421 11.998 10.1162 11.6362C10.1903 11.2745 10.3732 10.9423 10.6417 10.6815C10.9102 10.4207 11.2523 10.2431 11.6247 10.1711C11.9972 10.0992 12.3832 10.1361 12.7341 10.2772C13.0849 10.4184 13.3848 10.6574 13.5957 10.964C13.8067 11.2707 13.9193 11.6312 13.9193 12C13.9193 12.4946 13.717 12.9689 13.357 13.3186C12.9969 13.6683 12.5085 13.8648 11.9993 13.8648Z" fill="#0D6EFD"/>
</svg>
