<svg width="25" height="24" viewBox="0 0 25 24" fill="none" xmlns="http://www.w3.org/2000/svg">
<path d="M2.10706 18C2.93422 19.4356 4.76858 19.9288 6.20417 19.1017C6.20516 19.1011 6.2061 19.1005 6.20708 19.1L6.65206 18.843C7.49206 19.5616 8.4576 20.119 9.50005 20.487V21C9.50005 22.6568 10.8432 24 12.5 24C14.1569 24 15.5 22.6568 15.5 21V20.487C16.5426 20.1184 17.5082 19.5604 18.348 18.841L18.795 19.099C20.231 19.9274 22.0666 19.4349 22.8951 17.999C23.7235 16.563 23.231 14.7274 21.795 13.899L21.351 13.643C21.5509 12.5554 21.5509 11.4405 21.351 10.353L21.795 10.097C23.231 9.26855 23.7235 7.43292 22.8951 5.99695C22.0666 4.56103 20.231 4.06852 18.795 4.89694L18.35 5.15395C17.5092 4.43616 16.543 3.87984 15.5 3.513V3C15.5 1.34316 14.1569 0 12.5 0C10.8432 0 9.50005 1.34316 9.50005 3V3.513C8.45746 3.88158 7.49188 4.43958 6.65206 5.15902L6.20506 4.90003C4.7691 4.07156 2.93347 4.56408 2.10505 6C1.27663 7.43592 1.7691 9.27159 3.20506 10.1L3.64906 10.356C3.44919 11.4435 3.44919 12.5584 3.64906 13.646L3.20506 13.902C1.77308 14.7326 1.28221 16.5647 2.10706 18ZM12.5 8.00002C14.7092 8.00002 16.5 9.79088 16.5 12C16.5 14.2091 14.7092 16 12.5 16C10.2909 16 8.50006 14.2091 8.50006 12C8.50006 9.79088 10.2909 8.00002 12.5 8.00002Z" fill="#036A79"/>
</svg>
