<svg width="33" height="32" viewBox="0 0 33 32" fill="none" xmlns="http://www.w3.org/2000/svg">
<rect x="1" y="0.500122" width="31" height="31" rx="15.5" fill="#036A79"/>
<rect x="1" y="0.500122" width="31" height="31" rx="15.5" stroke="#036A79"/>
<g clip-path="url(#clip0_144_523)">
<path d="M14 22.0001C14.5523 22.0001 15 21.5524 15 21.0001C15 20.4478 14.5523 20.0001 14 20.0001C13.4477 20.0001 13 20.4478 13 21.0001C13 21.5524 13.4477 22.0001 14 22.0001Z" fill="white"/>
<path d="M19 22.0001C19.5523 22.0001 20 21.5524 20 21.0001C20 20.4478 19.5523 20.0001 19 20.0001C18.4477 20.0001 18 20.4478 18 21.0001C18 21.5524 18.4477 22.0001 19 22.0001Z" fill="white"/>
<path d="M22 11.5001H21V10.5001C21 10.3675 20.9473 10.2403 20.8536 10.1466C20.7598 10.0528 20.6326 10.0001 20.5 10.0001C20.3674 10.0001 20.2402 10.0528 20.1464 10.1466C20.0527 10.2403 20 10.3675 20 10.5001V11.5001H19C18.8674 11.5001 18.7402 11.5528 18.6464 11.6466C18.5527 11.7403 18.5 11.8675 18.5 12.0001C18.5 12.1327 18.5527 12.2599 18.6464 12.3537C18.7402 12.4474 18.8674 12.5001 19 12.5001H20V13.5001C20 13.6327 20.0527 13.7599 20.1464 13.8537C20.2402 13.9474 20.3674 14.0001 20.5 14.0001C20.6326 14.0001 20.7598 13.9474 20.8536 13.8537C20.9473 13.7599 21 13.6327 21 13.5001V12.5001H22C22.1326 12.5001 22.2598 12.4474 22.3536 12.3537C22.4473 12.2599 22.5 12.1327 22.5 12.0001C22.5 11.8675 22.4473 11.7403 22.3536 11.6466C22.2598 11.5528 22.1326 11.5001 22 11.5001Z" fill="white"/>
<path d="M21.3855 14.8631C21.3209 14.851 21.2544 14.8519 21.1901 14.8656C21.1258 14.8794 21.0649 14.9058 21.0108 14.9433C20.9568 14.9808 20.9107 15.0286 20.8753 15.084C20.8399 15.1394 20.8158 15.2013 20.8045 15.2661C20.7421 15.6122 20.5602 15.9254 20.2904 16.1509C20.0206 16.3765 19.6802 16.5001 19.3285 16.5001H13.209L12.739 12.5001H17C17.1326 12.5001 17.2598 12.4474 17.3536 12.3537C17.4473 12.2599 17.5 12.1327 17.5 12.0001C17.5 11.8675 17.4473 11.7403 17.3536 11.6466C17.2598 11.5528 17.1326 11.5001 17 11.5001H12.621L12.6 11.3241C12.5569 10.9594 12.3815 10.6232 12.1071 10.3792C11.8327 10.1351 11.4782 10.0003 11.111 10.0001H11C10.8674 10.0001 10.7402 10.0528 10.6464 10.1466C10.5527 10.2403 10.5 10.3675 10.5 10.5001C10.5 10.6327 10.5527 10.7599 10.6464 10.8537C10.7402 10.9474 10.8674 11.0001 11 11.0001H11.111C11.2335 11.0001 11.3517 11.0451 11.4432 11.1265C11.5347 11.2079 11.5932 11.32 11.6075 11.4416L12.2955 17.2916C12.3669 17.9 12.6592 18.461 13.117 18.8681C13.5747 19.2752 14.1659 19.5001 14.7785 19.5001H20C20.1326 19.5001 20.2598 19.4474 20.3536 19.3537C20.4473 19.2599 20.5 19.1327 20.5 19.0001C20.5 18.8675 20.4473 18.7403 20.3536 18.6466C20.2598 18.5528 20.1326 18.5001 20 18.5001H14.7785C14.4683 18.5002 14.1656 18.404 13.9123 18.2249C13.659 18.0459 13.4674 17.7926 13.364 17.5001H19.3285C19.9146 17.5002 20.482 17.2943 20.9318 16.9185C21.3815 16.5427 21.6849 16.0209 21.789 15.4441C21.8007 15.3795 21.7995 15.3132 21.7855 15.249C21.7716 15.1848 21.7451 15.124 21.7076 15.07C21.6702 15.0161 21.6224 14.97 21.5672 14.9345C21.5119 14.899 21.4502 14.8748 21.3855 14.8631Z" fill="white"/>
</g>
<defs>
<clipPath id="clip0_144_523">
<rect width="12" height="12" fill="white" transform="translate(10.5 10.0001)"/>
</clipPath>
</defs>
</svg>
