<svg width="48" height="49" viewBox="0 0 48 49" fill="none" xmlns="http://www.w3.org/2000/svg">
<rect y="0.314697" width="48" height="48" rx="24" fill="#F4FBF3"/>
<g clip-path="url(#clip0_1218_1159)">
<path d="M31.6864 28.016C29.5473 27.664 28.5832 25.4729 28.5442 25.3799C28.5412 25.3739 28.5392 25.3679 28.5352 25.3619C28.4262 25.1398 28.4002 24.9568 28.4602 24.8178C28.5772 24.5438 29.0252 24.4018 29.3213 24.3078C29.4073 24.2808 29.4883 24.2548 29.5553 24.2288C29.8473 24.1138 30.0553 23.9888 30.1933 23.8478C30.3573 23.6788 30.3893 23.5168 30.3873 23.4118C30.3823 23.1557 30.1863 22.9277 29.8733 22.8167C29.7683 22.7737 29.6473 22.7507 29.5253 22.7507C29.4423 22.7507 29.3183 22.7617 29.2012 22.8167C28.9512 22.9337 28.7272 22.9977 28.5342 23.0067C28.4322 23.0017 28.3602 22.9797 28.3132 22.9587C28.3192 22.8587 28.3252 22.7557 28.3322 22.6497L28.3352 22.6037C28.4042 21.5207 28.4892 20.1736 28.1312 19.3736C27.8862 18.8255 27.5572 18.3545 27.1521 17.9725C26.8131 17.6525 26.4191 17.3925 25.9811 17.2005C25.2201 16.8645 24.51 16.8145 24.154 16.8145H24.114C24.015 16.8155 23.854 16.8175 23.839 16.8175C23.484 16.8175 22.7729 16.8675 22.0099 17.2035C21.5729 17.3955 21.1809 17.6545 20.8429 17.9745C20.4398 18.3565 20.1118 18.8265 19.8678 19.3726C19.5098 20.1716 19.5948 21.5187 19.6628 22.6007V22.6027C19.6698 22.7187 19.6778 22.8397 19.6848 22.9577C19.6328 22.9807 19.5478 23.0067 19.4228 23.0067C19.2208 23.0067 18.9808 22.9427 18.7098 22.8157C18.6297 22.7787 18.5387 22.7597 18.4387 22.7597C18.2777 22.7597 18.1067 22.8067 17.9597 22.8937C17.7737 23.0027 17.6537 23.1557 17.6207 23.3268C17.5997 23.4388 17.6007 23.6618 17.8487 23.8878C17.9857 24.0118 18.1857 24.1268 18.4447 24.2288C18.5127 24.2558 18.5937 24.2808 18.6788 24.3078C18.9748 24.4018 19.4238 24.5438 19.5408 24.8178C19.5998 24.9568 19.5738 25.1398 19.4648 25.3619C19.4617 25.3677 19.459 25.3737 19.4568 25.3799C19.4288 25.4439 19.1738 26.0189 18.6508 26.6259C18.3537 26.9709 18.0267 27.2599 17.6787 27.484C17.2537 27.758 16.7947 27.936 16.3136 28.015C16.1246 28.046 15.9896 28.214 16.0006 28.405C16.0036 28.46 16.0166 28.515 16.0396 28.568V28.569C16.1166 28.748 16.2936 28.899 16.5817 29.032C16.9337 29.195 17.4597 29.332 18.1467 29.439C18.1817 29.505 18.2177 29.6701 18.2427 29.7831C18.2687 29.9031 18.2957 30.0271 18.3347 30.1581C18.3767 30.3001 18.4847 30.4701 18.7638 30.4701C18.8698 30.4701 18.9908 30.4461 19.1318 30.4191C19.3378 30.3791 19.6198 30.3241 19.9708 30.3241C20.1658 30.3241 20.3678 30.3411 20.5708 30.3751C20.9629 30.4401 21.3009 30.6781 21.6919 30.9541C22.2639 31.3581 22.912 31.8152 23.902 31.8152C23.929 31.8152 23.956 31.8142 23.983 31.8122C24.0213 31.8143 24.0596 31.8153 24.098 31.8152C25.0881 31.8152 25.7361 31.3581 26.3081 30.9551L26.3091 30.9541C26.7001 30.6791 27.0381 30.4411 27.4302 30.3761C27.6332 30.3421 27.8352 30.3251 28.0302 30.3251C28.3662 30.3251 28.6322 30.3681 28.8692 30.4141C29.0242 30.4441 29.1442 30.4591 29.2372 30.4591H29.2552C29.4593 30.4591 29.6093 30.3471 29.6663 30.1521C29.7043 30.0231 29.7313 29.9031 29.7583 29.7801C29.7813 29.6741 29.8193 29.504 29.8533 29.438C30.5403 29.33 31.0663 29.194 31.4183 29.031C31.7054 28.898 31.8824 28.747 31.9594 28.569C31.9824 28.516 31.9964 28.461 31.9994 28.404C32.0104 28.215 31.8754 28.046 31.6864 28.016Z" fill="#DF1C26"/>
</g>
<defs>
<clipPath id="clip0_1218_1159">
<rect width="16" height="16" fill="white" transform="translate(16 16.3147)"/>
</clipPath>
</defs>
</svg>
