<svg width="55" height="17" viewBox="0 0 55 17" fill="none" xmlns="http://www.w3.org/2000/svg">
<path d="M35.295 12.3168V3.865H36.7283V4.5427C37.1645 3.99743 37.8111 3.70142 38.6134 3.70142C40.2648 3.70142 41.4489 5.01787 41.4489 6.90297C41.4489 8.78808 40.257 10.1279 38.6134 10.1279C37.8033 10.1279 37.1645 9.81631 36.7283 9.27104V12.3168H35.295ZM36.7283 6.12401V7.68194C37.0321 8.31291 37.5774 8.7725 38.3641 8.7725C39.3145 8.7725 39.9532 8.06364 39.9532 6.89518C39.9532 5.74231 39.3145 5.04124 38.3641 5.04124C37.5774 5.04903 37.0321 5.47746 36.7283 6.12401Z" fill="#02AA7C"/>
<path d="M42.3759 8.21161C42.3759 7.18337 43.0147 6.46672 44.0741 6.3343L46.5122 6.02271V5.71891C46.5122 5.3528 46.3253 5.15805 45.9825 5.15805H42.9212V3.85718H46.0371C47.2756 3.85718 47.9533 4.46477 47.9533 5.53975V9.94092H46.5044V9.2009C46.0838 9.79291 45.3905 10.1279 44.4947 10.1279C43.2328 10.1279 42.3759 9.35669 42.3759 8.21161ZM44.8452 8.95942C45.5775 8.95942 46.2552 8.54656 46.5044 7.93897V7.17558L44.6427 7.43264C44.1286 7.50275 43.8404 7.77539 43.8404 8.2194C43.8404 8.69457 44.2065 8.95942 44.8452 8.95942Z" fill="#02AA7C"/>
<path d="M48.997 11.0159H50.0408C50.4381 11.0159 50.6173 10.8523 50.7497 10.4784L50.9367 9.94092L48.7244 3.85718H50.22L51.5988 8.09476H51.6299L52.9464 3.85718H54.4186L51.9961 10.8445C51.6689 11.8026 51.2327 12.3168 50.1655 12.3168H48.997V11.0159Z" fill="#02AA7C"/>
<path d="M5.25803 16.5C6.92502 16.5 8.29601 15.9781 9.19961 15.1056C9.87731 14.4357 10.2746 13.5321 10.2746 12.4883C10.2746 11.5458 9.92405 10.6967 9.27751 10.0501C8.63096 9.4036 7.70399 8.92843 6.53554 8.70253L4.61928 8.32863C3.82473 8.18062 3.37293 7.78335 3.37293 7.23028C3.37293 6.50584 4.074 6.0073 5.19571 6.0073C5.89679 6.0073 6.49659 6.2332 6.89387 6.63048C7.14314 6.90312 7.31451 7.25365 7.36904 7.65093L10.1344 7.02775C10.0565 6.2332 9.68257 5.53213 9.11392 4.9557C8.20253 4.05988 6.80818 3.49124 5.16456 3.49124C3.64557 3.49124 2.37585 3.98978 1.49562 4.78432C0.747809 5.48539 0.327166 6.42795 0.327166 7.47955C0.327166 8.39873 0.623174 9.1777 1.22298 9.76972C1.82278 10.3695 2.69523 10.8135 3.84031 11.094L5.7332 11.5458C6.68354 11.7717 7.10419 12.1222 7.10419 12.7454C7.10419 13.5166 6.40312 13.9684 5.25803 13.9684C4.43233 13.9684 3.76242 13.6957 3.34177 13.2439C3.04576 12.9479 2.8666 12.5428 2.84323 12.0988L0 12.722C0.0778968 13.5711 0.475171 14.3189 1.07498 14.9187C2.01753 15.908 3.5443 16.5 5.25803 16.5ZM26.3057 16.5C28.1519 16.5 29.5696 15.8301 30.5433 14.8797C31.3145 14.1319 31.7897 13.2595 32.0389 12.3637L29.1256 11.39C29.001 11.8418 28.7517 12.3169 28.3544 12.6831C27.8793 13.1349 27.2327 13.4542 26.3057 13.4542C25.4567 13.4542 24.6621 13.1271 24.0857 12.5584C23.5092 11.9586 23.1587 11.0862 23.1587 9.98783C23.1587 8.86611 23.5092 8.01704 24.0857 7.41723C24.6543 6.8408 25.4333 6.54479 26.2824 6.54479C27.1782 6.54479 27.8014 6.8408 28.2532 7.2926C28.6271 7.6665 28.853 8.14167 29.001 8.61685L31.9688 7.61977C31.7429 6.74732 31.2678 5.87488 30.5745 5.15044C29.5774 4.17673 28.1285 3.48345 26.2123 3.48345C24.444 3.48345 22.8471 4.15336 21.702 5.30623C20.557 6.47468 19.8559 8.10273 19.8559 9.99562C19.8559 11.8885 20.5803 13.5088 21.7488 14.685C22.8861 15.8301 24.5063 16.5 26.3057 16.5ZM16.2337 16.5C17.5268 16.5 18.4537 16.1027 18.851 15.7522V13.057C18.5472 13.2829 17.9552 13.5555 17.1762 13.5555C16.6232 13.5555 16.2259 13.4309 15.9299 13.1582C15.6806 12.909 15.556 12.4805 15.556 11.9119V0.5H12.261V3.86514H18.8432V7.05891H12.261V12.722C12.261 13.8671 12.6115 14.7941 13.2347 15.4406C13.9357 16.1261 14.964 16.5 16.2337 16.5Z" fill="#502C84"/>
</svg>
