<svg width="32" height="33" viewBox="0 0 32 33" fill="none" xmlns="http://www.w3.org/2000/svg">
<g clip-path="url(#clip0_1148_2754)">
<path d="M17.448 32.5C25.4848 32.5 32 25.9848 32 17.948C32 9.91115 25.4848 3.396 17.448 3.396C9.41115 3.396 2.896 9.91115 2.896 17.948C2.896 25.9848 9.41115 32.5 17.448 32.5Z" fill="#ACF4B8"/>
<path d="M15.472 0.5C6.936 0.5 0 7.436 0 15.972C0 24.508 6.936 31.444 15.472 31.444C24 31.444 30.944 24.508 30.944 15.972C30.944 7.436 24 0.5 15.472 0.5ZM15.472 29.604C7.952 29.604 1.84 23.492 1.84 15.972C1.84 8.452 7.952 2.34 15.472 2.34C22.992 2.34 29.104 8.452 29.104 15.972C29.104 23.492 22.984 29.604 15.472 29.604Z" fill="#17C133"/>
<path d="M11 17L13 19L19 13" stroke="#17C133" stroke-width="2" stroke-linecap="round" stroke-linejoin="round"/>
</g>
<defs>
<clipPath id="clip0_1148_2754">
<rect width="32" height="32" fill="white" transform="translate(0 0.5)"/>
</clipPath>
</defs>
</svg>
