<svg width="48" height="49" viewBox="0 0 48 49" fill="none" xmlns="http://www.w3.org/2000/svg">
<rect y="0.314697" width="48" height="48" rx="24" fill="#F4FBF3"/>
<g clip-path="url(#clip0_1218_1134)">
<path d="M32 19.3537C31.405 19.6147 30.771 19.7877 30.11 19.8717C30.79 19.4657 31.309 18.8277 31.553 18.0587C30.919 18.4367 30.219 18.7037 29.473 18.8527C28.871 18.2117 28.013 17.8147 27.077 17.8147C25.261 17.8147 23.799 19.2887 23.799 21.0957C23.799 21.3557 23.821 21.6057 23.875 21.8437C21.148 21.7107 18.735 20.4037 17.114 18.4127C16.831 18.9037 16.665 19.4657 16.665 20.0707C16.665 21.2067 17.25 22.2137 18.122 22.7967C17.595 22.7867 17.078 22.6337 16.64 22.3927V22.4287C16.64 24.0227 17.777 25.3467 19.268 25.6517C19.001 25.7247 18.71 25.7597 18.408 25.7597C18.198 25.7597 17.986 25.7477 17.787 25.7037C18.212 27.0027 19.418 27.9577 20.852 27.9887C19.736 28.8617 18.319 29.3877 16.785 29.3877C16.516 29.3877 16.258 29.3757 16 29.3427C17.453 30.2797 19.175 30.8147 21.032 30.8147C27.068 30.8147 30.368 25.8147 30.368 21.4807C30.368 21.3357 30.363 21.1957 30.356 21.0567C31.007 20.5947 31.554 20.0177 32 19.3537Z" fill="#DF1C26"/>
</g>
<defs>
<clipPath id="clip0_1218_1134">
<rect width="16" height="16" fill="white" transform="translate(16 16.3147)"/>
</clipPath>
</defs>
</svg>
