<svg width="36" height="36" viewBox="0 0 36 36" fill="none" xmlns="http://www.w3.org/2000/svg">
<g clip-path="url(#clip0_14_6316)">
<path d="M23.8333 11.3333H22.9158C22.7223 10.3931 22.2107 9.5482 21.467 8.94105C20.7234 8.3339 19.7933 8.00156 18.8333 8H12.1667C9.86917 8 8 9.86917 8 12.1667V22.8783C7.99956 23.1136 8.04559 23.3467 8.13543 23.5642C8.22527 23.7816 8.35716 23.9792 8.52355 24.1456C8.68993 24.312 8.88752 24.4439 9.10499 24.5337C9.32247 24.6236 9.55554 24.6696 9.79084 24.6692C10.1375 24.6692 10.4833 24.5683 10.7825 24.3692L13.2408 22.73C13.5301 23.5399 14.0625 24.2407 14.7652 24.7365C15.468 25.2323 16.3067 25.499 17.1667 25.5H21.9142L25.2175 27.7025C25.487 27.8825 25.8004 27.9858 26.1241 28.0012C26.4478 28.0166 26.7696 27.9436 27.055 27.79C27.6383 27.4783 28 26.8733 28 26.2117V15.5C28 13.2025 26.1308 11.3333 23.8333 11.3333ZM9.85834 22.9825C9.8425 22.9925 9.79584 23.0225 9.73167 22.9883C9.66584 22.9533 9.66584 22.8975 9.66584 22.8792V12.1667C9.66584 10.7883 10.7875 9.66667 12.1658 9.66667H18.8325C20.2108 9.66667 21.3325 10.7883 21.3325 12.1667V18C21.3325 19.3783 20.2108 20.5 18.8325 20.5H13.8325C13.56 20.5 13.3817 20.6325 13.3617 20.6458L9.85834 22.9825ZM26.3333 26.2125C26.3333 26.23 26.3333 26.2867 26.2675 26.3217C26.2483 26.3331 26.2261 26.3387 26.2037 26.3377C26.1813 26.3366 26.1598 26.329 26.1417 26.3158L22.6292 23.9733C22.4921 23.8821 22.3313 23.8334 22.1667 23.8333H17.1667C16.6499 23.8328 16.1459 23.6723 15.7239 23.3739C15.302 23.0754 14.9827 22.6538 14.81 22.1667H18.8333C21.1308 22.1667 23 20.2975 23 18V13H23.8333C25.2117 13 26.3333 14.1217 26.3333 15.5V26.2125Z" fill="#036A79"/>
</g>
<defs>
<clipPath id="clip0_14_6316">
<rect width="20" height="20" fill="white" transform="translate(8 8)"/>
</clipPath>
</defs>
</svg>
